<?xml version="1.0" encoding="utf-8"?>
<!-- Generator: Adobe Illustrator 23.0.1, SVG Export Plug-In . SVG Version: 6.00 Build 0)  -->
<svg version="1.1"
	 id="svg1477" inkscape:version="0.92.4 (5da689c313, 2019-01-14)" sodipodi:docname="hayabusablack.svg" xmlns:cc="http://creativecommons.org/ns#" xmlns:dc="http://purl.org/dc/elements/1.1/" xmlns:inkscape="http://www.inkscape.org/namespaces/inkscape" xmlns:rdf="http://www.w3.org/1999/02/22-rdf-syntax-ns#" xmlns:sodipodi="http://sodipodi.sourceforge.net/DTD/sodipodi-0.dtd" xmlns:svg="http://www.w3.org/2000/svg"
	 xmlns="http://www.w3.org/2000/svg" xmlns:xlink="http://www.w3.org/1999/xlink" x="0px" y="0px" viewBox="0 0 750 630.5"
	 style="enable-background:new 0 0 750 630.5;" xml:space="preserve">
<style type="text/css">
	.st0{fill:none;}
	.st1{display:none;}
	.st2{display:inline;}
	.st3{fill:#141414;}
	.st4{fill:#FF0000;}
	.st5{display:inline;fill:none;}
	.st6{fill:#FFC007;}
	.st7{fill:#000B0B;}
	.st8{fill:#000004;}
	.st9{display:inline;fill:#242424;}
	.st10{display:inline;fill:#1C1C1C;}
	.st11{fill:#EBEBEB;}
	.st12{fill:#EDF4F4;}
	.st13{fill:#DBDBDB;}
	.st14{fill:#E3E3E3;}
	.st15{fill:#D6D6D6;}
	.st16{display:inline;fill:#0F0F0F;}
	.st17{fill:#E6E6E6;}
	.st18{fill:#E8E8E8;}
	.st19{fill:#F0F0F0;}
	.st20{fill:#E5E5E5;}
	.st21{fill:#FFC007;stroke:#000000;stroke-miterlimit:10;}
	.st22{display:inline;fill:#F5F5F5;stroke:#FFFFFF;stroke-miterlimit:10;}
	.st23{fill:#929493;}
	.st24{fill:#000005;}
	.st25{fill:#000003;stroke:#000000;stroke-width:2;stroke-miterlimit:10;}
	.st26{fill:#FFC007;stroke:#000003;stroke-width:2;stroke-miterlimit:10;}
	.st27{stroke:#000000;stroke-width:2;stroke-miterlimit:10;}
	.st28{fill:#FFC007;stroke:#000005;stroke-width:2;stroke-miterlimit:10;}
	.st29{fill:#0D0D0D;}
	.st30{fill:#1A1A1A;}
	.st31{font-family:'Raphtalia';}
	.st32{font-size:49.4869px;}
</style>
<sodipodi:namedview  bordercolor="#666666" borderopacity="1" gridtolerance="10" guidetolerance="10" id="namedview1479" inkscape:current-layer="svg1477" inkscape:cx="375" inkscape:cy="315.22751" inkscape:pageopacity="0" inkscape:pageshadow="2" inkscape:window-height="1017" inkscape:window-maximized="1" inkscape:window-width="1920" inkscape:window-x="1912" inkscape:window-y="-8" inkscape:zoom="1.3450603" objecttolerance="10" pagecolor="#ffffff" showgrid="false">
	</sodipodi:namedview>
<rect id="svgEditorBackground" x="0.2" y="0.2" class="st0" width="749.5" height="630.1"/>
<g id="Layer_1">
	<path id="path1156" d="M664.2,214c-6.7-16.7-20.5-20.9-21.8-22c-11.7-10.3-2.5-21.2-19.9-30.7c-18.3-9.9-71.9-37-114.2-31.4
		c-9.2,1.2-27.8,17.6-41.2,17.6c-21.9,0-92.1,0-92.1,0s-70.3,0-92.1,0c-13.4,0-32-16.4-41.2-17.6c-42.2-5.6-95.9,21.4-114.2,31.4
		c-17.5,9.5-8.2,20.3-19.9,30.7c-1.3,1.1-15.1,5.3-21.8,22C23.1,370-1.5,469,0.3,529c2.9,94.4,76.5,101.3,76.5,101.3
		c37-8.6,111.5-129.1,168.4-129.1c31.1,0,129.7,0,129.7,0s98.6,0,129.7,0c57,0,131.4,120.4,168.4,129.1c0,0,73.6-6.9,76.5-101.3
		C751.5,469,726.9,370,664.2,214z"/>
	<g id="g1164">
		<path id="path1158" class="st0" d="M106.4,192.7c0.5-0.3,0.9-0.5,1.2-0.6C107.2,192.3,106.8,192.5,106.4,192.7z"/>
		<path id="path1160" class="st0" d="M642.4,192c0.2,0.2,0.8,0.4,1.5,0.8C643.4,192.6,642.9,192.3,642.4,192z"/>
		<path id="path1162" d="M664.2,214c-3.3-8.3-8.4-13.5-12.9-16.8c-3-2.2-5.7-3.6-7.4-4.4c-0.8-0.4-1.3-0.6-1.5-0.8
			c-33.5-18-97.4-38.1-117.4-34.3c-26,5-65.5,79.7-88.9,79.7c-15.1,0-60.5,0-60.5,0s-45.4,0-60.5,0c-23.4,0-62.9-74.6-88.9-79.7
			c-19.6-3.8-85.5,16.4-118.7,34.3c-0.2,0.2-0.6,0.4-1.2,0.6c-1.8,0.8-5.1,2.4-8.7,5.3c-4.2,3.3-8.8,8.3-11.9,16
			C23.1,370-1.5,469,0.3,529c2.9,94.4,76.5,101.3,76.5,101.3c37-8.6,111.5-129.1,168.4-129.1c31.1,0,129.7,0,129.7,0s98.6,0,129.7,0
			c57,0,131.4,120.4,168.4,129.1c0,0,73.6-6.9,76.5-101.3C751.5,469,726.9,370,664.2,214L664.2,214z"/>
	</g>
	<line id="line1166" class="st0" x1="107.6" y1="192" x2="107.6" y2="193.6"/>
	<line id="line1168" class="st0" x1="642.4" y1="191.5" x2="642.4" y2="192.5"/>
	<g id="Dpad">
		<g id="g1176">
			<path id="path1170" d="M277.7,462c-33.4,0-60.6-27.2-60.6-60.6c0-33.4,27.2-60.6,60.6-60.6c33.4,0,60.6,27.2,60.6,60.6
				C338.3,434.8,311.1,462,277.7,462z"/>
			<g id="g1174">
				<path id="path1172" d="M277.7,341.8c32.9,0,59.6,26.7,59.6,59.6c0,32.9-26.7,59.6-59.6,59.6c-32.9,0-59.6-26.7-59.6-59.6
					C218.1,368.6,244.9,341.8,277.7,341.8 M277.7,339.8c-34,0-61.6,27.6-61.6,61.6c0,34,27.6,61.6,61.6,61.6
					c34,0,61.6-27.6,61.6-61.6C339.3,367.4,311.7,339.8,277.7,339.8L277.7,339.8z"/>
			</g>
		</g>
		<g id="g1186" class="st1">
			<g id="g1180" class="st2">
				<path id="path1178" class="st3" d="M291.3,353.5L291.3,353.5c0-5-27.1-5-27.1,0c0,23.8,0,95.9,0,95.9l0,0l0,0c0,5,27.1,5,27.1,0
					C291.3,425.6,291.3,353.5,291.3,353.5L291.3,353.5z"/>
			</g>
			<g id="g1184" class="st2">
				<path id="path1182" class="st3" d="M229.8,387.9L229.8,387.9c-5,0-5,27.1,0,27.1c23.9,0,95.9,0,95.9,0l0,0l0,0
					c5,0,5-27.1,0-27.1C301.8,387.9,229.8,387.9,229.8,387.9L229.8,387.9z"/>
			</g>
		</g>
		<g id="g1216" class="st1">
			<g id="g1190" class="st2">
				<path id="path1188" class="st4" d="M277.7,349.8c6.8,0,13.6,1.2,13.6,3.7v0h0c0,0,0,15.4,0,34.4c13.8,0,26.6,0,34.4,0
					c5,0,5,27.1,0,27.1l0,0l0,0c0,0-15.5,0-34.4,0c0,13.8,0,26.7,0,34.4c0,2.5-6.8,3.7-13.6,3.7c-6.8,0-13.6-1.2-13.6-3.7l0,0l0,0
					c0,0,0-15.4,0-34.4c-13.8,0-26.6,0-34.4,0c-5,0-5-27.1,0-27.1h0c0,0,15.4,0,34.4,0c0-13.8,0-26.7,0-34.4
					C264.2,351,270.9,349.8,277.7,349.8 M277.7,346.2c-3.8,0-7.5,0.4-10.2,1c-5.8,1.4-7,4.2-7,6.3v30.8h-30.8c-2.1,0-4.9,1.2-6.3,7
					c-0.7,2.7-1,6.4-1,10.2c0,3.8,0.4,7.4,1,10.2c1.4,5.8,4.2,7,6.3,7h30.8v30.8v0.8l0.1,0.2c0.4,1.9,2.1,4,6.9,5.2
					c2.7,0.7,6.3,1,10.2,1c3.8,0,7.4-0.4,10.2-1c5.8-1.4,7-4.2,7-6.3v-30.8h30.8h1.5l0.3-0.3c1.7-0.7,3.4-2.5,4.5-6.6
					c0.7-2.7,1-6.4,1-10.2c0-3.8-0.4-7.4-1-10.2c-1.4-5.8-4.2-7-6.3-7h-30.8v-30.8c0-2.1-1.2-4.9-7-6.3
					C285.2,346.5,281.5,346.2,277.7,346.2L277.7,346.2z"/>
			</g>
			<line id="line1192" class="st5" x1="287.7" y1="357.1" x2="294.9" y2="349.9"/>
			<line id="line1194" class="st5" x1="267.8" y1="356.1" x2="261" y2="349.3"/>
			<line id="line1196" class="st5" x1="322.3" y1="391.2" x2="329" y2="384.5"/>
			<line id="line1198" class="st5" x1="322.8" y1="412.1" x2="328.5" y2="417.8"/>
			<line id="line1200" class="st5" x1="286.7" y1="392.4" x2="295.8" y2="383.3"/>
			<line id="line1202" class="st5" x1="286.2" y1="409.9" x2="296.4" y2="420.1"/>
			<line id="line1204" class="st5" x1="287.6" y1="445.7" x2="295" y2="453.1"/>
			<line id="line1206" class="st5" x1="268.6" y1="445" x2="259.8" y2="453.8"/>
			<line id="line1208" class="st5" x1="269.6" y1="409.5" x2="258.7" y2="420.5"/>
			<line id="line1210" class="st5" x1="270.4" y1="394.1" x2="258" y2="381.7"/>
			<line id="line1212" class="st5" x1="233.8" y1="410.9" x2="225.7" y2="419.1"/>
			<line id="line1214" class="st5" x1="233.5" y1="391.6" x2="226.1" y2="384.2"/>
		</g>
		<g id="g1248">
			<g id="g1222">
				<path id="path1218" class="st6" d="M277.7,452.6c-7.1,0-12.7-1.3-13-3.1c0,0,0-0.1,0-0.1c0-0.1,0-15.5,0-34.4
					c0-0.3-0.2-0.5-0.5-0.5h-34.4c-1.8,0-3.2-5.7-3.2-13s1.4-13,3.2-13h34.4c0.3,0,0.5-0.2,0.5-0.5v-34.4c0,0,0-0.1,0-0.1l0.1-0.2
					c0,0,0.1-0.1,0.1-0.1c0.5-0.8,2.1-1.5,4.5-2c0.3-0.1,0.6-0.1,0.9-0.2c0.4-0.1,0.7-0.1,1-0.1c0,0,0.1,0,0.2,0
					c0.3,0,0.6-0.1,0.9-0.1c0.3,0,0.7-0.1,1-0.1c0.4,0,0.7-0.1,1-0.1l2.4-0.1c0.4,0,0.7,0,1,0c7.3,0,13.1,1.4,13.1,3.2
					c0,0.2,0,16,0,34.4c0,0.3,0.2,0.5,0.5,0.5h34.4c1.8,0,3.2,5.7,3.2,13s-1.4,13-3.2,13h-34.4c-0.3,0-0.5,0.2-0.5,0.5v34.4
					c0,0,0,0.1,0,0.2C290.5,451.3,284.9,452.6,277.7,452.6z"/>
				<path id="path1220" class="st7" d="M277.7,350.8c8.1,0,12.6,1.6,12.6,2.7c0,0,0,0,0,0v34.4c0,0.6,0.4,1,1,1h34.4
					c1.1,0,2.7,4.8,2.7,12.5c0,7.8-1.6,12.5-2.7,12.5h-34.4c-0.6,0-1,0.4-1,1v34.4c0,0,0,0,0,0.1c-0.2,1.1-4.7,2.7-12.6,2.7
					c-7.9,0-12.4-1.5-12.5-2.7c0,0,0-0.1,0-0.1V415c0-0.6-0.4-1-1-1h-34.4c-1.1,0-2.7-4.8-2.7-12.5s1.6-12.6,2.7-12.6h34.4
					c0.6,0,1-0.4,1-1v-34.4c0,0,0,0,0,0l0,0c0,0,0,0,0,0l0,0c0,0,0-0.1,0-0.1c0,0,0,0,0-0.1c0.2-0.2,0.9-1.1,4.2-1.8c0,0,0,0,0.1,0
					c0.3-0.1,0.6-0.1,0.8-0.2l0.1,0c0.3-0.1,0.6-0.1,0.8-0.1c0,0,0.1,0,0.2,0c0.3,0,0.6-0.1,0.9-0.1c0,0,0,0,0,0
					c0.3,0,0.7-0.1,1-0.1l0,0c0,0,0,0,0,0c0.3,0,0.6-0.1,1-0.1l0.1,0c0.2,0,0.4,0,0.6,0l0.4,0c0.1,0,0.1,0,0.2,0c0.3,0,0.7,0,1,0
					l0.1,0C277,350.8,277.4,350.8,277.7,350.8 M277.7,349.8c-0.3,0-0.7,0-1.1,0c0,0-0.1,0-0.1,0c-0.3,0-0.7,0-1,0
					c-0.1,0-0.1,0-0.2,0c-0.3,0-0.7,0-1,0c0,0-0.1,0-0.1,0c-0.3,0-0.7,0-1,0.1c0,0,0,0,0,0c-0.3,0-0.7,0.1-1,0.1h0
					c-0.3,0-0.7,0.1-1,0.1c0,0,0,0-0.1,0c-0.3,0-0.6,0.1-0.9,0.1c0,0,0,0-0.1,0c-0.3,0.1-0.6,0.1-0.9,0.2c0,0,0,0,0,0
					c-2.4,0.5-4.2,1.2-4.9,2.2c0,0-0.1,0.1-0.1,0.2c0,0,0,0,0,0c0,0.1,0,0.1,0,0.2c0,0,0,0,0,0c0,0,0,0.1,0,0.1c0,0.1,0,0.1,0,0.2
					c0,7.7,0,20.6,0,34.4c-19,0-34.4,0-34.4,0h0c-5,0-5,27.1,0,27.1c7.8,0,20.6,0,34.4,0c0,19,0,34.4,0,34.4l0,0c0,0.1,0,0.2,0,0.2
					c0.4,2.3,7,3.5,13.5,3.5c6.6,0,13.1-1.2,13.5-3.5c0-0.1,0-0.2,0-0.2c0-7.7,0-20.6,0-34.4c18.9,0,34.4,0,34.4,0l0,0
					c5,0,5-27.1,0-27.1c-7.8,0-20.6,0-34.4,0c0-19,0-34.4,0-34.4h0v0C291.3,351,284.5,349.8,277.7,349.8L277.7,349.8z"/>
			</g>
			<path id="path1224" d="M264.2,387.9l-3.6-3.6h-30.8c-0.9,0-1.8,0.2-2.8,0.8l2.8,2.8C229.8,387.9,245.2,387.9,264.2,387.9z"/>
			<path id="path1226" d="M229.8,387.9L229.8,387.9l-2.8-2.8c-1.4,0.9-2.7,2.7-3.5,6.1c-0.7,2.7-1,6.4-1,10.2c0,3.8,0.4,7.4,1,10.2
				c0.8,3.4,2.2,5.2,3.5,6.1l2.8-2.8C224.8,415,224.8,387.9,229.8,387.9z"/>
			<path id="path1228" d="M269.3,350.5C269.3,350.5,269.3,350.5,269.3,350.5c0.3-0.1,0.6-0.1,0.9-0.2c0,0,0,0,0.1,0
				c0.3-0.1,0.6-0.1,0.9-0.1c0,0,0,0,0.1,0c0.3,0,0.7-0.1,1-0.1h0c0.3,0,0.7-0.1,1-0.1c0,0,0,0,0,0c0.3,0,0.7-0.1,1-0.1
				c0,0,0.1,0,0.1,0c0.3,0,0.6,0,1,0c0.1,0,0.1,0,0.2,0c0.3,0,0.7,0,1,0c0,0,0.1,0,0.1,0c0.3,0,0.7,0,1.1,0c6.8,0,13.6,1.2,13.6,3.7
				l2.8-2.8c-0.9-1.4-2.7-2.7-6.1-3.5c-2.7-0.7-6.4-1-10.2-1c-3.8,0-7.5,0.4-10.2,1c-2.9,0.7-4.7,1.8-5.7,3l2.6,2.6
				C265,351.7,266.8,351,269.3,350.5z"/>
			<path id="path1230" d="M325.7,387.9l2.8-2.8c-0.9-0.6-1.9-0.8-2.8-0.8h-30.8l-3.6,3.6C305.1,387.9,317.9,387.9,325.7,387.9z"/>
			<path id="path1232" d="M291.3,353.5L291.3,353.5c0,0,0,15.4,0,34.4l3.6-3.6l0,0v-30.8c0-0.9-0.2-1.8-0.8-2.8L291.3,353.5
				L291.3,353.5z"/>
			<path id="path1234" d="M264.2,353.5c0-0.1,0-0.1,0-0.2c0,0,0-0.1,0-0.1c0,0,0,0,0,0c0-0.1,0-0.1,0-0.2c0,0,0,0,0,0
				c0-0.1,0.1-0.1,0.1-0.2l-2.6-2.6c-1,1.1-1.3,2.3-1.3,3.3v30.8l3.6,3.6C264.2,374.1,264.2,361.2,264.2,353.5z"/>
			<path id="path1236" d="M325.7,415L325.7,415c0,0-15.5,0-34.4,0l3.6,3.6h30.8h1.5l0.3-0.3c0.3-0.1,0.6-0.3,0.9-0.5L325.7,415
				L325.7,415z"/>
			<path id="path1238" d="M291.3,449.4l2.8,2.8c0.6-0.9,0.8-1.9,0.8-2.8v-30.8l-3.6-3.6C291.3,428.8,291.3,441.7,291.3,449.4z"/>
			<path id="path1240" class="st8" d="M332,391.3c-0.8-3.4-2.2-5.2-3.6-6.1l-2.8,2.8c5,0,5,27.1,0,27.1l2.8,2.8
				c1.4-0.9,2.7-2.7,3.5-6.1c0.7-2.7,1-6.4,1-10.2C333,397.6,332.7,394,332,391.3z"/>
			<path id="path1242" d="M291.3,449.6c-0.4,2.3-7,3.5-13.5,3.5s-13.1-1.2-13.5-3.5c0-0.1,0-0.2,0-0.2l-2.8,2.8
				c0.9,1.4,2.7,2.7,6.2,3.5c2.7,0.7,6.3,1,10.2,1c3.8,0,7.4-0.4,10.2-1c3.4-0.8,5.2-2.2,6.1-3.5l-2.8-2.8
				C291.3,449.5,291.3,449.5,291.3,449.6z"/>
			<path id="path1244" d="M264.2,449.4L264.2,449.4c0,0,0-15.4,0-34.4l-3.6,3.6v30.8v0.8l0.1,0.2c0.1,0.5,0.3,1.1,0.7,1.7
				L264.2,449.4L264.2,449.4z"/>
			<path id="path1246" d="M229.8,415l-2.8,2.8c1,0.6,1.9,0.8,2.8,0.8h30.8l3.6-3.6C250.4,415,237.5,415,229.8,415z"/>
		</g>
		<g id="g1308" class="st1">
			<path id="polygon1250" class="st9" d="M264.2,387.9l-3.6-3.6L264.2,387.9z"/>
			<polygon id="polygon1252" class="st10" points="291.3,387.9 294.9,384.3 294.9,384.3 294.9,384.3 			"/>
			<g id="Up" class="st2">
				<g id="g1258">
					<path id="path1254" class="st11" d="M264.7,387.7v-34.2c0,0,0-0.1,0-0.1l0.1-0.2c0,0,0.1-0.1,0.1-0.1c0.5-0.8,2.1-1.5,4.5-2
						c0.3-0.1,0.6-0.1,0.9-0.2c0.4-0.1,0.7-0.1,1-0.1c0,0,0.1,0,0.2,0c0.3,0,0.6-0.1,0.9-0.1c0.3,0,0.7-0.1,1-0.1
						c0.4,0,0.7-0.1,1-0.1l2.4-0.1c0.4,0,0.7,0,1,0c7.3,0,13.1,1.4,13.1,3.2c0,0.2,0,15.9,0,34.2l-13.1,13L264.7,387.7z"/>
					<path id="path1256" class="st12" d="M277.7,350.8c8.1,0,12.6,1.6,12.6,2.7c0,0,0,0,0,0v33.9L277.7,400l-12.6-12.5v-34
						c0,0,0,0,0,0l0,0c0,0,0,0,0,0l0,0c0,0,0-0.1,0-0.1c0,0,0,0,0-0.1c0.2-0.2,0.9-1.1,4.2-1.8c0,0,0,0,0.1,0
						c0.3-0.1,0.6-0.1,0.8-0.2l0.1,0c0.3-0.1,0.6-0.1,0.8-0.1c0,0,0.1,0,0.2,0c0.3,0,0.6-0.1,0.9-0.1c0,0,0,0,0,0
						c0.3,0,0.7-0.1,1-0.1l0,0c0,0,0,0,0,0c0.3,0,0.6-0.1,1-0.1l0.1,0c0.2,0,0.4,0,0.6,0l0.4,0c0.1,0,0.1,0,0.2,0c0.3,0,0.7,0,1,0
						l0.1,0C277,350.8,277.4,350.8,277.7,350.8 M277.7,349.8c-0.3,0-0.7,0-1.1,0c0,0-0.1,0-0.1,0c-0.3,0-0.7,0-1,0
						c-0.1,0-0.1,0-0.2,0c-0.3,0-0.7,0-1,0c0,0-0.1,0-0.1,0c-0.3,0-0.7,0-1,0.1c0,0,0,0,0,0c-0.3,0-0.7,0.1-1,0.1h0
						c-0.3,0-0.7,0.1-1,0.1c0,0,0,0-0.1,0c-0.3,0-0.6,0.1-0.9,0.1c0,0,0,0-0.1,0c-0.3,0.1-0.6,0.1-0.9,0.2c0,0,0,0,0,0
						c-2.4,0.5-4.2,1.2-4.9,2.2c0,0-0.1,0.1-0.1,0.2c0,0,0,0,0,0c0,0.1,0,0.1,0,0.2c0,0,0,0,0,0c0,0,0,0.1,0,0.1c0,0.1,0,0.1,0,0.2
						c0,7.7,0,20.6,0,34.4l13.6,13.5l13.6-13.5c0-19,0-34.4,0-34.4h0v0C291.3,351,284.5,349.8,277.7,349.8L277.7,349.8z"/>
				</g>
				<path id="path1260" class="st13" d="M269.3,350.5C269.3,350.5,269.3,350.5,269.3,350.5c0.3-0.1,0.6-0.1,0.9-0.2c0,0,0,0,0.1,0
					c0.3-0.1,0.6-0.1,0.9-0.1c0,0,0,0,0.1,0c0.3,0,0.7-0.1,1-0.1h0c0.3,0,0.7-0.1,1-0.1c0,0,0,0,0,0c0.3,0,0.7-0.1,1-0.1
					c0,0,0.1,0,0.1,0c0.3,0,0.6,0,1,0c0.1,0,0.1,0,0.2,0c0.3,0,0.7,0,1,0c0,0,0.1,0,0.1,0c0.3,0,0.7,0,1.1,0
					c6.8,0,13.6,1.2,13.6,3.7l2.8-2.8c-0.9-1.4-2.7-2.7-6.1-3.5c-2.7-0.7-6.4-1-10.2-1c-3.8,0-7.5,0.4-10.2,1
					c-2.9,0.7-4.7,1.8-5.7,3l2.6,2.6C265,351.7,266.8,351,269.3,350.5z"/>
				<path id="path1262" class="st14" d="M291.3,353.5L291.3,353.5c0,0,0,15.4,0,34.4l3.6-3.6v-30.8c0-0.9-0.2-1.8-0.8-2.8
					L291.3,353.5L291.3,353.5z"/>
				<path id="path1264" class="st15" d="M264.2,353.5c0-0.1,0-0.1,0-0.2c0,0,0-0.1,0-0.1c0,0,0,0,0,0c0-0.1,0-0.1,0-0.2c0,0,0,0,0,0
					c0-0.1,0.1-0.1,0.1-0.2l-2.6-2.6c-1,1.1-1.3,2.3-1.3,3.3v30.8l3.6,3.6C264.2,374.1,264.2,361.2,264.2,353.5z"/>
			</g>
			<polygon id="rect1267" class="st16" points="294.9,418.6 291.3,415 291.3,415 			"/>
			<g id="Right" class="st2">
				<g id="g1273">
					<path id="path1269" class="st11" d="M291.5,414.5l-13.1-13.1l13.1-13h34.2c1.8,0,3.2,5.7,3.2,13s-1.4,13-3.2,13H291.5z"/>
					<path id="path1271" class="st12" d="M325.7,388.9c1.1,0,2.7,4.8,2.7,12.5c0,7.8-1.6,12.5-2.7,12.5h-34l-12.6-12.6l12.6-12.5
						H325.7 M325.7,387.9c-7.8,0-20.6,0-34.4,0l-13.6,13.5l13.6,13.6c18.9,0,34.4,0,34.4,0l0,0C330.6,415,330.6,387.9,325.7,387.9
						L325.7,387.9z"/>
				</g>
				<path id="path1275" class="st17" d="M325.7,387.9l2.8-2.8c-0.9-0.6-1.9-0.8-2.8-0.8h-30.8l-3.6,3.6
					C305.1,387.9,317.9,387.9,325.7,387.9z"/>
				<path id="path1277" class="st18" d="M325.7,415L325.7,415c0,0-15.5,0-34.4,0l3.6,3.6h30.8h1.5l0.3-0.3c0.3-0.1,0.6-0.3,0.9-0.5
					L325.7,415L325.7,415z"/>
				<path id="path1279" class="st19" d="M328.4,385.1l-2.8,2.8c5,0,5,27.1,0,27.1l2.8,2.8c1.4-0.9,2.7-2.7,3.5-6.1
					c0.7-2.7,1-6.4,1-10.2c0-3.8-0.4-7.4-1-10.2C331.1,387.9,329.8,386,328.4,385.1z"/>
			</g>
			<g id="Down" class="st2">
				<g id="g1286">
					<path id="path1282" class="st11" d="M277.7,452.6c-7.1,0-12.7-1.3-13-3.1c0,0,0-0.1,0-0.1c0-0.1,0-15.4,0-34.2l13.1-13.1
						l13.1,13.1v34.2c0,0,0,0.1,0,0.2C290.5,451.3,284.9,452.6,277.7,452.6z"/>
					<path id="path1284" class="st12" d="M277.7,402.8l12.6,12.6v34c0,0,0,0,0,0.1c-0.2,1.1-4.7,2.7-12.6,2.7
						c-7.9,0-12.4-1.5-12.5-2.7c0,0,0-0.1,0-0.1v-34L277.7,402.8 M277.7,401.4L264.2,415c0,19,0,34.4,0,34.4l0,0c0,0.1,0,0.2,0,0.2
						c0.4,2.3,7,3.5,13.5,3.5c6.6,0,13.1-1.2,13.5-3.5c0-0.1,0-0.2,0-0.2c0-7.7,0-20.6,0-34.4L277.7,401.4L277.7,401.4z"/>
				</g>
				<path id="path1288" class="st19" d="M291.3,449.4l2.8,2.8c0.6-0.9,0.8-1.9,0.8-2.8v-30.8l-3.6-3.6
					C291.3,428.8,291.3,441.7,291.3,449.4z"/>
				<path id="path1290" class="st18" d="M291.3,449.6c-0.4,2.3-7,3.5-13.5,3.5s-13.1-1.2-13.5-3.5c0-0.1,0-0.2,0-0.2l-2.8,2.8
					c0.9,1.4,2.7,2.7,6.2,3.5c2.7,0.7,6.3,1,10.2,1c3.8,0,7.4-0.4,10.2-1c3.4-0.8,5.2-2.2,6.1-3.5l-2.8-2.8
					C291.3,449.5,291.3,449.5,291.3,449.6z"/>
				<path id="path1292" class="st14" d="M264.2,449.4L264.2,449.4c0,0,0-15.4,0-34.4l-3.6,3.6v30.8v0.8l0.1,0.2
					c0.1,0.5,0.3,1.1,0.7,1.7L264.2,449.4L264.2,449.4z"/>
			</g>
			<g id="left" class="st2">
				<g id="g1299">
					<path id="path1295" class="st11" d="M229.8,414.5c-1.8,0-3.2-5.7-3.2-13s1.4-13,3.2-13H264l13.1,13L264,414.5H229.8z"/>
					<path id="path1297" class="st12" d="M263.8,388.9l12.6,12.5L263.8,414h-34c-1.1,0-2.7-4.8-2.7-12.5s1.6-12.6,2.7-12.6
						L263.8,388.9 M264.2,387.9c-19,0-34.4,0-34.4,0h0c-5,0-5,27.1,0,27.1c7.8,0,20.6,0,34.4,0l13.6-13.6L264.2,387.9L264.2,387.9z"
						/>
				</g>
				<path id="path1301" class="st13" d="M264.2,387.9l-3.6-3.6h-30.8c-0.9,0-1.8,0.2-2.8,0.8l2.8,2.8
					C229.8,387.9,245.2,387.9,264.2,387.9z"/>
				<path id="path1303" class="st15" d="M229.8,387.9L229.8,387.9l-2.8-2.8c-1.4,0.9-2.7,2.7-3.5,6.1c-0.7,2.7-1,6.4-1,10.2
					c0,3.8,0.4,7.4,1,10.2c0.8,3.4,2.2,5.2,3.5,6.1l2.8-2.8C224.8,415,224.8,387.9,229.8,387.9z"/>
				<path id="path1305" class="st20" d="M229.8,415l-2.8,2.8c1,0.6,1.9,0.8,2.8,0.8h30.8l3.6-3.6C250.4,415,237.5,415,229.8,415z"/>
			</g>
		</g>
	</g>
	<g id="Menu_Key">
		<g id="g1313">
			<path id="path1311" d="M448.9,280.4c0,10.4-8.4,18.8-18.8,18.8c-10.4,0-18.8-8.4-18.8-18.8c0-10.4,8.4-18.8,18.8-18.8
				C440.5,261.6,448.9,270,448.9,280.4z"/>
		</g>
		<g id="g1325">
			<path id="path1315" class="st21" d="M446.2,280.4c0,8.9-7.2,16.1-16.1,16.1c-8.9,0-16.1-7.2-16.1-16.1c0-8.9,7.2-16.1,16.1-16.1
				C439,264.3,446.2,271.5,446.2,280.4z"/>
			<g id="g1323">
				<rect id="rect1317" x="422.9" y="275.8" width="14.4" height="1.6"/>
				<rect id="rect1319" x="422.9" y="279.7" width="14.4" height="1.6"/>
				<rect id="rect1321" x="422.9" y="283.5" width="14.4" height="1.5"/>
			</g>
		</g>
		<g id="Menu_Pressed" class="st1">
			<path id="path1327" class="st22" d="M446.2,280.4c0,8.9-7.2,16.1-16.1,16.1c-8.9,0-16.1-7.2-16.1-16.1c0-8.9,7.2-16.1,16.1-16.1
				C439,264.3,446.2,271.5,446.2,280.4z"/>
			<g id="g1335" class="st2">
				<rect id="rect1329" x="422.9" y="275.8" class="st23" width="14.4" height="1.6"/>
				<rect id="rect1331" x="422.9" y="279.7" class="st23" width="14.4" height="1.6"/>
				<rect id="rect1333" x="422.9" y="283.5" class="st23" width="14.4" height="1.5"/>
			</g>
		</g>
	</g>
	<g id="Switcher_Key">
		<g id="g1341">
			<path id="path1339" class="st24" d="M341,280.4c0,10.4-8.4,18.8-18.8,18.8c-10.4,0-18.8-8.4-18.8-18.8c0-10.4,8.4-18.8,18.8-18.8
				C332.5,261.6,341,270,341,280.4z"/>
		</g>
		<g id="g1351">
			<path id="path1343" class="st21" d="M338.2,280.4c0,8.9-7.2,16.1-16.1,16.1c-8.9,0-16.1-7.2-16.1-16.1c0-8.9,7.2-16.1,16.1-16.1
				C331,264.3,338.2,271.5,338.2,280.4z"/>
			<g id="g1349">
				<polygon id="polygon1345" class="st24" points="319.6,280.3 316.6,280.3 316.6,276.5 322.1,276.5 322.1,277.8 323.9,277.8 
					323.9,274.8 315,274.8 315,282.2 319.6,282.2 				"/>
				<path id="path1347" d="M320.4,278.4v7.6h9v-7.6H320.4z M327.5,284.2h-5.5v-3.9h5.5V284.2z"/>
			</g>
		</g>
	</g>
	<g id="Left_Stick">
		<g id="g1356">
			<path id="path1354" class="st25" d="M185.6,351.5c-37.3,0-67.7-30.3-67.7-67.6s30.3-67.6,67.7-67.6c37.3,0,67.7,30.3,67.7,67.6
				S222.9,351.5,185.6,351.5z"/>
		</g>
		<path id="path1358" class="st26" d="M241.7,279.9c0,31-25.1,56-56.1,56c-31,0-56.1-25.1-56.1-56c0-31,25.1-56.1,56.1-56.1
			C216.6,223.8,241.7,248.9,241.7,279.9z"/>
	</g>
	<g id="Right_Stick">
		<g id="g1363">
			<path id="path1361" class="st27" d="M473,465.4c-37.3,0-67.6-30.3-67.6-67.6c0-37.3,30.3-67.7,67.6-67.7
				c37.3,0,67.7,30.4,67.7,67.7C540.6,435,510.3,465.4,473,465.4z"/>
		</g>
		<path id="path1365" class="st28" d="M529.1,393.8c0,31-25.1,56.1-56.1,56.1c-31,0-56-25.1-56-56.1c0-31,25.1-56.1,56-56.1
			C504,337.7,529.1,362.8,529.1,393.8z"/>
	</g>
	<g id="Button_Base">
		<g id="A">
			<path id="path1368" class="st6" d="M566.6,355.2c-13.9,0-25.2-11.3-25.2-25.2c0-13.9,11.3-25.2,25.2-25.2
				c13.9,0,25.2,11.3,25.2,25.2C591.8,343.9,580.5,355.2,566.6,355.2z"/>
			<path id="path1370" d="M566.6,306.4c13.1,0,23.7,10.6,23.7,23.7c0,13.1-10.6,23.7-23.7,23.7c-13.1,0-23.7-10.6-23.7-23.7
				C543,317,553.6,306.4,566.6,306.4 M566.6,303.4c-14.7,0-26.7,12-26.7,26.7c0,14.7,12,26.7,26.7,26.7c14.7,0,26.7-12,26.7-26.7
				C593.3,315.4,581.4,303.4,566.6,303.4L566.6,303.4z"/>
		</g>
		<g id="Y">
			<path id="path1373" class="st6" d="M566.6,254.2c-13.9,0-25.2-11.3-25.2-25.2c0-13.9,11.3-25.2,25.2-25.2
				c13.9,0,25.2,11.3,25.2,25.2C591.8,242.9,580.5,254.2,566.6,254.2z"/>
			<path id="path1375" d="M566.6,205.4c13.1,0,23.7,10.6,23.7,23.7c0,13.1-10.6,23.7-23.7,23.7c-13.1,0-23.7-10.6-23.7-23.7
				C543,216,553.6,205.4,566.6,205.4 M566.6,202.4c-14.7,0-26.7,12-26.7,26.7c0,14.7,12,26.7,26.7,26.7c14.7,0,26.7-12,26.7-26.7
				C593.3,214.3,581.4,202.4,566.6,202.4L566.6,202.4z"/>
		</g>
		<g id="B">
			<path id="path1378" class="st6" d="M617.2,304.7c-13.9,0-25.2-11.3-25.2-25.2c0-13.9,11.3-25.2,25.2-25.2
				c13.9,0,25.2,11.3,25.2,25.2C642.3,293.4,631,304.7,617.2,304.7z"/>
			<path id="path1380" d="M617.2,255.9c13.1,0,23.7,10.6,23.7,23.7c0,13.1-10.6,23.7-23.7,23.7c-13.1,0-23.7-10.6-23.7-23.7
				C593.5,266.5,604.1,255.9,617.2,255.9 M617.2,252.9c-14.7,0-26.7,12-26.7,26.7c0,14.7,12,26.7,26.7,26.7
				c14.7,0,26.7-12,26.7-26.7C643.8,264.8,631.9,252.9,617.2,252.9L617.2,252.9z"/>
		</g>
		<g id="X">
			<path id="path1383" class="st6" d="M516.1,304.7c-13.9,0-25.2-11.3-25.2-25.2c0-13.9,11.3-25.2,25.2-25.2
				c13.9,0,25.2,11.3,25.2,25.2C541.3,293.4,530,304.7,516.1,304.7z"/>
			<path id="path1385" d="M516.1,255.9c13.1,0,23.7,10.6,23.7,23.7c0,13.1-10.6,23.7-23.7,23.7c-13.1,0-23.7-10.6-23.7-23.7
				C492.5,266.5,503.1,255.9,516.1,255.9 M516.1,252.9c-14.7,0-26.7,12-26.7,26.7c0,14.7,12,26.7,26.7,26.7
				c14.7,0,26.7-12,26.7-26.7C542.8,264.8,530.8,252.9,516.1,252.9L516.1,252.9z"/>
		</g>
	</g>
	<g id="g1417">
		<g id="g1393">
			<path id="path1389" d="M375.6,156.6c0,0-88.9-1.1-100.5-3l-16.4,30.5c20.2,23.3,41.6,53.3,56.4,53.3c15.1,0,60.5,0,60.5,0
				s45.4,0,60.5,0c14.9,0,36.2-30,56.4-53.3l-16.4-30.5C464.5,155.5,375.6,156.6,375.6,156.6z"/>
			<path id="path1391" class="st29" d="M476.1,153.6l-3.6-6.8c-1.9,0.5-3.7,0.7-5.4,0.7c-21.9,0-92.1,0-92.1,0s-70.3,0-92.1,0
				c-1.4,0-2.8-0.2-4.3-0.5l-3.5,6.5c11.6,1.9,100.5,3,100.5,3S464.5,155.5,476.1,153.6z"/>
		</g>
		<g id="RB_1_">
			<path id="path1395" class="st8" d="M642.4,192c-9-7.9-5.6-16.2-11.5-23.8c0.2,0.3,0.5,0.7,0.7,1c0,0-96.5-42-120.7-34.5
				c-15.6,4.9-27.2,15.3-32.8,18.2l15.9,29.6c11.2-12.7,21.9-23,31-24.7C545,153.9,608.9,174,642.4,192
				C642.4,192,642.4,192,642.4,192z"/>
			<path id="path1397" class="st29" d="M510.9,134.7c24.3-7.6,120.7,34.4,120.7,34.5c-0.2-0.3-0.5-0.7-0.7-1c0,0-0.1-0.1-0.1-0.1
				c-0.1-0.1-0.2-0.2-0.3-0.4c0-0.1-0.1-0.1-0.1-0.2c-0.1-0.1-0.2-0.2-0.3-0.3c-0.1-0.1-0.1-0.1-0.2-0.2c-0.1-0.1-0.2-0.2-0.3-0.3
				c-0.1-0.1-0.1-0.1-0.2-0.2c-0.1-0.1-0.2-0.2-0.3-0.3c-0.1-0.1-0.1-0.1-0.2-0.2c-0.1-0.1-0.2-0.2-0.3-0.3
				c-0.1-0.1-0.2-0.1-0.2-0.2c-0.1-0.1-0.2-0.2-0.3-0.3c-0.1-0.1-0.1-0.1-0.2-0.2c-0.1-0.1-0.2-0.2-0.3-0.3
				c-0.1-0.1-0.2-0.1-0.3-0.2c-0.1-0.1-0.2-0.2-0.3-0.3c-0.1-0.1-0.2-0.1-0.3-0.2c-0.1-0.1-0.2-0.2-0.4-0.3c-0.1,0-0.2-0.1-0.3-0.2
				c-0.1-0.1-0.3-0.2-0.4-0.3c-0.1-0.1-0.2-0.1-0.3-0.2c-0.1-0.1-0.3-0.2-0.4-0.3c-0.1-0.1-0.2-0.1-0.3-0.2
				c-0.2-0.1-0.3-0.2-0.5-0.3c-0.1-0.1-0.2-0.1-0.3-0.2c-0.2-0.1-0.4-0.2-0.5-0.3c-0.1-0.1-0.2-0.1-0.3-0.2
				c-0.3-0.2-0.6-0.3-0.8-0.5c-18.3-9.9-71.9-37-114.2-31.4c-7.6,1-21.6,12.3-33.8,16.3l3.6,6.7C483.7,150,495.3,139.6,510.9,134.7z
				"/>
		</g>
		<g id="LB_1_">
			<path id="path1400" class="st29" d="M241.7,130c-42.2-5.6-95.9,21.4-114.2,31.4c-0.3,0.2-0.6,0.3-0.8,0.5
				c-0.1,0.1-0.2,0.1-0.2,0.2c-0.2,0.1-0.4,0.2-0.5,0.3c-0.1,0.1-0.2,0.1-0.3,0.2c-0.1,0.1-0.3,0.2-0.5,0.3c-0.1,0-0.2,0.1-0.3,0.2
				c-0.1,0.1-0.3,0.2-0.4,0.3c-0.1,0.1-0.2,0.1-0.3,0.2c-0.1,0.1-0.3,0.2-0.4,0.3c-0.1,0.1-0.2,0.1-0.3,0.2
				c-0.1,0.1-0.3,0.2-0.4,0.3c-0.1,0.1-0.2,0.1-0.2,0.2c-0.1,0.1-0.2,0.2-0.4,0.3c-0.1,0.1-0.1,0.1-0.2,0.2
				c-0.1,0.1-0.2,0.2-0.3,0.3c-0.1,0.1-0.1,0.1-0.2,0.2c-0.1,0.1-0.2,0.2-0.3,0.3c-0.1,0.1-0.1,0.1-0.2,0.2
				c-0.1,0.1-0.2,0.2-0.3,0.3c-0.1,0-0.1,0.1-0.2,0.2c-0.1,0.1-0.2,0.2-0.3,0.3c0,0.1-0.1,0.1-0.1,0.2c-0.1,0.1-0.2,0.2-0.3,0.3
				c0,0-0.1,0.1-0.1,0.1c-0.1,0.1-0.2,0.3-0.3,0.4c0,0-0.1,0.1-0.1,0.1c-0.1,0.1-0.2,0.3-0.3,0.4c0,0,0,0.1-0.1,0.1
				c-0.1,0.1-0.2,0.3-0.3,0.4c0,0,0,0,0,0c-0.1,0.2-0.2,0.3-0.3,0.5c0,0,97.6-41.9,121.9-34.4c15.5,4.9,27.2,15.3,32.8,18.2l3.4-6.3
				C264.2,143,249.5,131,241.7,130z"/>
			<g id="g1408">
				<path id="path1402" class="st30" d="M273.6,153.2c0.2,0.1,0.3,0.1,0.5,0.2C273.9,153.3,273.8,153.3,273.6,153.2z"/>
				<path id="path1404" d="M273.2,152.9c-5.6-2.9-17.3-13.3-32.8-18.2c-24.2-7.5-121.2,34.1-121.9,34.4c-5,7.4-2.2,15.3-10.8,23
					c0,0,0,0-0.1,0c33.1-17.9,99.1-38.1,118.7-34.3c9.1,1.8,19.9,12.1,31.1,24.7L273.2,152.9C273.2,152.9,273.2,152.9,273.2,152.9z"
					/>
				<path id="path1406" d="M273.2,152.9c0.2,0.1,0.3,0.2,0.5,0.2C273.5,153.1,273.3,153,273.2,152.9z"/>
			</g>
			<path id="path1410" d="M258,183.3c0.2,0.3,0.5,0.6,0.7,0.8l16.4-30.5l3.5-6.5c-0.3-0.1-0.7-0.1-1-0.2c-0.3-0.1-0.7-0.2-1-0.3
				l-3.4,6.3l-15.8,29.6C257.5,182.8,257.8,183,258,183.3L258,183.3"/>
		</g>
		<path id="path1413" d="M478.1,152.9l-3.6-6.7c-0.3,0.1-0.7,0.2-1,0.3c-0.3,0.1-0.7,0.2-1,0.3l3.6,6.8l16.4,30.5
			c0.2-0.3,0.5-0.5,0.7-0.8c0.2-0.3,0.5-0.5,0.7-0.8L478.1,152.9z"/>
		<path id="polygon1415" class="st30" d="M357,169.4L357,169.4L357,169.4z"/>
	</g>
	<g id="g1429">
		<g id="g1425">
			<g id="g1423">
			</g>
		</g>
	</g>
	<g id="g1443">
		<g id="g1435">
			<path id="path1431" class="st30" d="M549,5.7c-0.4-0.3-0.8-0.6-1.2-0.9l-2.3,109.9l53.2,7.2C586.6,5.2,555.7,10.9,549,5.7z"/>
			<path id="path1433" class="st3" d="M522,0.3c-10.8,0.4-12.1,11.4-12.2,15.2v1.2c0,0,2.9,40.7,0,93c9.9,2.3,38.5,5.3,38.5,5.3
				s0-20.9,0.7-50.6c0.8-37.5-1.2-59.8-1.2-59.8C541.4,0.3,534.2-0.1,522,0.3z"/>
		</g>
		<g id="g1441">
			<path id="path1437" class="st30" d="M201.1,5.7c0.4-0.3,0.8-0.6,1.2-0.9l2.3,109.9l-53.2,7.2C163.5,5.2,194.4,10.9,201.1,5.7z"/>
			<path id="path1439" class="st3" d="M228.1,0.3c10.8,0.4,12.1,11.4,12.2,15.2v1.2c0,0-2.9,40.7,0,93c-9.9,2.3-38.5,5.3-38.5,5.3
				s-0.1-20.9-0.7-50.6c-0.8-37.5,1.2-59.8,1.2-59.8C208.7,0.3,215.9-0.1,228.1,0.3z"/>
		</g>
	</g>
</g>
<g>
	<g id="g1446">
	</g>
	<g id="g1448">
	</g>
	<g id="g1450">
	</g>
	<g id="g1452">
	</g>
	<g id="g1454">
	</g>
	<g id="g1456">
	</g>
	<g id="g1458">
	</g>
	<g id="g1460">
	</g>
	<g id="g1462">
	</g>
	<g id="g1464">
	</g>
	<g id="g1466">
	</g>
	<g id="g1468">
	</g>
	<g id="g1470">
	</g>
	<g id="g1472">
	</g>
	<g id="g1474">
	</g>
</g>
<text transform="matrix(1 0 0 1 309.3863 209.1635)" class="st6 st31 st32">AyyJayy</text>
</svg>
