<svg xmlns="http://www.w3.org/2000/svg" viewBox="0 0 169 84" width="169" height="84">
	<style>
		tspan { white-space:pre }
		.shp0 { fill: #1a1a1a } 
		.shp1 { fill: #404040 } 
		.shp2 { fill: #262626 } 
		.shp3 { fill: #ffffff } 
		.shp4 { fill: #212121 } 
		.shp5 { fill: #e5e5e5 } 
		.shp6 { fill: #bfbfbf } 
		.shp7 { fill: #d9d9d9 } 
		.shp8 { fill: #000000 } 
		.shp9 { fill: #d1d1d1 } 
	</style>
	<g id="g22">
		<g id="g6">
			<path id="path2" class="shp0" d="M0.23 41.7C0.23 64.72 18.89 83.38 41.93 83.38C64.95 83.38 83.61 64.72 83.61 41.7C83.61 18.66 64.95 0 41.93 0C18.9 0 0.23 18.66 0.23 41.7Z" />
			<path id="path4" class="shp1" d="M41.93 0C41.94 0 41.95 0 41.96 0C41.97 0 41.97 0 41.97 0C41.98 0 41.99 0 42 0C42 0 42 0 42.01 0C42.01 0 42.02 0 42.03 0C42.03 0 42.04 0 42.04 0C42.05 0 42.05 0 42.06 0C42.07 0 42.07 0 42.08 0C42.08 0 42.09 0 42.09 0C42.1 0 42.1 0 42.11 0C42.12 0 42.12 0 42.13 0C42.13 0 42.14 0 42.14 0C42.15 0 42.16 0 42.16 0C42.17 0 42.17 0 42.17 0C42.18 0 42.19 0 42.19 0C42.2 0 42.2 0 42.21 0C42.21 0 42.22 0 42.23 0C42.23 0 42.24 0 42.24 0C42.25 0 42.25 0 42.26 0C42.26 0 42.27 0 42.27 0C42.28 0 42.29 0 42.29 0C42.3 0 42.3 0 42.31 0C42.31 0 42.32 0 42.33 0C42.33 0 42.34 0 42.34 0C42.35 0 42.36 0 42.36 0C42.37 0 42.37 0 42.37 0C42.38 0 42.39 0 42.41 0C42.41 0 42.41 0 42.41 0C42.42 0 42.43 0 42.44 0C42.44 0 42.45 0 42.45 0C42.46 0 42.46 0 42.47 0C42.48 0 42.48 0 42.49 0C42.49 0 42.5 0 42.5 0C42.51 0 42.51 0 42.52 0C42.53 0 42.53 0 42.53 0C42.54 0 42.55 0 42.55 0C42.56 0 42.56 0 42.57 0C42.57 0 42.58 0 42.59 0C42.59 0 42.6 0 42.6 0C42.61 0 42.61 0 42.62 0C42.62 0 42.63 0 42.63 0C42.64 0 42.65 0 42.65 0C42.66 0 42.66 0 42.67 0C42.67 0 42.68 0 42.68 0C42.69 0 42.69 0 42.7 0C42.7 0 42.71 0 42.72 0C42.72 0 42.73 0 42.73 0C42.74 0 42.74 0 42.75 0C42.75 0 42.76 0 42.76 0C42.77 0 42.78 0 42.78 0C42.78 0 42.79 0 42.79 0C42.84 0 42.89 0 42.94 0C42.94 0 42.94 0 42.94 0C42.95 0 42.96 0 42.97 0C42.97 0 42.97 0 42.97 0C42.98 0 42.99 0 43 0C43 0 43 0 43 0C43.01 0 43.02 0 43.03 0.01C43.03 0.01 43.03 0.01 43.04 0.01C43.04 0.01 43.05 0.01 43.06 0.01C43.06 0.01 43.07 0.01 43.07 0.01C43.08 0.01 43.09 0.01 43.1 0.01L43.1 0.01C43.11 0.01 43.12 0.01 43.13 0.01L43.13 0.01C43.15 0.01 43.17 0.01 43.19 0.01L43.19 0.01C43.44 0.02 43.69 0.03 43.94 0.04L42.99 20.02C42.64 20 42.29 19.99 41.94 19.99L41.94 0L41.93 0L41.93 0ZM45.92 0.19C45.98 0.19 46.04 0.2 46.09 0.21L46.09 0.21C46.1 0.21 46.11 0.21 46.12 0.21C46.13 0.21 46.13 0.21 46.13 0.21C46.14 0.21 46.15 0.21 46.15 0.21C46.16 0.21 46.16 0.21 46.17 0.21C46.17 0.21 46.18 0.21 46.18 0.21C46.19 0.21 46.2 0.22 46.2 0.22C46.2 0.22 46.21 0.22 46.21 0.22C46.22 0.22 46.23 0.22 46.24 0.22L46.24 0.22C46.8 0.28 47.36 0.35 47.91 0.43L45.07 20.22C44.72 20.17 44.38 20.13 44.03 20.1L45.92 0.19L45.92 0.19ZM49.88 0.76C49.91 0.76 49.94 0.77 49.97 0.78C49.97 0.78 49.97 0.78 49.97 0.78C49.98 0.78 49.99 0.78 50 0.78C50 0.78 50 0.78 50.01 0.78C50.01 0.78 50.02 0.79 50.03 0.79C50.03 0.79 50.03 0.79 50.04 0.79C50.04 0.79 50.05 0.79 50.06 0.79C50.06 0.79 50.07 0.79 50.07 0.79C50.08 0.8 50.08 0.8 50.09 0.8C50.09 0.8 50.1 0.8 50.1 0.8C50.11 0.8 50.11 0.8 50.12 0.8C50.12 0.8 50.13 0.81 50.13 0.81C50.14 0.81 50.14 0.81 50.15 0.81C50.15 0.81 50.16 0.81 50.16 0.81C50.17 0.81 50.17 0.81 50.18 0.82C50.18 0.82 50.19 0.82 50.2 0.82C50.2 0.82 50.21 0.82 50.21 0.82C50.22 0.82 50.22 0.82 50.23 0.82C50.23 0.83 50.24 0.83 50.24 0.83C50.25 0.83 50.25 0.83 50.26 0.83C50.27 0.83 50.27 0.83 50.27 0.83C50.28 0.83 50.29 0.84 50.3 0.84C50.3 0.84 50.3 0.84 50.3 0.84C50.31 0.84 50.32 0.84 50.33 0.84C50.33 0.84 50.33 0.84 50.33 0.84C50.34 0.85 50.35 0.85 50.36 0.85C50.36 0.85 50.36 0.85 50.36 0.85C50.38 0.85 50.38 0.85 50.39 0.86L50.4 0.86C50.88 0.96 51.36 1.06 51.84 1.18L47.1 20.61C46.77 20.53 46.43 20.45 46.09 20.39L49.88 0.76L49.88 0.76ZM53.77 1.71C54.04 1.79 54.3 1.87 54.57 1.95L54.57 1.95C54.59 1.96 54.61 1.96 54.63 1.97L54.63 1.97C54.65 1.98 54.67 1.98 54.69 1.99C54.69 1.99 54.69 1.99 54.69 1.99C54.71 1.99 54.73 2 54.74 2.01C55.06 2.11 55.36 2.21 55.67 2.32L49.08 21.2C48.76 21.09 48.43 20.98 48.1 20.89L53.77 1.71L53.77 1.71ZM57.54 3.02C58.16 3.27 58.77 3.54 59.38 3.82L51 21.97C50.68 21.83 50.36 21.69 50.05 21.56L57.54 3.02L57.54 3.02ZM61.17 4.7C61.77 5.01 62.35 5.33 62.92 5.67L52.84 22.93C52.54 22.76 52.23 22.59 51.93 22.43L61.17 4.7L61.17 4.7ZM64.63 6.71C65.18 7.08 65.73 7.46 66.28 7.84L54.58 24.07C54.3 23.87 54.01 23.67 53.72 23.48L64.63 6.71L64.63 6.71ZM67.87 9.05C68.39 9.47 68.9 9.9 69.4 10.34L56.22 25.37C55.95 25.14 55.69 24.92 55.41 24.7L67.87 9.05L67.87 9.05ZM70.88 11.69C71.16 11.96 71.44 12.24 71.72 12.53C71.72 12.53 71.72 12.53 71.72 12.53C71.72 12.53 71.73 12.54 71.74 12.55C71.74 12.55 71.74 12.55 71.74 12.55C71.75 12.56 71.75 12.56 71.76 12.57C71.76 12.57 71.76 12.57 71.77 12.58C71.77 12.58 71.78 12.59 71.78 12.59C71.78 12.59 71.79 12.6 71.79 12.6C71.79 12.6 71.8 12.61 71.8 12.61C71.81 12.62 71.81 12.62 71.82 12.63C71.82 12.63 71.82 12.63 71.82 12.63C71.83 12.64 71.83 12.65 71.84 12.65C71.84 12.65 71.84 12.65 71.85 12.66C71.99 12.81 72.14 12.96 72.28 13.11L57.72 26.82C57.48 26.57 57.23 26.32 56.98 26.08L70.88 11.69L70.88 11.69ZM73.62 14.6C73.62 14.6 73.62 14.61 73.62 14.61C73.63 14.61 73.63 14.62 73.63 14.62C73.64 14.63 73.64 14.63 73.64 14.63C73.65 14.64 73.65 14.64 73.66 14.65C73.66 14.65 73.66 14.66 73.67 14.66C73.67 14.66 73.67 14.67 73.68 14.67C73.68 14.68 73.68 14.68 73.69 14.68C73.69 14.69 73.69 14.69 73.7 14.7C73.7 14.7 73.7 14.7 73.7 14.71C73.71 14.71 73.71 14.72 73.72 14.72C73.72 14.72 73.72 14.73 73.72 14.73C73.73 14.73 73.73 14.74 73.74 14.74C73.74 14.75 73.74 14.75 73.74 14.75C73.75 14.76 73.75 14.76 73.76 14.77L73.76 14.77C74.14 15.22 74.5 15.67 74.86 16.13C74.87 16.14 74.87 16.14 74.88 16.15L59.08 28.41C58.87 28.14 58.64 27.87 58.42 27.6L73.62 14.6L73.62 14.6ZM76.07 17.76C76.12 17.84 76.17 17.91 76.22 17.99C76.23 17.99 76.23 17.99 76.23 17.99C76.23 18 76.23 18 76.24 18.01C76.24 18.01 76.25 18.02 76.25 18.02C76.25 18.02 76.25 18.03 76.25 18.03C76.57 18.49 76.88 18.95 77.18 19.42L60.28 30.12C60.09 29.83 59.9 29.53 59.7 29.25L76.07 17.76L76.07 17.76ZM78.2 21.14C78.36 21.41 78.51 21.68 78.66 21.95C78.66 21.96 78.66 21.96 78.66 21.96C78.66 21.96 78.66 21.96 78.66 21.97C78.83 22.28 78.99 22.59 79.15 22.9L61.3 31.92C61.15 31.62 60.98 31.31 60.81 31.01L78.2 21.14L78.2 21.14ZM80.01 24.71C80.08 24.86 80.14 25.01 80.21 25.16L80.21 25.16C80.22 25.18 80.23 25.2 80.23 25.22L80.23 25.22C80.24 25.24 80.25 25.26 80.26 25.28L80.26 25.28C80.44 25.7 80.61 26.12 80.78 26.55L62.15 33.81C62.02 33.49 61.89 33.17 61.75 32.86L80.01 24.71L80.01 24.71ZM81.46 28.43C81.55 28.7 81.64 28.97 81.72 29.24C81.72 29.24 81.72 29.24 81.72 29.25C81.73 29.25 81.73 29.26 81.73 29.27C81.73 29.27 81.73 29.27 81.73 29.28C81.74 29.28 81.74 29.29 81.74 29.3C81.74 29.3 81.74 29.3 81.74 29.31C81.75 29.31 81.75 29.32 81.75 29.33C81.75 29.33 81.75 29.33 81.75 29.34C81.76 29.34 81.76 29.35 81.76 29.36C81.76 29.36 81.76 29.36 81.76 29.37C81.76 29.37 81.77 29.38 81.77 29.39C81.77 29.39 81.77 29.4 81.77 29.4C81.77 29.4 81.78 29.41 81.78 29.42C81.78 29.42 81.78 29.43 81.78 29.43C81.78 29.43 81.78 29.44 81.79 29.45C81.79 29.45 81.79 29.46 81.79 29.46C81.79 29.47 81.79 29.47 81.8 29.48C81.8 29.48 81.8 29.49 81.8 29.49C81.8 29.5 81.8 29.51 81.81 29.51C81.81 29.51 81.81 29.52 81.81 29.52C81.81 29.53 81.81 29.53 81.81 29.54C81.81 29.54 81.82 29.55 81.82 29.55C81.82 29.56 81.82 29.57 81.82 29.57C81.82 29.57 81.82 29.58 81.82 29.58C81.83 29.59 81.83 29.59 81.83 29.6C81.83 29.6 81.83 29.61 81.83 29.61C81.84 29.62 81.84 29.63 81.84 29.63C81.84 29.63 81.84 29.64 81.84 29.64C81.84 29.65 81.85 29.66 81.85 29.66C81.85 29.66 81.85 29.67 81.85 29.67C81.85 29.68 81.86 29.69 81.86 29.69C81.86 29.69 81.86 29.7 81.86 29.7C81.86 29.71 81.86 29.72 81.87 29.72C81.87 29.72 81.87 29.73 81.87 29.73C81.87 29.74 81.87 29.74 81.88 29.75C81.88 29.76 81.88 29.76 81.88 29.76C81.88 29.77 81.88 29.77 81.89 29.78C81.89 29.79 81.89 29.79 81.89 29.79C81.94 29.97 81.99 30.15 82.05 30.34L62.8 35.77C62.7 35.44 62.6 35.11 62.49 34.78L81.46 28.43L81.46 28.43ZM82.55 32.28C82.67 32.81 82.78 33.34 82.88 33.87C82.9 34 82.93 34.12 82.95 34.24L63.27 37.79C63.21 37.45 63.14 37.11 63.06 36.78L82.55 32.28L82.55 32.28ZM83.26 36.22C83.31 36.64 83.36 37.07 83.41 37.5C83.41 37.5 83.41 37.5 83.41 37.51C83.41 37.51 83.41 37.52 83.41 37.53C83.41 37.53 83.41 37.54 83.41 37.54C83.41 37.55 83.41 37.55 83.41 37.56C83.41 37.56 83.41 37.57 83.41 37.58C83.41 37.58 83.41 37.58 83.41 37.59C83.41 37.59 83.41 37.6 83.41 37.61L83.41 37.61C83.43 37.81 83.45 38.01 83.47 38.2L63.53 39.86C63.51 39.51 63.47 39.16 63.42 38.82L83.26 36.22L83.26 36.22ZM83.59 40.2C83.6 40.52 83.61 40.84 83.61 41.16C83.61 41.16 83.61 41.16 83.61 41.17C83.61 41.18 83.61 41.19 83.61 41.2C83.61 41.2 83.61 41.2 83.61 41.2C83.61 41.22 83.61 41.24 83.61 41.26C83.61 41.26 83.61 41.26 83.61 41.27C83.61 41.28 83.61 41.28 83.61 41.29C83.61 41.3 83.61 41.3 83.61 41.31C83.61 41.32 83.61 41.33 83.61 41.34C83.61 41.35 83.61 41.36 83.61 41.37C83.61 41.37 83.61 41.38 83.61 41.39C83.61 41.39 83.61 41.4 83.61 41.41C83.61 41.42 83.61 41.42 83.61 41.43C83.61 41.44 83.61 41.45 83.61 41.46C83.61 41.46 83.61 41.47 83.61 41.48C83.61 41.49 83.61 41.5 83.61 41.51C83.61 41.51 83.61 41.52 83.61 41.52C83.61 41.53 83.61 41.54 83.61 41.55C83.61 41.56 83.61 41.56 83.61 41.57C83.61 41.58 83.61 41.59 83.61 41.61C83.61 41.61 83.61 41.61 83.61 41.62C83.61 41.63 83.61 41.64 83.61 41.65C83.61 41.65 83.61 41.66 83.61 41.66C83.61 41.68 83.61 41.69 83.61 41.7L83.61 41.7L83.61 41.7C83.61 41.71 83.61 41.72 83.61 41.74C83.61 41.74 83.61 41.75 83.61 41.75C83.61 41.76 83.61 41.76 83.61 41.77C83.61 41.78 83.61 41.79 83.61 41.8L83.61 41.8C83.61 41.93 83.61 42.07 83.61 42.2L63.61 41.97L63.61 41.7C63.61 41.44 63.61 41.17 63.6 40.91L83.59 40.2L83.59 40.2ZM63.58 43.02L83.54 44.2C83.51 44.77 83.46 45.34 83.41 45.9C83.41 45.9 83.41 45.9 83.41 45.9C83.41 45.91 83.41 45.92 83.41 45.93C83.41 45.93 83.41 45.93 83.4 45.94C83.4 45.94 83.4 45.95 83.4 45.96C83.4 45.96 83.4 45.97 83.4 45.97C83.4 45.98 83.4 45.98 83.4 45.98C83.4 45.99 83.4 46 83.4 46.01C83.4 46.01 83.4 46.01 83.4 46.01C83.39 46.07 83.38 46.13 83.38 46.19L63.49 44.06C63.53 43.72 63.56 43.37 63.58 43.02L63.58 43.02ZM63.35 45.09L83.11 48.18C83.11 48.19 83.11 48.2 83.11 48.21C83.11 48.22 83.11 48.22 83.11 48.22C83.11 48.23 83.11 48.24 83.11 48.24C83.1 48.25 83.1 48.25 83.1 48.26C83.1 48.26 83.1 48.27 83.1 48.27C83.1 48.28 83.1 48.29 83.1 48.3C83.1 48.3 83.1 48.3 83.1 48.3C83.01 48.83 82.92 49.35 82.82 49.87C82.82 49.87 82.82 49.87 82.82 49.87C82.81 49.88 82.81 49.89 82.81 49.89C82.81 49.9 82.81 49.9 82.81 49.91C82.81 49.91 82.81 49.92 82.81 49.92C82.81 49.93 82.8 49.94 82.8 49.94C82.8 49.94 82.8 49.95 82.8 49.95C82.8 49.96 82.8 49.97 82.8 49.98C82.8 49.98 82.8 49.98 82.8 49.98C82.79 50.03 82.77 50.09 82.76 50.15L63.17 46.12C63.24 45.78 63.3 45.44 63.35 45.09L63.35 45.09ZM62.94 47.12L82.31 52.09C82.14 52.74 81.96 53.38 81.77 54.02L62.66 48.12C62.76 47.79 62.85 47.45 62.94 47.12L62.94 47.12ZM62.33 49.09L81.13 55.91C80.9 56.54 80.66 57.16 80.4 57.78L61.95 50.06C62.08 49.74 62.21 49.42 62.33 49.09L62.33 49.09ZM61.53 51L79.59 59.6C79.55 59.67 79.52 59.75 79.48 59.82C79.48 59.82 79.48 59.83 79.48 59.83C79.48 59.83 79.47 59.84 79.47 59.84C79.47 59.85 79.47 59.85 79.47 59.86C79.47 59.86 79.46 59.86 79.46 59.86C79.28 60.23 79.1 60.59 78.91 60.96L78.91 60.96C78.91 60.97 78.9 60.98 78.9 60.98C78.9 60.98 78.9 60.99 78.89 60.99C78.89 60.99 78.89 61 78.88 61.01C78.88 61.01 78.88 61.02 78.88 61.02C78.88 61.02 78.87 61.03 78.87 61.03C78.87 61.04 78.87 61.04 78.86 61.05C78.86 61.05 78.86 61.05 78.86 61.06C78.8 61.17 78.74 61.28 78.69 61.39L61.06 51.93C61.22 51.62 61.38 51.31 61.53 51L61.53 51ZM60.55 52.83L77.7 63.13C77.6 63.29 77.5 63.45 77.4 63.6L77.4 63.61C77.4 63.61 77.39 63.62 77.39 63.63C77.39 63.63 77.39 63.63 77.39 63.63C77.38 63.64 77.38 63.64 77.38 63.65C77.38 63.65 77.37 63.66 77.37 63.66C77.37 63.66 77.37 63.66 77.37 63.67C77.13 64.05 76.88 64.44 76.63 64.81L59.99 53.71C60.18 53.42 60.37 53.13 60.55 52.83L60.55 52.83ZM59.39 54.56L75.48 66.45C75.4 66.55 75.33 66.65 75.25 66.75L75.25 66.75C75.25 66.76 75.24 66.77 75.23 66.77L75.23 66.78C75.23 66.78 75.22 66.79 75.22 66.8C75.22 66.8 75.21 66.8 75.21 66.8C75.21 66.81 75.2 66.82 75.2 66.82C75.2 66.82 75.2 66.82 75.19 66.83C75.19 66.83 75.18 66.84 75.18 66.85C75.18 66.85 75.17 66.85 75.17 66.85C75.17 66.86 75.17 66.86 75.16 66.87C75.16 66.87 75.16 66.88 75.15 66.88C75.15 66.88 75.15 66.89 75.14 66.89C75.14 66.9 75.14 66.9 75.14 66.9C75.13 66.91 75.13 66.91 75.12 66.92C75.12 66.92 75.12 66.93 75.12 66.93C75.11 66.93 75.11 66.94 75.11 66.94C75.1 66.95 75.1 66.95 75.1 66.96C75.09 66.96 75.09 66.96 75.09 66.97C75.08 66.97 75.08 66.98 75.08 66.98C75.07 66.99 75.07 66.99 75.07 66.99C75.06 67 75.06 67 75.06 67.01C75.05 67.01 75.05 67.01 75.05 67.02C75.05 67.02 75.04 67.03 75.04 67.03C75.04 67.04 75.03 67.04 75.03 67.04C75.03 67.05 75.02 67.06 75.02 67.06C75.02 67.06 75.01 67.06 75.01 67.07C75.01 67.07 75 67.08 75 67.09C75 67.09 75 67.09 74.99 67.09C74.99 67.1 74.98 67.11 74.98 67.11C74.98 67.11 74.98 67.11 74.98 67.11C74.97 67.12 74.96 67.13 74.96 67.14C74.96 67.14 74.96 67.14 74.96 67.14C74.73 67.44 74.49 67.73 74.25 68.03L58.75 55.39C58.97 55.12 59.19 54.84 59.39 54.56L59.39 54.56ZM58.07 56.18L72.95 69.55C72.5 70.04 72.05 70.53 71.58 71L57.35 56.94C57.6 56.7 57.84 56.44 58.07 56.18L58.07 56.18ZM56.6 57.67L70.14 72.39C69.89 72.62 69.63 72.85 69.38 73.08C69.38 73.08 69.38 73.08 69.38 73.08C69.37 73.08 69.36 73.09 69.36 73.09C69.36 73.09 69.35 73.1 69.35 73.1C69.35 73.1 69.34 73.1 69.34 73.11C69.33 73.11 69.33 73.12 69.32 73.12C69.32 73.12 69.32 73.12 69.32 73.12C69.31 73.13 69.31 73.13 69.3 73.14L69.3 73.14C69.08 73.33 68.86 73.52 68.63 73.71L55.81 58.36C56.08 58.14 56.35 57.91 56.6 57.67L56.6 57.67ZM55 59.01L67.07 74.95C66.76 75.19 66.45 75.42 66.14 75.64C65.91 75.8 65.68 75.97 65.45 76.12L54.15 59.62C54.44 59.42 54.72 59.22 55 59.01L55 59.01ZM53.28 60.19L63.77 77.21C63.73 77.23 63.7 77.25 63.67 77.28C63.66 77.28 63.66 77.28 63.66 77.28C63.66 77.28 63.65 77.29 63.64 77.29C63.64 77.29 63.63 77.29 63.63 77.3C63.63 77.3 63.62 77.3 63.62 77.3C63.61 77.31 63.61 77.31 63.6 77.31C63.6 77.32 63.6 77.32 63.6 77.32C63.1 77.62 62.59 77.92 62.08 78.2C62.08 78.2 62.08 78.2 62.07 78.2C62.07 78.21 62.06 78.21 62.05 78.21C62.05 78.21 62.05 78.22 62.04 78.22C62.04 78.22 62.04 78.22 62.04 78.22L52.38 60.71C52.68 60.54 52.98 60.37 53.28 60.19L53.28 60.19ZM51.46 61.19L60.27 79.14C60.16 79.2 60.04 79.25 59.93 79.31L59.93 79.31C59.92 79.31 59.91 79.32 59.91 79.32C59.9 79.32 59.9 79.32 59.9 79.32C59.89 79.33 59.89 79.33 59.88 79.33C59.88 79.33 59.87 79.34 59.87 79.34C59.87 79.34 59.86 79.34 59.85 79.34C59.85 79.35 59.84 79.35 59.84 79.35C59.84 79.35 59.83 79.36 59.83 79.36C59.82 79.36 59.81 79.36 59.81 79.37C59.81 79.37 59.8 79.37 59.8 79.37C59.79 79.37 59.78 79.38 59.78 79.38C59.78 79.38 59.77 79.38 59.77 79.38C59.76 79.39 59.75 79.39 59.75 79.39C59.75 79.39 59.74 79.4 59.74 79.4C59.73 79.4 59.73 79.4 59.72 79.41C59.72 79.41 59.72 79.41 59.72 79.41C59.3 79.61 58.88 79.8 58.45 79.98L50.52 61.62C50.83 61.49 51.15 61.34 51.46 61.19L51.46 61.19ZM49.56 62.01L56.6 80.73C55.98 80.96 55.35 81.18 54.71 81.39L48.59 62.35C48.91 62.24 49.24 62.13 49.56 62.01L49.56 62.01ZM47.59 62.64L52.79 81.96C52.71 81.98 52.63 82 52.55 82.02L52.55 82.02C52.54 82.02 52.53 82.02 52.52 82.03C52.52 82.03 52.52 82.03 52.52 82.03C52.51 82.03 52.5 82.03 52.49 82.03C52.49 82.03 52.49 82.04 52.48 82.04C52.48 82.04 52.47 82.04 52.46 82.04C52.46 82.04 52.46 82.04 52.45 82.04C52.45 82.04 52.44 82.05 52.44 82.05C52.43 82.05 52.42 82.05 52.42 82.05C52.41 82.05 52.41 82.05 52.41 82.06C52.4 82.06 52.39 82.06 52.38 82.06C52.38 82.06 52.38 82.06 52.38 82.06C52.37 82.06 52.36 82.07 52.35 82.07C52.35 82.07 52.35 82.07 52.35 82.07C51.85 82.2 51.35 82.32 50.85 82.43L46.59 62.88C46.92 62.81 47.26 62.73 47.59 62.64L47.59 62.64ZM45.57 63.08L48.88 82.81C48.38 82.89 47.88 82.97 47.37 83.03C47.22 83.05 47.06 83.07 46.91 83.09L44.54 63.23C44.89 63.19 45.23 63.14 45.57 63.08L45.57 63.08ZM43.5 63.33L44.91 83.28C44.78 83.29 44.64 83.3 44.51 83.3C44.5 83.3 44.5 83.31 44.49 83.31C44.49 83.31 44.48 83.31 44.48 83.31C44.47 83.31 44.46 83.31 44.45 83.31C44.45 83.31 44.45 83.31 44.45 83.31C44.44 83.31 44.43 83.31 44.42 83.31C44.42 83.31 44.42 83.31 44.42 83.31C44.1 83.33 43.78 83.34 43.46 83.35C43.45 83.35 43.45 83.35 43.45 83.35C43.44 83.35 43.44 83.35 43.43 83.36C43.42 83.36 43.42 83.36 43.41 83.36C43.41 83.36 43.4 83.36 43.4 83.36C43.39 83.36 43.38 83.36 43.38 83.36C43.38 83.36 43.37 83.36 43.37 83.36C43.36 83.36 43.35 83.36 43.34 83.36C43.34 83.36 43.34 83.36 43.34 83.36C43.2 83.36 43.06 83.37 42.92 83.37L42.45 63.37C42.8 63.37 43.16 63.35 43.5 63.33L43.5 63.33ZM40.34 63.33C40.69 63.35 41.04 63.37 41.39 63.38L40.92 83.37C40.73 83.37 40.54 83.36 40.35 83.36C40.33 83.36 40.31 83.35 40.3 83.35C40.29 83.35 40.29 83.35 40.29 83.35C40.28 83.35 40.27 83.35 40.26 83.35C40.26 83.35 40.26 83.35 40.26 83.35C40.25 83.35 40.24 83.35 40.23 83.35L40.23 83.35C39.83 83.33 39.44 83.31 39.04 83.29C39.04 83.29 39.04 83.29 39.04 83.29C39.02 83.29 39 83.29 38.98 83.28C38.98 83.28 38.98 83.28 38.98 83.28C38.97 83.28 38.96 83.28 38.95 83.28L38.95 83.28C38.94 83.28 38.93 83.28 38.92 83.28L38.92 83.28L40.34 63.33L40.34 63.33ZM38.27 63.08C38.61 63.14 38.96 63.19 39.3 63.23L36.93 83.09C36.31 83.02 35.7 82.93 35.09 82.83C35.09 82.83 35.09 82.83 35.09 82.83C35.09 82.83 35.07 82.83 35.06 82.82C35.06 82.82 35.06 82.82 35.06 82.82C35.05 82.82 35.04 82.82 35.03 82.82C35.03 82.82 35.03 82.82 35.03 82.82C35.02 82.82 35.01 82.81 35 82.81C35 82.81 35 82.81 34.99 82.81C34.99 82.81 34.98 82.81 34.97 82.81C34.97 82.81 34.96 82.81 34.96 82.81C34.96 82.81 34.95 82.81 34.95 82.8L38.27 63.08L38.27 63.08ZM36.25 62.64C36.58 62.73 36.92 62.81 37.25 62.88L32.98 82.42C32.91 82.41 32.84 82.39 32.76 82.38C32.76 82.38 32.76 82.38 32.76 82.38C32.75 82.37 32.74 82.37 32.73 82.37C32.73 82.37 32.73 82.37 32.73 82.37C32.72 82.37 32.71 82.36 32.71 82.36C32.7 82.36 32.7 82.36 32.69 82.36C32.69 82.36 32.68 82.36 32.68 82.36C32.67 82.35 32.66 82.35 32.66 82.35C32.65 82.35 32.65 82.35 32.65 82.35C32.64 82.35 32.63 82.35 32.62 82.34C32.62 82.34 32.62 82.34 32.62 82.34C32.61 82.34 32.6 82.34 32.59 82.34C32.59 82.34 32.59 82.34 32.59 82.34C32.58 82.33 32.57 82.33 32.56 82.33C32.56 82.33 32.56 82.33 32.56 82.33C32.3 82.27 32.05 82.21 31.8 82.15L31.8 82.15C31.79 82.15 31.78 82.14 31.77 82.14C31.77 82.14 31.77 82.14 31.77 82.14C31.76 82.14 31.75 82.14 31.74 82.13C31.74 82.13 31.74 82.13 31.74 82.13C31.73 82.13 31.72 82.13 31.71 82.13C31.71 82.13 31.71 82.13 31.71 82.13C31.7 82.12 31.69 82.12 31.68 82.12C31.68 82.12 31.68 82.12 31.68 82.12C31.67 82.12 31.66 82.11 31.65 82.11C31.65 82.11 31.65 82.11 31.65 82.11C31.64 82.11 31.63 82.11 31.62 82.1C31.62 82.1 31.62 82.1 31.62 82.1C31.61 82.1 31.6 82.1 31.59 82.1C31.59 82.1 31.59 82.1 31.59 82.1C31.58 82.09 31.57 82.09 31.56 82.09C31.56 82.09 31.56 82.09 31.56 82.09C31.55 82.09 31.54 82.08 31.53 82.08C31.53 82.08 31.53 82.08 31.53 82.08C31.52 82.08 31.51 82.08 31.5 82.07C31.5 82.07 31.5 82.07 31.5 82.07C31.49 82.07 31.48 82.07 31.47 82.07C31.47 82.07 31.47 82.07 31.47 82.07C31.46 82.06 31.45 82.06 31.44 82.06L31.44 82.06C31.31 82.03 31.18 81.99 31.05 81.96L36.25 62.64L36.25 62.64ZM34.28 62.01C34.6 62.13 34.93 62.24 35.26 62.35L29.12 81.38C28.82 81.28 28.51 81.18 28.2 81.07C28.2 81.07 28.2 81.07 28.2 81.07C28.2 81.07 28.19 81.07 28.18 81.06C28.18 81.06 28.17 81.06 28.17 81.06C28.16 81.06 28.16 81.06 28.15 81.06C28.15 81.05 28.14 81.05 28.14 81.05C28.13 81.05 28.13 81.05 28.12 81.05C28.12 81.04 28.11 81.04 28.11 81.04C28.1 81.04 28.1 81.04 28.09 81.04C28.09 81.03 28.08 81.03 28.08 81.03C28.07 81.03 28.07 81.03 28.07 81.03C28.06 81.02 28.05 81.02 28.04 81.02C28.04 81.02 28.04 81.02 28.04 81.02C28.03 81.01 28.02 81.01 28.01 81.01C28.01 81.01 28.01 81.01 28.01 81.01C27.75 80.91 27.49 80.82 27.24 80.72L34.28 62.01L34.28 62.01ZM32.38 61.18C32.69 61.34 33 61.48 33.32 61.62L25.38 79.97C25.03 79.82 24.68 79.67 24.34 79.5C24.34 79.5 24.34 79.5 24.34 79.5C24.33 79.5 24.32 79.5 24.31 79.49C24.31 79.49 24.31 79.49 24.31 79.49C24.3 79.49 24.29 79.48 24.29 79.48C24.28 79.48 24.28 79.48 24.28 79.48C24.27 79.47 24.27 79.47 24.26 79.47C24.26 79.47 24.25 79.47 24.25 79.46C24.24 79.46 24.24 79.46 24.23 79.46C24.23 79.45 24.22 79.45 24.22 79.45C24.21 79.45 24.21 79.45 24.21 79.45C24.2 79.44 24.2 79.44 24.19 79.44C24.19 79.44 24.19 79.44 24.18 79.44C23.98 79.34 23.77 79.24 23.57 79.14L32.38 61.18L32.38 61.18ZM30.56 60.18C30.86 60.36 31.16 60.54 31.46 60.7L21.79 78.21C21.73 78.18 21.67 78.15 21.61 78.11C21.61 78.11 21.61 78.11 21.61 78.11C21.6 78.11 21.59 78.1 21.59 78.1C21.58 78.1 21.58 78.1 21.58 78.1C21.57 78.09 21.57 78.09 21.56 78.08C21.56 78.08 21.56 78.08 21.55 78.08C21.55 78.08 21.54 78.07 21.54 78.07C21.53 78.07 21.53 78.07 21.52 78.06C21.52 78.06 21.52 78.06 21.51 78.06C21.51 78.05 21.5 78.05 21.49 78.05C21.49 78.05 21.49 78.05 21.49 78.04C21.48 78.04 21.47 78.04 21.47 78.03C21.47 78.03 21.46 78.03 21.46 78.03C21.45 78.02 21.45 78.02 21.44 78.02L21.44 78.02C20.98 77.75 20.52 77.48 20.07 77.2L30.56 60.18L30.56 60.18ZM28.84 59C29.12 59.21 29.4 59.42 29.69 59.61L18.39 76.11C18.14 75.94 17.89 75.76 17.64 75.58C17.64 75.58 17.64 75.58 17.64 75.58C17.63 75.58 17.62 75.57 17.61 75.57C17.61 75.57 17.61 75.56 17.61 75.56C17.6 75.56 17.59 75.55 17.59 75.55C17.59 75.55 17.58 75.55 17.58 75.54C17.58 75.54 17.57 75.53 17.56 75.53C17.56 75.53 17.56 75.53 17.56 75.53C17.55 75.52 17.54 75.52 17.54 75.51C17.54 75.51 17.53 75.51 17.53 75.51C17.53 75.5 17.52 75.5 17.51 75.49C17.51 75.49 17.51 75.49 17.5 75.49C17.5 75.48 17.49 75.48 17.49 75.48C17.49 75.47 17.48 75.47 17.48 75.47C17.47 75.46 17.47 75.46 17.47 75.46C17.46 75.46 17.46 75.45 17.45 75.45C17.45 75.45 17.44 75.44 17.44 75.44C17.44 75.44 17.43 75.43 17.42 75.43C17.42 75.43 17.42 75.43 17.42 75.42C17.41 75.42 17.4 75.41 17.4 75.41C17.39 75.41 17.39 75.41 17.39 75.41C17.38 75.4 17.38 75.4 17.37 75.39C17.37 75.39 17.37 75.39 17.37 75.39C17.17 75.24 16.97 75.09 16.77 74.94L28.84 59L28.84 59ZM27.24 57.66C27.49 57.9 27.76 58.13 28.03 58.35L15.2 73.7C15.2 73.7 15.19 73.69 15.19 73.69C15.19 73.69 15.19 73.69 15.19 73.69C15.18 73.68 15.17 73.67 15.17 73.67C15.16 73.67 15.16 73.67 15.16 73.66C15.15 73.66 15.15 73.65 15.14 73.65C15.14 73.65 15.14 73.64 15.13 73.64C15.13 73.64 15.12 73.63 15.12 73.63C15.12 73.63 15.11 73.63 15.11 73.62C15.11 73.62 15.1 73.61 15.09 73.61C15.09 73.61 15.09 73.6 15.09 73.6C15.08 73.6 15.08 73.59 15.07 73.59C15.07 73.59 15.07 73.58 15.06 73.58C15.06 73.58 15.05 73.57 15.05 73.57C15.05 73.57 15.04 73.56 15.04 73.56C15.03 73.56 15.03 73.55 15.03 73.55C15.02 73.55 15.02 73.54 15.01 73.54C15.01 73.54 15 73.53 15 73.53C15 73.53 14.99 73.52 14.99 73.52C14.99 73.52 14.98 73.51 14.98 73.51C14.97 73.51 14.97 73.5 14.96 73.5C14.96 73.5 14.96 73.49 14.95 73.49C14.95 73.49 14.94 73.48 14.94 73.48C14.94 73.48 14.93 73.47 14.93 73.47C14.93 73.47 14.92 73.46 14.92 73.46C14.91 73.46 14.91 73.45 14.91 73.45C14.9 73.45 14.9 73.44 14.89 73.44C14.89 73.44 14.89 73.44 14.89 73.43C14.88 73.43 14.87 73.42 14.87 73.42C14.87 73.41 14.87 73.41 14.86 73.41C14.86 73.41 14.85 73.4 14.84 73.39L14.84 73.39C14.83 73.39 14.83 73.38 14.82 73.37L14.82 73.37C14.49 73.09 14.16 72.8 13.84 72.51C13.83 72.5 13.83 72.5 13.83 72.5C13.83 72.5 13.82 72.49 13.81 72.48C13.81 72.48 13.81 72.48 13.81 72.48C13.8 72.47 13.8 72.47 13.79 72.46C13.79 72.46 13.78 72.46 13.78 72.45C13.78 72.45 13.77 72.45 13.77 72.44C13.77 72.44 13.76 72.44 13.76 72.43C13.75 72.43 13.75 72.43 13.75 72.42C13.74 72.42 13.74 72.41 13.73 72.41C13.73 72.41 13.73 72.41 13.73 72.41C13.72 72.4 13.71 72.39 13.7 72.38L13.7 72.38C13.7 72.38 13.7 72.38 13.7 72.38L27.24 57.66L27.24 57.66ZM25.77 56.17C26 56.43 26.24 56.69 26.49 56.94L12.26 70.99C12.26 70.99 12.26 70.99 12.25 70.99C12.25 70.98 12.24 70.98 12.24 70.97C12.24 70.97 12.24 70.97 12.24 70.97C11.92 70.65 11.61 70.33 11.31 70C11.31 70 11.31 70 11.31 70C11.3 69.99 11.3 69.98 11.29 69.98C11.29 69.98 11.29 69.97 11.28 69.97C11.28 69.97 11.27 69.96 11.27 69.95C11.27 69.95 11.26 69.95 11.26 69.94C11.26 69.94 11.25 69.94 11.25 69.93C11.24 69.93 11.24 69.92 11.23 69.92C11.23 69.92 11.23 69.91 11.23 69.91C11.22 69.9 11.22 69.9 11.21 69.89L11.21 69.89C11.1 69.77 10.99 69.65 10.89 69.53L25.77 56.17L25.77 56.17ZM24.45 54.55C24.65 54.83 24.87 55.11 25.09 55.38L9.59 68.02C9.59 68.02 9.59 68.01 9.58 68.01C9.58 68.01 9.57 68 9.57 67.99C9.57 67.99 9.56 67.99 9.56 67.98C9.56 67.98 9.55 67.97 9.55 67.97C9.55 67.97 9.54 67.96 9.54 67.96C9.54 67.95 9.53 67.95 9.53 67.95C9.53 67.94 9.52 67.94 9.52 67.93C9.52 67.93 9.51 67.93 9.51 67.92C9.51 67.92 9.5 67.91 9.5 67.91C9.5 67.9 9.49 67.9 9.49 67.9C9.49 67.89 9.48 67.89 9.48 67.88C9.48 67.88 9.47 67.88 9.47 67.87C9.47 67.87 9.46 67.86 9.46 67.85C9.46 67.85 9.46 67.85 9.45 67.85C9.45 67.84 9.44 67.84 9.44 67.83L9.44 67.83C9.23 67.57 9.02 67.31 8.82 67.04L8.82 67.04C8.81 67.03 8.81 67.02 8.8 67.02C8.8 67.02 8.8 67.02 8.8 67.02C8.79 67.01 8.79 67 8.78 67C8.78 66.99 8.78 66.99 8.78 66.99C8.77 66.99 8.77 66.98 8.77 66.97C8.76 66.97 8.76 66.97 8.76 66.96C8.76 66.96 8.75 66.96 8.75 66.95C8.75 66.95 8.74 66.94 8.74 66.94C8.74 66.94 8.74 66.93 8.74 66.93C8.73 66.93 8.73 66.92 8.72 66.91C8.72 66.91 8.72 66.91 8.72 66.91C8.6 66.75 8.48 66.6 8.36 66.44L24.45 54.55L24.45 54.55ZM23.29 52.82C23.47 53.12 23.66 53.41 23.85 53.7L7.21 64.8C7.16 64.73 7.12 64.66 7.07 64.59C7.07 64.59 7.06 64.58 7.06 64.57C7.06 64.57 7.06 64.57 7.06 64.57C6.75 64.1 6.45 63.62 6.16 63.14L6.16 63.14C6.15 63.13 6.15 63.12 6.14 63.12C6.14 63.11 6.14 63.11 6.14 63.11L23.29 52.82L23.29 52.82ZM22.31 50.99C22.46 51.3 22.62 51.62 22.78 51.92L5.16 61.37C5.06 61.2 4.97 61.03 4.88 60.86C4.74 60.59 4.6 60.31 4.47 60.03C4.47 60.03 4.47 60.03 4.47 60.03C4.46 60.02 4.46 60.01 4.45 60C4.45 60 4.45 60 4.45 60C4.45 59.99 4.44 59.98 4.44 59.98C4.44 59.97 4.44 59.97 4.43 59.96C4.43 59.96 4.43 59.95 4.43 59.95C4.42 59.94 4.42 59.94 4.42 59.93C4.42 59.93 4.42 59.93 4.41 59.92C4.36 59.81 4.31 59.7 4.25 59.59L22.31 50.99L22.31 50.99ZM21.51 49.09C21.63 49.41 21.76 49.73 21.89 50.05L3.44 57.76C3.34 57.53 3.25 57.3 3.15 57.07C3.15 57.07 3.15 57.06 3.15 57.06C3.15 57.06 3.15 57.05 3.14 57.04C3.14 57.04 3.14 57.03 3.14 57.03C3.14 57.02 3.13 57.02 3.13 57.01C3.13 57.01 3.13 57 3.13 57C3.12 56.99 3.12 56.99 3.12 56.98C3.12 56.97 3.11 56.97 3.11 56.96C3.11 56.96 3.11 56.96 3.11 56.96C2.97 56.6 2.84 56.25 2.71 55.9L21.51 49.09L21.51 49.09ZM20.91 47.11C20.99 47.45 21.09 47.78 21.19 48.11L2.07 54C2.03 53.86 1.99 53.73 1.95 53.59L1.95 53.58C1.95 53.57 1.94 53.57 1.94 53.56C1.94 53.56 1.94 53.55 1.94 53.55C1.94 53.54 1.94 53.54 1.93 53.53C1.93 53.53 1.93 53.52 1.93 53.52C1.93 53.51 1.93 53.51 1.92 53.5C1.92 53.5 1.92 53.5 1.92 53.49C1.92 53.48 1.92 53.48 1.91 53.47C1.91 53.47 1.91 53.46 1.91 53.46C1.91 53.45 1.91 53.45 1.91 53.44C1.91 53.44 1.9 53.43 1.9 53.43C1.9 53.42 1.9 53.42 1.9 53.41C1.9 53.41 1.9 53.4 1.9 53.4C1.89 53.39 1.89 53.39 1.89 53.38C1.89 53.38 1.89 53.38 1.89 53.37C1.89 53.37 1.88 53.36 1.88 53.35C1.88 53.35 1.88 53.35 1.88 53.34C1.88 53.34 1.87 53.33 1.87 53.32L1.87 53.32C1.87 53.31 1.87 53.3 1.86 53.29L1.86 53.28C1.75 52.89 1.64 52.48 1.53 52.08L20.91 47.11L20.91 47.11ZM20.49 45.09C20.54 45.43 20.61 45.77 20.67 46.11L1.08 50.13C0.97 49.56 0.86 48.98 0.77 48.41C0.75 48.32 0.74 48.24 0.73 48.16L20.49 45.09L20.49 45.09ZM20.27 43.01C20.29 43.36 20.32 43.71 20.36 44.05L0.47 46.18C0.44 45.94 0.42 45.71 0.4 45.47C0.4 45.47 0.4 45.47 0.4 45.47C0.4 45.46 0.4 45.45 0.4 45.44C0.4 45.44 0.4 45.44 0.4 45.44C0.4 45.43 0.4 45.42 0.4 45.42C0.4 45.41 0.4 45.41 0.39 45.4C0.39 45.4 0.39 45.4 0.39 45.39C0.36 45.01 0.33 44.63 0.31 44.25C0.31 44.23 0.31 44.21 0.31 44.18L20.27 43.01L20.27 43.01ZM0.26 40.19L20.24 40.9C20.24 41.17 20.23 41.43 20.23 41.7L20.23 41.96L0.23 42.19C0.23 42.06 0.23 41.92 0.23 41.8C0.23 41.79 0.23 41.79 0.23 41.79C0.23 41.78 0.23 41.77 0.23 41.77C0.23 41.76 0.23 41.76 0.23 41.75C0.23 41.75 0.23 41.74 0.23 41.73C0.23 41.72 0.23 41.71 0.23 41.7L0.23 41.7L0.23 41.7C0.23 41.69 0.23 41.68 0.23 41.66C0.23 41.66 0.23 41.65 0.23 41.65C0.23 41.64 0.23 41.63 0.23 41.62C0.23 41.61 0.23 41.61 0.23 41.6C0.23 41.59 0.23 41.58 0.23 41.56C0.23 41.56 0.23 41.55 0.23 41.55C0.23 41.54 0.23 41.53 0.23 41.52C0.23 41.52 0.23 41.51 0.23 41.5C0.23 41.49 0.23 41.48 0.23 41.47C0.23 41.47 0.23 41.46 0.23 41.45C0.23 41.44 0.23 41.43 0.23 41.42C0.23 41.42 0.23 41.41 0.23 41.4C0.23 41.4 0.23 41.39 0.23 41.38C0.23 41.37 0.23 41.36 0.23 41.34C0.23 41.34 0.23 41.33 0.23 41.33C0.23 41.32 0.23 41.31 0.23 41.3C0.23 41.3 0.23 41.29 0.23 41.29C0.23 41.26 0.23 41.23 0.23 41.2C0.23 41.2 0.23 41.19 0.23 41.19C0.23 41.18 0.23 41.17 0.23 41.16C0.23 41.16 0.23 41.16 0.23 41.16C0.23 41.01 0.23 40.87 0.24 40.72L0.24 40.72C0.24 40.69 0.24 40.66 0.24 40.63C0.24 40.63 0.24 40.62 0.24 40.62C0.24 40.61 0.24 40.6 0.24 40.6C0.24 40.59 0.24 40.58 0.24 40.58C0.24 40.57 0.24 40.56 0.24 40.55C0.24 40.54 0.24 40.53 0.24 40.52C0.24 40.51 0.24 40.51 0.24 40.5C0.24 40.49 0.24 40.48 0.24 40.47C0.24 40.47 0.24 40.46 0.24 40.46C0.25 40.37 0.25 40.28 0.26 40.19L0.26 40.19ZM0.59 36.2L20.42 38.81C20.37 39.15 20.34 39.5 20.31 39.85L0.38 38.19C0.39 38.03 0.4 37.88 0.42 37.72C0.42 37.72 0.42 37.72 0.42 37.72C0.42 37.71 0.42 37.7 0.42 37.69C0.42 37.69 0.42 37.69 0.42 37.68C0.42 37.68 0.42 37.67 0.42 37.66C0.42 37.66 0.42 37.65 0.42 37.65C0.42 37.64 0.43 37.64 0.43 37.63C0.43 37.62 0.43 37.62 0.43 37.61C0.43 37.61 0.43 37.6 0.43 37.6C0.43 37.59 0.43 37.58 0.43 37.57L0.43 37.57C0.48 37.11 0.53 36.66 0.59 36.2L0.59 36.2ZM1.3 32.27L20.79 36.77C20.71 37.1 20.64 37.45 20.58 37.78L0.9 34.22C0.96 33.91 1.02 33.59 1.08 33.27L1.08 33.27C1.08 33.26 1.08 33.26 1.09 33.25C1.09 33.24 1.09 33.24 1.09 33.24C1.09 33.23 1.09 33.23 1.09 33.22C1.09 33.21 1.09 33.21 1.1 33.21C1.1 33.2 1.1 33.2 1.1 33.19C1.1 33.19 1.1 33.18 1.1 33.18C1.1 33.17 1.1 33.17 1.1 33.16C1.11 33.15 1.11 33.15 1.11 33.14C1.11 33.14 1.11 33.13 1.11 33.13C1.11 33.12 1.11 33.12 1.11 33.11C1.12 33.11 1.12 33.1 1.12 33.1C1.12 33.09 1.12 33.08 1.12 33.08C1.12 33.07 1.12 33.07 1.12 33.07C1.12 33.06 1.13 33.05 1.13 33.05C1.13 33.04 1.13 33.04 1.13 33.04C1.13 33.03 1.13 33.02 1.13 33.01C1.13 33.01 1.13 33.01 1.13 33.01C1.14 33 1.14 32.99 1.14 32.98C1.14 32.98 1.14 32.98 1.14 32.98C1.14 32.97 1.15 32.96 1.15 32.95C1.15 32.95 1.15 32.95 1.15 32.95C1.15 32.94 1.15 32.93 1.15 32.92C1.15 32.92 1.15 32.92 1.15 32.92C1.18 32.81 1.2 32.71 1.22 32.6C1.22 32.6 1.22 32.6 1.22 32.6C1.23 32.59 1.23 32.58 1.23 32.57C1.23 32.56 1.23 32.55 1.24 32.54C1.24 32.54 1.24 32.54 1.24 32.54C1.24 32.53 1.24 32.52 1.24 32.52C1.24 32.51 1.24 32.51 1.24 32.51C1.26 32.43 1.28 32.35 1.3 32.27L1.3 32.27ZM2.39 28.42L21.35 34.78C21.24 35.11 21.14 35.44 21.04 35.77L1.8 30.33C1.8 30.33 1.8 30.32 1.8 30.32C1.8 30.32 1.8 30.31 1.8 30.31C1.81 30.3 1.81 30.29 1.81 30.29C1.81 30.28 1.81 30.28 1.81 30.28C1.81 30.27 1.82 30.26 1.82 30.26C1.82 30.25 1.82 30.25 1.82 30.25C1.82 30.24 1.82 30.23 1.83 30.22L1.83 30.22C1.97 29.73 2.12 29.24 2.28 28.76C2.28 28.75 2.28 28.75 2.28 28.75C2.28 28.74 2.28 28.74 2.28 28.73C2.28 28.73 2.29 28.72 2.29 28.72C2.29 28.71 2.29 28.71 2.29 28.71C2.32 28.61 2.36 28.52 2.39 28.42L2.39 28.42ZM3.84 24.69L22.1 32.86C21.96 33.17 21.83 33.49 21.7 33.81L3.07 26.54C3.31 25.92 3.57 25.3 3.84 24.69L3.84 24.69ZM5.65 21.13L23.04 31C22.87 31.3 22.7 31.61 22.55 31.92L4.7 22.89C4.97 22.37 5.24 21.85 5.53 21.34L5.53 21.34C5.53 21.33 5.54 21.32 5.54 21.32C5.54 21.31 5.54 21.32 5.54 21.31C5.55 21.31 5.55 21.3 5.56 21.29C5.56 21.29 5.56 21.29 5.56 21.29C5.56 21.28 5.57 21.27 5.57 21.26C5.57 21.26 5.57 21.26 5.57 21.26C5.58 21.25 5.58 21.24 5.59 21.24C5.59 21.24 5.59 21.23 5.59 21.23C5.59 21.22 5.6 21.22 5.6 21.21C5.6 21.21 5.61 21.2 5.61 21.2C5.61 21.19 5.61 21.19 5.62 21.18C5.62 21.18 5.62 21.17 5.62 21.17C5.63 21.17 5.63 21.16 5.63 21.16C5.63 21.15 5.64 21.14 5.64 21.14C5.64 21.14 5.64 21.13 5.64 21.13C5.65 21.13 5.65 21.13 5.65 21.13L5.65 21.13ZM7.79 17.75L24.15 29.25C23.95 29.53 23.76 29.82 23.57 30.11L6.68 19.41C6.72 19.34 6.76 19.28 6.81 19.21C6.81 19.2 6.81 19.2 6.81 19.2C6.81 19.2 6.82 19.19 6.82 19.19C6.82 19.18 6.83 19.18 6.83 19.17L6.83 19.17C7.05 18.84 7.27 18.51 7.49 18.18C7.49 18.18 7.49 18.17 7.5 18.17C7.5 18.17 7.5 18.16 7.51 18.16C7.51 18.15 7.51 18.14 7.52 18.14C7.52 18.14 7.52 18.13 7.52 18.13C7.61 18 7.7 17.88 7.79 17.75L7.79 17.75ZM10.24 14.59L25.43 27.6C25.21 27.86 24.99 28.13 24.77 28.41L8.98 16.14C9.02 16.09 9.05 16.04 9.09 15.99L9.09 15.99C9.1 15.98 9.1 15.98 9.11 15.97C9.11 15.97 9.11 15.97 9.11 15.96C9.12 15.96 9.12 15.95 9.13 15.94C9.13 15.94 9.13 15.94 9.13 15.94C9.14 15.93 9.14 15.93 9.15 15.92C9.15 15.92 9.15 15.91 9.15 15.91C9.16 15.91 9.16 15.9 9.17 15.9C9.17 15.89 9.17 15.89 9.18 15.88C9.18 15.88 9.18 15.88 9.18 15.87C9.19 15.87 9.19 15.86 9.2 15.86C9.2 15.86 9.2 15.85 9.2 15.85C9.21 15.84 9.21 15.84 9.22 15.83C9.22 15.83 9.22 15.83 9.22 15.82C9.23 15.82 9.23 15.81 9.24 15.81C9.24 15.8 9.24 15.8 9.24 15.8C9.25 15.79 9.25 15.79 9.26 15.78C9.26 15.78 9.26 15.78 9.26 15.78C9.26 15.77 9.27 15.76 9.28 15.76C9.28 15.76 9.28 15.75 9.28 15.75C9.28 15.75 9.29 15.74 9.29 15.73C9.29 15.73 9.3 15.73 9.3 15.73C9.3 15.72 9.31 15.71 9.31 15.71C9.31 15.71 9.32 15.7 9.32 15.7C9.32 15.7 9.33 15.69 9.33 15.68C9.34 15.68 9.34 15.68 9.34 15.68C9.34 15.67 9.35 15.67 9.35 15.66C9.35 15.66 9.36 15.66 9.36 15.66C9.36 15.65 9.37 15.64 9.37 15.63C9.38 15.63 9.38 15.63 9.38 15.63C9.38 15.63 9.39 15.62 9.39 15.61C9.39 15.61 9.4 15.61 9.4 15.61C9.4 15.6 9.41 15.59 9.41 15.59C9.41 15.59 9.41 15.58 9.42 15.58C9.42 15.58 9.43 15.57 9.43 15.56C9.43 15.56 9.43 15.56 9.44 15.56C9.44 15.55 9.45 15.54 9.45 15.54C9.45 15.54 9.45 15.53 9.45 15.53C9.46 15.53 9.47 15.52 9.47 15.51C9.47 15.51 9.47 15.51 9.47 15.51C9.48 15.5 9.48 15.5 9.49 15.49C9.49 15.49 9.49 15.49 9.49 15.48C9.5 15.48 9.5 15.47 9.51 15.47C9.51 15.46 9.51 15.46 9.51 15.46C9.52 15.45 9.52 15.45 9.53 15.44C9.53 15.44 9.53 15.44 9.53 15.43C9.54 15.43 9.54 15.42 9.55 15.42C9.55 15.41 9.55 15.41 9.55 15.41C9.56 15.4 9.56 15.4 9.57 15.39C9.57 15.39 9.57 15.39 9.57 15.38C9.58 15.38 9.58 15.37 9.59 15.37C9.59 15.37 9.59 15.36 9.59 15.36C9.6 15.35 9.6 15.35 9.61 15.35C9.61 15.34 9.61 15.34 9.61 15.33C9.62 15.33 9.62 15.32 9.62 15.32C9.63 15.32 9.63 15.31 9.63 15.31C9.64 15.31 9.64 15.3 9.64 15.3C9.65 15.29 9.65 15.29 9.65 15.28C9.66 15.28 9.66 15.28 9.66 15.27C9.67 15.27 9.67 15.26 9.67 15.26C9.68 15.26 9.68 15.25 9.68 15.25C9.69 15.24 9.69 15.24 9.7 15.23C9.7 15.23 9.7 15.23 9.7 15.23C9.71 15.22 9.71 15.21 9.72 15.21C9.72 15.21 9.72 15.21 9.72 15.2C9.73 15.2 9.73 15.19 9.74 15.18C9.74 15.18 9.74 15.18 9.74 15.18C9.74 15.17 9.75 15.17 9.76 15.16C9.76 15.16 9.76 15.16 9.76 15.16C9.76 15.15 9.77 15.14 9.78 15.14C9.78 15.13 9.78 15.13 9.78 15.13C9.78 15.13 9.79 15.12 9.8 15.11C9.8 15.11 9.8 15.11 9.8 15.11C9.8 15.1 9.81 15.1 9.82 15.09C9.82 15.09 9.82 15.09 9.82 15.08C9.82 15.08 9.83 15.07 9.84 15.06C9.84 15.06 9.84 15.06 9.84 15.06C9.84 15.05 9.85 15.05 9.86 15.04C9.86 15.04 9.86 15.04 9.86 15.04C9.86 15.03 9.87 15.02 9.88 15.02C9.88 15.01 9.88 15.01 9.88 15.01C9.88 15 9.89 15 9.9 14.99C9.9 14.99 9.9 14.99 9.9 14.99C9.9 14.98 9.91 14.97 9.92 14.97C9.92 14.97 9.92 14.96 9.92 14.96C9.92 14.96 9.93 14.95 9.93 14.94C9.94 14.94 9.94 14.94 9.94 14.94C9.94 14.93 9.95 14.93 9.95 14.92C9.96 14.92 9.96 14.92 9.96 14.91C9.96 14.91 9.97 14.9 9.97 14.9C9.98 14.9 9.98 14.89 9.98 14.89C9.98 14.88 9.99 14.88 9.99 14.87C10 14.87 10 14.87 10 14.87C10.01 14.86 10.01 14.86 10.01 14.85C10.02 14.85 10.02 14.84 10.02 14.84C10.03 14.84 10.03 14.83 10.03 14.83C10.04 14.82 10.04 14.82 10.04 14.82C10.05 14.81 10.05 14.81 10.05 14.8C10.06 14.8 10.06 14.8 10.06 14.79C10.07 14.79 10.07 14.79 10.07 14.78C10.08 14.78 10.08 14.77 10.09 14.76C10.09 14.76 10.09 14.76 10.09 14.76C10.1 14.75 10.1 14.74 10.11 14.74C10.11 14.74 10.11 14.74 10.11 14.74C10.16 14.69 10.2 14.64 10.24 14.59L10.24 14.59ZM12.98 11.68L26.87 26.08C26.62 26.32 26.37 26.57 26.13 26.82L11.58 13.1C11.58 13.1 11.58 13.1 11.58 13.1C12.04 12.62 12.5 12.14 12.98 11.68L12.98 11.68ZM15.99 9.04L28.44 24.7C28.17 24.91 27.9 25.14 27.64 25.37L14.46 10.33C14.53 10.26 14.61 10.19 14.69 10.12C14.69 10.12 14.69 10.12 14.7 10.12C14.7 10.11 14.71 10.11 14.71 10.1C14.72 10.1 14.72 10.1 14.73 10.09C14.73 10.09 14.73 10.09 14.74 10.08C15.15 9.73 15.56 9.38 15.99 9.04L15.99 9.04ZM19.24 6.71L30.13 23.48C29.84 23.67 29.55 23.86 29.27 24.07L17.58 7.84C17.74 7.73 17.89 7.62 18.04 7.51C18.04 7.51 18.04 7.51 18.04 7.51C18.05 7.51 18.05 7.51 18.06 7.5C18.06 7.5 18.07 7.5 18.07 7.5C18.07 7.49 18.07 7.49 18.08 7.49C18.08 7.49 18.09 7.48 18.1 7.48C18.1 7.48 18.1 7.48 18.1 7.48C18.27 7.36 18.44 7.24 18.61 7.12C18.62 7.12 18.62 7.12 18.62 7.12C18.63 7.12 18.63 7.11 18.64 7.11C18.64 7.1 18.65 7.1 18.65 7.1C18.65 7.1 18.66 7.09 18.66 7.09C18.67 7.09 18.68 7.08 18.68 7.08C18.68 7.08 18.69 7.07 18.69 7.07C18.87 6.95 19.05 6.83 19.24 6.71L19.24 6.71ZM22.69 4.69L31.93 22.43C31.62 22.59 31.32 22.76 31.02 22.93L20.94 5.66C21.08 5.57 21.23 5.49 21.37 5.41L21.37 5.41C21.39 5.4 21.41 5.39 21.43 5.38L21.43 5.38C21.44 5.37 21.46 5.36 21.48 5.35L21.48 5.35C21.88 5.12 22.28 4.91 22.69 4.69L22.69 4.69ZM26.32 3.02L33.81 21.56C33.49 21.69 33.17 21.83 32.86 21.98L24.48 3.81C24.49 3.81 24.49 3.81 24.5 3.81C24.5 3.8 24.51 3.8 24.51 3.8C24.51 3.8 24.52 3.8 24.52 3.79C24.53 3.79 24.53 3.79 24.54 3.79C24.54 3.79 24.55 3.78 24.55 3.78C24.56 3.78 24.56 3.78 24.57 3.77C24.57 3.77 24.58 3.77 24.58 3.77C24.59 3.77 24.59 3.76 24.6 3.76C24.6 3.76 24.61 3.76 24.61 3.76C24.62 3.75 24.62 3.75 24.63 3.75C24.63 3.75 24.63 3.75 24.64 3.74C24.64 3.74 24.65 3.74 24.66 3.74C24.66 3.73 24.66 3.73 24.67 3.73C24.67 3.73 24.68 3.73 24.68 3.72C24.69 3.72 24.69 3.72 24.7 3.72C24.7 3.72 24.71 3.71 24.71 3.71C24.72 3.71 24.72 3.71 24.73 3.71C24.73 3.7 24.74 3.7 24.74 3.7C24.74 3.7 24.75 3.7 24.75 3.7C24.75 3.69 24.76 3.69 24.77 3.69C24.77 3.68 24.78 3.68 24.78 3.68C24.79 3.68 24.79 3.68 24.8 3.67C25.3 3.44 25.81 3.23 26.32 3.02L26.32 3.02ZM30.1 1.7L35.76 20.88C35.43 20.98 35.1 21.09 34.78 21.2L28.19 2.31C28.63 2.16 29.08 2.01 29.53 1.87C29.53 1.87 29.53 1.87 29.53 1.87C29.54 1.87 29.55 1.87 29.56 1.87C29.56 1.87 29.56 1.86 29.57 1.86C29.57 1.86 29.58 1.86 29.59 1.86C29.59 1.86 29.6 1.85 29.6 1.85C29.61 1.85 29.61 1.85 29.62 1.85C29.62 1.85 29.63 1.84 29.64 1.84C29.64 1.84 29.64 1.84 29.65 1.84C29.65 1.84 29.66 1.83 29.67 1.83C29.67 1.83 29.67 1.83 29.68 1.83C29.81 1.79 29.96 1.74 30.1 1.7L30.1 1.7ZM33.98 0.76L37.77 20.39C37.43 20.46 37.09 20.53 36.76 20.61L32.03 1.18C32.03 1.18 32.03 1.18 32.03 1.18C32.04 1.18 32.04 1.18 32.05 1.18C32.05 1.18 32.06 1.17 32.06 1.17C32.07 1.17 32.07 1.17 32.08 1.17C32.09 1.17 32.09 1.17 32.1 1.17C32.1 1.16 32.1 1.16 32.11 1.16C32.11 1.16 32.12 1.16 32.13 1.16C32.13 1.16 32.14 1.16 32.14 1.16C32.15 1.15 32.15 1.15 32.16 1.15C32.16 1.15 32.17 1.15 32.17 1.15C32.18 1.15 32.18 1.15 32.19 1.14C32.19 1.14 32.2 1.14 32.2 1.14C32.21 1.14 32.22 1.14 32.23 1.14C32.23 1.14 32.23 1.14 32.23 1.14C32.24 1.13 32.25 1.13 32.26 1.13L32.26 1.13C32.53 1.06 32.8 1 33.08 0.94C33.08 0.94 33.08 0.94 33.08 0.94C33.1 0.94 33.12 0.93 33.14 0.93C33.14 0.93 33.14 0.93 33.14 0.93C33.15 0.93 33.16 0.93 33.17 0.92C33.17 0.92 33.17 0.92 33.17 0.92C33.18 0.92 33.19 0.92 33.2 0.92C33.2 0.92 33.21 0.92 33.21 0.92C33.22 0.91 33.22 0.91 33.23 0.91C33.23 0.91 33.24 0.91 33.24 0.91C33.25 0.91 33.25 0.91 33.26 0.91C33.26 0.91 33.27 0.91 33.27 0.9C33.28 0.9 33.28 0.9 33.29 0.9C33.29 0.9 33.3 0.9 33.3 0.9C33.31 0.9 33.31 0.9 33.31 0.9C33.53 0.84 33.76 0.8 33.98 0.76L33.98 0.76ZM37.94 0.19L39.83 20.1C39.48 20.13 39.13 20.17 38.79 20.22L35.95 0.43C36.12 0.4 36.29 0.38 36.45 0.36L36.45 0.36C36.46 0.36 36.47 0.35 36.48 0.35C36.49 0.35 36.49 0.35 36.49 0.35C36.5 0.35 36.51 0.35 36.51 0.35C36.52 0.35 36.52 0.35 36.53 0.35C36.53 0.35 36.54 0.35 36.54 0.34C36.55 0.34 36.56 0.34 36.56 0.34C36.57 0.34 36.57 0.34 36.57 0.34C36.58 0.34 36.59 0.34 36.6 0.34C36.6 0.34 36.6 0.34 36.6 0.34C36.61 0.34 36.62 0.34 36.63 0.34C36.63 0.34 36.63 0.34 36.63 0.34C36.64 0.33 36.65 0.33 36.66 0.33L36.66 0.33C36.96 0.29 37.26 0.26 37.56 0.23L37.56 0.23C37.57 0.23 37.57 0.23 37.58 0.23C37.58 0.23 37.59 0.23 37.59 0.23C37.6 0.23 37.6 0.22 37.61 0.22C37.61 0.22 37.62 0.22 37.63 0.22C37.63 0.22 37.63 0.22 37.64 0.22C37.64 0.22 37.65 0.22 37.66 0.22C37.66 0.22 37.66 0.22 37.67 0.22C37.76 0.21 37.85 0.2 37.94 0.19L37.94 0.19ZM41.93 0L41.93 20C41.58 20 41.22 20.01 40.87 20.02L39.93 0.05C40.34 0.03 40.74 0.01 41.15 0.01L41.15 0.01C41.16 0.01 41.17 0.01 41.17 0.01C41.17 0.01 41.18 0.01 41.18 0.01C41.19 0.01 41.2 0.01 41.2 0.01C41.21 0.01 41.21 0.01 41.21 0.01C41.22 0.01 41.23 0.01 41.24 0.01C41.24 0.01 41.24 0.01 41.24 0.01C41.25 0.01 41.26 0.01 41.27 0.01C41.27 0.01 41.27 0.01 41.28 0.01C41.28 0.01 41.29 0.01 41.3 0.01C41.3 0.01 41.31 0.01 41.31 0.01C41.32 0.01 41.32 0.01 41.33 0.01C41.34 0.01 41.34 0.01 41.34 0.01C41.35 0.01 41.36 0.01 41.36 0.01C41.36 0.01 41.37 0.01 41.37 0.01C41.38 0.01 41.39 0.01 41.39 0.01C41.4 0.01 41.4 0.01 41.4 0.01C41.41 0.01 41.42 0.01 41.43 0.01C41.43 0.01 41.43 0.01 41.44 0.01C41.45 0.01 41.45 0.01 41.46 0.01C41.46 0.01 41.46 0.01 41.46 0.01C41.48 0.01 41.49 0.01 41.51 0.01C41.51 0.01 41.52 0.01 41.52 0.01C41.53 0.01 41.53 0.01 41.54 0.01C41.54 0.01 41.55 0.01 41.55 0.01C41.56 0.01 41.56 0.01 41.57 0.01C41.57 0.01 41.58 0.01 41.59 0.01C41.59 0.01 41.6 0.01 41.6 0.01C41.61 0.01 41.61 0.01 41.62 0.01C41.62 0.01 41.63 0.01 41.63 0.01C41.64 0.01 41.64 0.01 41.65 0.01C41.66 0.01 41.66 0.01 41.67 0.01C41.67 0.01 41.68 0.01 41.69 0.01C41.69 0.01 41.7 0.01 41.7 0.01C41.7 0.01 41.71 0.01 41.72 0.01C41.72 0.01 41.73 0.01 41.73 0.01C41.74 0.01 41.75 0.01 41.75 0.01C41.76 0.01 41.76 0.01 41.77 0.01C41.77 0.01 41.78 0.01 41.78 0.01C41.79 0.01 41.79 0.01 41.8 0.01C41.81 0.01 41.81 0.01 41.82 0.01C41.82 0.01 41.83 0.01 41.83 0.01C41.84 0.01 41.84 0.01 41.85 0.01C41.86 0.01 41.86 0.01 41.86 0.01C41.87 0.01 41.88 0.01 41.89 0.01C41.89 0.01 41.89 0.01 41.9 0.01C41.91 0 41.92 0 41.93 0L41.93 0Z" />
		</g>
		<g id="g10">
			<path id="path8" fill-rule="evenodd" class="shp2" d="M83.62 41.7C83.62 64.72 64.95 83.38 41.93 83.38C18.89 83.38 0.23 64.72 0.23 41.7C0.23 18.66 18.9 0 41.93 0C64.95 0 83.62 18.66 83.62 41.7ZM41.93 2C20.04 2 2.23 19.81 2.23 41.7C2.23 63.58 20.04 81.38 41.93 81.38C63.81 81.38 81.62 63.58 81.62 41.7C81.61 19.81 63.81 2 41.93 2Z" />
		</g>
		<g id="g14" style="opacity: 0.059">
			<path id="path12" class="shp3" d="M5.91 41.7C5.91 61.58 22.03 77.71 41.93 77.71C61.81 77.71 77.94 61.58 77.94 41.7C77.94 21.81 61.81 5.68 41.93 5.68C22.03 5.68 5.91 21.8 5.91 41.7Z" />
		</g>
		<g id="g20">
			<path id="path16" class="shp4" d="M41.93 69.83C57.44 69.83 70.05 57.21 70.05 41.7C70.05 26.2 57.44 13.58 41.93 13.58C26.42 13.58 13.8 26.2 13.8 41.7C13.8 57.21 26.42 69.83 41.93 69.83Z" />
			<path id="path18" fill-rule="evenodd" class="shp0" d="M73.05 41.7C73.05 58.89 59.13 72.83 41.93 72.83C24.73 72.83 10.8 58.89 10.8 41.7C10.8 24.51 24.73 10.58 41.93 10.58C59.13 10.58 73.05 24.51 73.05 41.7ZM41.93 16.58C28.08 16.58 16.8 27.85 16.8 41.7C16.8 55.56 28.07 66.83 41.93 66.83C55.78 66.83 67.05 55.56 67.05 41.7C67.05 27.85 55.78 16.58 41.93 16.58Z" />
		</g>
	</g>
	<g id="LS_pressed">
		<g id="g28">
			<path id="path24" class="shp5" d="M85.61 41.7C85.61 64.72 104.28 83.38 127.31 83.38C150.34 83.38 169 64.72 169 41.7C169 18.66 150.34 0 127.31 0C104.28 0 85.61 18.66 85.61 41.7Z" />
			<path id="path26" class="shp6" d="M127.31 0C127.33 0 127.34 0 127.35 0C127.35 0 127.35 0 127.36 0C127.37 0 127.37 0 127.38 0C127.39 0 127.39 0 127.39 0C127.4 0 127.41 0 127.41 0C127.42 0 127.42 0 127.43 0C127.43 0 127.44 0 127.45 0C127.45 0 127.46 0 127.46 0C127.47 0 127.47 0 127.48 0C127.48 0 127.49 0 127.49 0C127.5 0 127.51 0 127.51 0C127.52 0 127.52 0 127.53 0C127.53 0 127.54 0 127.55 0C127.55 0 127.55 0 127.56 0C127.57 0 127.57 0 127.58 0C127.58 0 127.59 0 127.59 0C127.6 0 127.6 0 127.61 0C127.62 0 127.62 0 127.63 0C127.63 0 127.64 0 127.64 0C127.65 0 127.65 0 127.66 0C127.66 0 127.67 0 127.68 0C127.68 0 127.69 0 127.69 0C127.7 0 127.71 0 127.71 0C127.72 0 127.72 0 127.73 0C127.73 0 127.74 0 127.75 0C127.75 0 127.75 0 127.76 0C127.77 0 127.78 0 127.79 0C127.79 0 127.8 0 127.8 0C127.81 0 127.81 0 127.82 0C127.83 0 127.83 0 127.84 0C127.84 0 127.85 0 127.85 0C127.86 0 127.87 0 127.87 0C127.88 0 127.88 0 127.89 0C127.89 0 127.9 0 127.91 0C127.91 0 127.91 0 127.92 0C127.93 0 127.93 0 127.94 0C127.94 0 127.95 0 127.95 0C127.96 0 127.97 0 127.97 0C127.98 0 127.98 0 127.99 0C127.99 0 128 0 128 0C128.01 0 128.01 0 128.02 0C128.02 0 128.03 0 128.04 0C128.04 0 128.05 0 128.05 0C128.06 0 128.06 0 128.07 0C128.07 0 128.08 0 128.08 0C128.09 0 128.1 0 128.1 0C128.11 0 128.11 0 128.11 0C128.12 0 128.13 0 128.14 0C128.14 0 128.14 0 128.14 0C128.15 0 128.16 0 128.17 0C128.17 0 128.17 0 128.17 0C128.22 0 128.27 0 128.32 0C128.32 0 128.32 0 128.33 0C128.33 0 128.34 0 128.35 0C128.35 0 128.36 0 128.36 0C128.37 0 128.38 0 128.38 0C128.39 0 128.39 0 128.39 0C128.4 0 128.41 0 128.42 0.01C128.42 0.01 128.42 0.01 128.42 0.01C128.43 0.01 128.44 0.01 128.45 0.01C128.45 0.01 128.45 0.01 128.45 0.01C128.46 0.01 128.47 0.01 128.48 0.01L128.48 0.01C128.49 0.01 128.5 0.01 128.51 0.01L128.51 0.01C128.53 0.01 128.55 0.01 128.57 0.01L128.57 0.01C128.82 0.02 129.07 0.03 129.32 0.04L128.38 20.02C128.02 20.01 127.67 20 127.31 20L127.31 0L127.31 0L127.31 0ZM131.31 0.19C131.37 0.19 131.42 0.2 131.48 0.21L131.48 0.21C131.49 0.21 131.5 0.21 131.51 0.21C131.51 0.21 131.51 0.21 131.52 0.21C131.52 0.21 131.53 0.21 131.54 0.21C131.54 0.21 131.55 0.21 131.55 0.21C131.56 0.21 131.56 0.21 131.57 0.21C131.57 0.21 131.58 0.22 131.59 0.22C131.59 0.22 131.59 0.22 131.59 0.22C131.6 0.22 131.61 0.22 131.62 0.22L131.62 0.22C132.18 0.28 132.74 0.35 133.3 0.43L130.45 20.22C130.11 20.17 129.76 20.13 129.42 20.1L131.31 0.19L131.31 0.19ZM135.27 0.76C135.3 0.76 135.33 0.77 135.36 0.78C135.36 0.78 135.36 0.78 135.36 0.78C135.37 0.78 135.38 0.78 135.39 0.78C135.39 0.78 135.39 0.78 135.39 0.78C135.4 0.78 135.41 0.79 135.42 0.79C135.42 0.79 135.42 0.79 135.42 0.79C135.43 0.79 135.44 0.79 135.45 0.79C135.45 0.79 135.45 0.79 135.46 0.79C135.46 0.8 135.47 0.8 135.48 0.8C135.48 0.8 135.48 0.8 135.49 0.8C135.49 0.8 135.5 0.8 135.51 0.8C135.51 0.8 135.52 0.81 135.52 0.81C135.53 0.81 135.53 0.81 135.54 0.81C135.54 0.81 135.55 0.81 135.55 0.81C135.56 0.81 135.56 0.81 135.57 0.82C135.57 0.82 135.58 0.82 135.58 0.82C135.59 0.82 135.59 0.82 135.6 0.82C135.6 0.82 135.61 0.82 135.62 0.82C135.62 0.83 135.62 0.83 135.63 0.83C135.64 0.83 135.64 0.83 135.65 0.83C135.65 0.83 135.66 0.83 135.66 0.83C135.67 0.83 135.67 0.84 135.68 0.84C135.68 0.84 135.69 0.84 135.69 0.84C135.7 0.84 135.71 0.84 135.71 0.84C135.72 0.84 135.72 0.84 135.72 0.84C135.73 0.85 135.74 0.85 135.75 0.85C135.75 0.85 135.75 0.85 135.75 0.85C135.76 0.85 135.77 0.85 135.78 0.86L135.78 0.86C136.27 0.96 136.75 1.06 137.22 1.18L132.49 20.61C132.15 20.53 131.81 20.45 131.48 20.39L135.27 0.76L135.27 0.76ZM139.15 1.71C139.42 1.79 139.69 1.87 139.96 1.95L139.96 1.95C139.98 1.96 140 1.96 140.02 1.97L140.02 1.97C140.04 1.98 140.06 1.98 140.07 1.99C140.07 1.99 140.08 1.99 140.08 1.99C140.09 1.99 140.11 2 140.13 2.01C140.44 2.11 140.75 2.21 141.06 2.32L134.47 21.2C134.14 21.09 133.81 20.98 133.48 20.89L139.15 1.71L139.15 1.71ZM142.93 3.02C143.55 3.27 144.16 3.54 144.76 3.82L136.38 21.97C136.07 21.83 135.75 21.69 135.43 21.56L142.93 3.02L142.93 3.02ZM146.56 4.7C147.15 5.01 147.73 5.33 148.31 5.67L138.22 22.93C137.92 22.76 137.62 22.59 137.31 22.43L146.56 4.7L146.56 4.7ZM150.01 6.71C150.57 7.08 151.12 7.46 151.66 7.84L139.97 24.07C139.68 23.87 139.4 23.67 139.1 23.48L150.01 6.71L150.01 6.71ZM153.25 9.05C153.78 9.47 154.29 9.9 154.79 10.34L141.6 25.37C141.34 25.14 141.07 24.92 140.8 24.7L153.25 9.05L153.25 9.05ZM156.26 11.69C156.54 11.96 156.82 12.24 157.1 12.53C157.1 12.53 157.1 12.53 157.1 12.53C157.11 12.53 157.12 12.54 157.12 12.55C157.13 12.55 157.13 12.55 157.13 12.55C157.13 12.56 157.14 12.56 157.14 12.57C157.15 12.57 157.15 12.57 157.15 12.58C157.16 12.58 157.16 12.59 157.16 12.59C157.17 12.59 157.17 12.6 157.18 12.6C157.18 12.6 157.18 12.61 157.19 12.61C157.19 12.62 157.2 12.62 157.2 12.63C157.2 12.63 157.2 12.63 157.21 12.63C157.21 12.64 157.22 12.65 157.23 12.65C157.23 12.65 157.23 12.65 157.23 12.66C157.38 12.81 157.52 12.96 157.66 13.11L143.1 26.82C142.87 26.57 142.62 26.32 142.37 26.08L156.26 11.69L156.26 11.69ZM159 14.6C159 14.6 159.01 14.61 159.01 14.61C159.01 14.61 159.02 14.62 159.02 14.62C159.02 14.63 159.03 14.63 159.03 14.63C159.03 14.64 159.04 14.64 159.04 14.65C159.04 14.65 159.05 14.66 159.05 14.66C159.06 14.66 159.06 14.67 159.06 14.67C159.06 14.68 159.07 14.68 159.07 14.68C159.07 14.69 159.08 14.69 159.08 14.7C159.08 14.7 159.09 14.7 159.09 14.71C159.09 14.71 159.1 14.72 159.1 14.72C159.1 14.72 159.11 14.73 159.11 14.73C159.11 14.73 159.12 14.74 159.12 14.74C159.12 14.75 159.13 14.75 159.13 14.75C159.13 14.76 159.14 14.76 159.14 14.77L159.14 14.77C159.52 15.22 159.89 15.67 160.25 16.13C160.25 16.14 160.26 16.14 160.26 16.15L144.46 28.41C144.25 28.14 144.03 27.87 143.8 27.6L159 14.6L159 14.6ZM161.45 17.76C161.5 17.84 161.56 17.91 161.61 17.99C161.61 17.99 161.61 17.99 161.61 17.99C161.62 18 161.62 18 161.62 18.01C161.63 18.01 161.63 18.02 161.63 18.02C161.63 18.02 161.64 18.03 161.64 18.03C161.96 18.49 162.26 18.95 162.56 19.42L145.66 30.12C145.48 29.83 145.28 29.53 145.08 29.25L161.45 17.76L161.45 17.76ZM163.59 21.14C163.74 21.41 163.89 21.68 164.04 21.95C164.04 21.96 164.04 21.96 164.04 21.96C164.04 21.96 164.05 21.96 164.05 21.97C164.21 22.28 164.38 22.59 164.53 22.9L146.69 31.92C146.53 31.62 146.37 31.31 146.19 31.01L163.59 21.14L163.59 21.14ZM165.39 24.71C165.46 24.86 165.53 25.01 165.59 25.16L165.59 25.16C165.6 25.18 165.61 25.2 165.62 25.22L165.62 25.22C165.63 25.24 165.64 25.26 165.64 25.28L165.64 25.28C165.82 25.7 166 26.12 166.16 26.55L147.53 33.81C147.41 33.49 147.27 33.17 147.13 32.86L165.39 24.71L165.39 24.71ZM166.85 28.43C166.94 28.7 167.02 28.97 167.11 29.24C167.11 29.24 167.11 29.24 167.11 29.25C167.11 29.25 167.11 29.26 167.12 29.27C167.12 29.27 167.12 29.27 167.12 29.28C167.12 29.28 167.12 29.29 167.13 29.3C167.13 29.3 167.13 29.3 167.13 29.31C167.13 29.31 167.13 29.32 167.13 29.33C167.14 29.33 167.14 29.33 167.14 29.34C167.14 29.34 167.14 29.35 167.14 29.36C167.15 29.36 167.15 29.36 167.15 29.37C167.15 29.37 167.15 29.38 167.15 29.39C167.15 29.39 167.16 29.4 167.16 29.4C167.16 29.4 167.16 29.41 167.16 29.42C167.16 29.42 167.16 29.43 167.16 29.43C167.17 29.43 167.17 29.44 167.17 29.45C167.17 29.45 167.17 29.46 167.17 29.46C167.18 29.47 167.18 29.47 167.18 29.48C167.18 29.48 167.18 29.49 167.18 29.49C167.19 29.5 167.19 29.51 167.19 29.51C167.19 29.51 167.19 29.52 167.19 29.52C167.19 29.53 167.2 29.53 167.2 29.54C167.2 29.54 167.2 29.55 167.2 29.55C167.2 29.56 167.21 29.57 167.21 29.57C167.21 29.57 167.21 29.58 167.21 29.58C167.21 29.59 167.21 29.59 167.22 29.6C167.22 29.6 167.22 29.61 167.22 29.61C167.22 29.62 167.22 29.63 167.22 29.63C167.22 29.63 167.23 29.64 167.23 29.64C167.23 29.65 167.23 29.66 167.23 29.66C167.23 29.66 167.23 29.67 167.23 29.67C167.24 29.68 167.24 29.69 167.24 29.69C167.24 29.69 167.24 29.7 167.24 29.7C167.25 29.71 167.25 29.72 167.25 29.72C167.25 29.72 167.25 29.73 167.25 29.73C167.26 29.74 167.26 29.74 167.26 29.75C167.26 29.76 167.26 29.76 167.26 29.76C167.26 29.77 167.27 29.77 167.27 29.78C167.27 29.79 167.27 29.79 167.27 29.79C167.32 29.97 167.38 30.15 167.43 30.34L148.18 35.77C148.09 35.44 147.99 35.11 147.88 34.78L166.85 28.43L166.85 28.43ZM167.93 32.28C168.05 32.81 168.16 33.34 168.27 33.87C168.29 34 168.31 34.12 168.34 34.24L148.65 37.79C148.59 37.45 148.52 37.11 148.44 36.78L167.93 32.28L167.93 32.28ZM168.64 36.22C168.7 36.64 168.75 37.07 168.79 37.5C168.79 37.5 168.79 37.5 168.79 37.51C168.79 37.51 168.79 37.52 168.79 37.53C168.79 37.53 168.79 37.54 168.79 37.54C168.79 37.55 168.79 37.55 168.79 37.56C168.79 37.56 168.8 37.57 168.8 37.58C168.8 37.58 168.8 37.58 168.8 37.59C168.8 37.59 168.8 37.6 168.8 37.61L168.8 37.61C168.82 37.81 168.84 38.01 168.85 38.2L148.92 39.86C148.89 39.51 148.85 39.16 148.81 38.82L168.64 36.22L168.64 36.22ZM168.97 40.2C168.99 40.52 168.99 40.84 169 41.16C169 41.16 169 41.16 169 41.17C169 41.18 169 41.19 169 41.2C169 41.2 169 41.2 169 41.2C169 41.22 169 41.24 169 41.26C169 41.26 169 41.26 169 41.27C169 41.28 169 41.28 169 41.29C169 41.3 169 41.3 169 41.31C169 41.32 169 41.33 169 41.34C169 41.35 169 41.36 169 41.37C169 41.37 169 41.38 169 41.39C169 41.39 169 41.4 169 41.41C169 41.42 169 41.42 169 41.43C169 41.44 169 41.45 169 41.46C169 41.46 169 41.47 169 41.48C169 41.49 169 41.5 169 41.51C169 41.51 169 41.52 169 41.52C169 41.53 169 41.54 169 41.55C169 41.56 169 41.56 169 41.57C169 41.58 169 41.59 169 41.61C169 41.61 169 41.61 169 41.62C169 41.63 169 41.64 169 41.65C169 41.65 169 41.66 169 41.66C169 41.68 169 41.69 169 41.7L169 41.7L169 41.7C169 41.71 169 41.72 169 41.74C169 41.74 169 41.75 169 41.75C169 41.76 169 41.76 169 41.77C169 41.78 169 41.79 169 41.8L169 41.8C169 41.93 169 42.07 168.99 42.2L149 41.97L149 41.7C149 41.44 149 41.17 148.99 40.91L168.97 40.2L168.97 40.2ZM148.96 43.02L168.93 44.2C168.89 44.77 168.85 45.34 168.79 45.9C168.79 45.9 168.79 45.9 168.79 45.9C168.79 45.91 168.79 45.92 168.79 45.93C168.79 45.93 168.79 45.93 168.79 45.94C168.79 45.94 168.79 45.95 168.79 45.96C168.79 45.96 168.78 45.97 168.78 45.97C168.78 45.98 168.78 45.98 168.78 45.98C168.78 45.99 168.78 46 168.78 46.01C168.78 46.01 168.78 46.01 168.78 46.01C168.78 46.07 168.77 46.13 168.76 46.19L148.88 44.06C148.91 43.72 148.94 43.37 148.96 43.02L148.96 43.02ZM148.74 45.09L168.5 48.17C168.5 48.19 168.5 48.2 168.5 48.21C168.5 48.21 168.49 48.22 168.49 48.22C168.49 48.23 168.49 48.23 168.49 48.24C168.49 48.25 168.49 48.25 168.49 48.26C168.49 48.26 168.49 48.27 168.49 48.27C168.49 48.28 168.48 48.29 168.48 48.3C168.48 48.3 168.48 48.3 168.48 48.3C168.4 48.83 168.31 49.35 168.2 49.87C168.2 49.87 168.2 49.87 168.2 49.87C168.2 49.88 168.2 49.89 168.2 49.89C168.2 49.9 168.19 49.9 168.19 49.91C168.19 49.91 168.19 49.92 168.19 49.92C168.19 49.93 168.19 49.94 168.19 49.94C168.19 49.94 168.19 49.95 168.19 49.95C168.19 49.96 168.18 49.97 168.18 49.98C168.18 49.98 168.18 49.98 168.18 49.98C168.17 50.03 168.16 50.09 168.15 50.14L148.56 46.12C148.62 45.78 148.69 45.44 148.74 45.09L148.74 45.09ZM148.32 47.12L167.69 52.09C167.53 52.74 167.35 53.38 167.15 54.02L148.04 48.12C148.14 47.79 148.24 47.45 148.32 47.12L148.32 47.12ZM147.71 49.09L166.51 55.91C166.29 56.54 166.04 57.16 165.79 57.78L147.34 50.06C147.47 49.74 147.6 49.42 147.71 49.09L147.71 49.09ZM146.91 51L164.97 59.6C164.94 59.67 164.9 59.75 164.87 59.82C164.87 59.82 164.87 59.83 164.86 59.83C164.86 59.83 164.86 59.84 164.86 59.84C164.86 59.85 164.85 59.85 164.85 59.86C164.85 59.86 164.85 59.86 164.85 59.86C164.67 60.23 164.49 60.59 164.3 60.96L164.3 60.96C164.29 60.97 164.29 60.98 164.28 60.98C164.28 60.98 164.28 60.99 164.28 60.99C164.28 60.99 164.27 61 164.27 61.01C164.27 61.01 164.27 61.02 164.26 61.02C164.26 61.02 164.26 61.03 164.26 61.03C164.25 61.04 164.25 61.04 164.25 61.05C164.25 61.05 164.25 61.05 164.24 61.06C164.19 61.17 164.13 61.28 164.07 61.39L146.45 51.93C146.61 51.62 146.77 51.31 146.91 51L146.91 51ZM145.93 52.83L163.08 63.13C162.99 63.29 162.89 63.45 162.79 63.6L162.79 63.61C162.78 63.61 162.78 63.62 162.78 63.63C162.78 63.63 162.77 63.63 162.77 63.63C162.77 63.64 162.77 63.64 162.76 63.65C162.76 63.65 162.76 63.66 162.75 63.66C162.75 63.66 162.75 63.66 162.75 63.67C162.51 64.05 162.26 64.44 162.01 64.81L145.38 53.71C145.57 53.42 145.76 53.13 145.93 52.83L145.93 52.83ZM144.78 54.56L160.86 66.45C160.79 66.55 160.71 66.65 160.64 66.75L160.64 66.75C160.63 66.76 160.63 66.77 160.62 66.77L160.62 66.78C160.61 66.78 160.61 66.79 160.6 66.8C160.6 66.8 160.6 66.8 160.6 66.8C160.59 66.81 160.59 66.82 160.58 66.82C160.58 66.82 160.58 66.82 160.58 66.83C160.57 66.83 160.57 66.84 160.56 66.85C160.56 66.85 160.56 66.85 160.56 66.85C160.55 66.86 160.55 66.86 160.54 66.87C160.54 66.87 160.54 66.88 160.54 66.88C160.53 66.88 160.53 66.89 160.53 66.89C160.53 66.9 160.52 66.9 160.52 66.9C160.52 66.91 160.51 66.91 160.51 66.92C160.51 66.92 160.5 66.93 160.5 66.93C160.5 66.93 160.49 66.94 160.49 66.94C160.49 66.95 160.48 66.95 160.48 66.96C160.48 66.96 160.47 66.96 160.47 66.97C160.47 66.97 160.47 66.98 160.46 66.98C160.46 66.99 160.46 66.99 160.45 66.99C160.45 67 160.44 67 160.44 67.01C160.44 67.01 160.44 67.02 160.43 67.02C160.43 67.02 160.43 67.03 160.42 67.04C160.42 67.04 160.42 67.04 160.41 67.04C160.41 67.05 160.41 67.06 160.4 67.06C160.4 67.06 160.4 67.07 160.4 67.07C160.39 67.07 160.39 67.08 160.38 67.09C160.38 67.09 160.38 67.09 160.38 67.09C160.37 67.1 160.37 67.11 160.36 67.11C160.36 67.11 160.36 67.11 160.36 67.12C160.35 67.12 160.35 67.13 160.34 67.14C160.34 67.14 160.34 67.14 160.34 67.14C160.11 67.44 159.88 67.74 159.64 68.03L144.14 55.39C144.36 55.12 144.57 54.84 144.78 54.56L144.78 54.56ZM143.46 56.18L158.33 69.55C157.89 70.04 157.43 70.53 156.96 71L142.74 56.94C142.98 56.7 143.22 56.44 143.46 56.18L143.46 56.18ZM141.99 57.67L155.52 72.39C155.27 72.62 155.02 72.85 154.76 73.08C154.76 73.08 154.76 73.08 154.76 73.08C154.75 73.08 154.75 73.09 154.74 73.09C154.74 73.09 154.74 73.1 154.73 73.1C154.73 73.1 154.73 73.1 154.72 73.11C154.72 73.11 154.71 73.12 154.71 73.12C154.71 73.12 154.71 73.12 154.7 73.12C154.7 73.13 154.69 73.13 154.68 73.14L154.68 73.14C154.46 73.33 154.24 73.52 154.02 73.71L141.2 58.36C141.47 58.14 141.73 57.91 141.99 57.67L141.99 57.67ZM140.38 59.01L152.45 74.95C152.15 75.19 151.84 75.42 151.52 75.64C151.29 75.8 151.06 75.97 150.83 76.12L139.54 59.62C139.82 59.42 140.11 59.22 140.38 59.01L140.38 59.01ZM138.66 60.19L149.15 77.21C149.12 77.23 149.09 77.25 149.05 77.28C149.05 77.28 149.05 77.28 149.05 77.28C149.04 77.28 149.03 77.29 149.03 77.29C149.02 77.29 149.02 77.29 149.02 77.3C149.01 77.3 149.01 77.3 149 77.3C149 77.31 148.99 77.31 148.99 77.31C148.99 77.32 148.98 77.32 148.98 77.32C148.48 77.62 147.97 77.92 147.46 78.2C147.46 78.2 147.46 78.2 147.46 78.2C147.45 78.21 147.45 78.21 147.44 78.21C147.44 78.21 147.43 78.22 147.43 78.22C147.43 78.22 147.43 78.22 147.43 78.22L137.76 60.71C138.07 60.54 138.37 60.37 138.66 60.19L138.66 60.19ZM136.84 61.19L145.65 79.14C145.54 79.2 145.43 79.25 145.32 79.31L145.31 79.31C145.31 79.31 145.3 79.32 145.29 79.32C145.29 79.32 145.29 79.32 145.29 79.32C145.28 79.33 145.27 79.33 145.26 79.33C145.26 79.33 145.26 79.34 145.25 79.34C145.25 79.34 145.24 79.34 145.24 79.34C145.23 79.35 145.23 79.35 145.22 79.35C145.22 79.35 145.22 79.36 145.21 79.36C145.21 79.36 145.2 79.36 145.19 79.37C145.19 79.37 145.19 79.37 145.18 79.37C145.18 79.37 145.17 79.38 145.16 79.38C145.16 79.38 145.16 79.38 145.16 79.38C145.15 79.39 145.14 79.39 145.13 79.39C145.13 79.39 145.13 79.4 145.13 79.4C145.12 79.4 145.11 79.4 145.1 79.41C145.1 79.41 145.1 79.41 145.1 79.41C144.68 79.61 144.26 79.8 143.84 79.98L135.9 61.62C136.22 61.49 136.54 61.34 136.84 61.19L136.84 61.19ZM134.94 62.01L141.98 80.73C141.36 80.96 140.73 81.18 140.09 81.39L133.97 62.35C134.3 62.24 134.62 62.13 134.94 62.01L134.94 62.01ZM132.98 62.64L138.18 81.96C138.1 81.98 138.02 82 137.94 82.02L137.94 82.02C137.93 82.02 137.92 82.02 137.91 82.03C137.91 82.03 137.91 82.03 137.9 82.03C137.9 82.03 137.89 82.03 137.88 82.03C137.88 82.03 137.87 82.04 137.87 82.04C137.86 82.04 137.86 82.04 137.85 82.04C137.84 82.04 137.84 82.04 137.84 82.04C137.83 82.04 137.83 82.05 137.82 82.05C137.81 82.05 137.81 82.05 137.8 82.05C137.8 82.05 137.79 82.05 137.79 82.06C137.78 82.06 137.78 82.06 137.77 82.06C137.77 82.06 137.76 82.06 137.76 82.06C137.75 82.06 137.75 82.07 137.74 82.07C137.73 82.07 137.73 82.07 137.73 82.07C137.23 82.2 136.74 82.32 136.23 82.43L131.97 62.88C132.31 62.81 132.65 62.73 132.98 62.64L132.98 62.64ZM130.96 63.08L134.27 82.81C133.77 82.89 133.26 82.97 132.76 83.03C132.6 83.05 132.44 83.07 132.29 83.09L129.93 63.23C130.27 63.19 130.62 63.14 130.96 63.08L130.96 63.08ZM128.89 63.33L130.3 83.28C130.16 83.29 130.03 83.3 129.89 83.3C129.89 83.3 129.88 83.31 129.88 83.31C129.87 83.31 129.87 83.31 129.86 83.31C129.85 83.31 129.85 83.31 129.84 83.31C129.84 83.31 129.83 83.31 129.83 83.31C129.82 83.31 129.81 83.31 129.81 83.31C129.81 83.31 129.8 83.31 129.8 83.31C129.48 83.33 129.16 83.34 128.84 83.35C128.84 83.35 128.84 83.35 128.83 83.35C128.83 83.35 128.82 83.35 128.81 83.36C128.81 83.36 128.8 83.36 128.8 83.36C128.79 83.36 128.79 83.36 128.78 83.36C128.78 83.36 128.77 83.36 128.76 83.36C128.76 83.36 128.76 83.36 128.75 83.36C128.75 83.36 128.74 83.36 128.73 83.36C128.73 83.36 128.72 83.36 128.72 83.36C128.58 83.36 128.44 83.37 128.3 83.37L127.84 63.37C128.19 63.37 128.54 63.35 128.89 63.33L128.89 63.33ZM125.73 63.33C126.07 63.35 126.43 63.37 126.78 63.38L126.3 83.37C126.11 83.37 125.93 83.36 125.74 83.36C125.72 83.36 125.7 83.35 125.68 83.35C125.68 83.35 125.68 83.35 125.67 83.35C125.67 83.35 125.66 83.35 125.65 83.35C125.65 83.35 125.65 83.35 125.64 83.35C125.63 83.35 125.62 83.35 125.61 83.35L125.61 83.35C125.22 83.33 124.82 83.31 124.43 83.29C124.43 83.29 124.43 83.29 124.43 83.29C124.41 83.29 124.39 83.29 124.37 83.28C124.37 83.28 124.37 83.28 124.37 83.28C124.36 83.28 124.34 83.28 124.34 83.28L124.33 83.28C124.32 83.28 124.31 83.28 124.3 83.28L124.3 83.28L125.73 63.33L125.73 63.33ZM123.66 63.08C124 63.14 124.34 63.19 124.69 63.23L122.31 83.09C121.7 83.02 121.09 82.93 120.48 82.83C120.48 82.83 120.48 82.83 120.48 82.83C120.47 82.83 120.46 82.83 120.45 82.82C120.45 82.82 120.44 82.82 120.44 82.82C120.44 82.82 120.43 82.82 120.42 82.82C120.42 82.82 120.41 82.82 120.41 82.82C120.4 82.82 120.4 82.81 120.39 82.81C120.39 82.81 120.38 82.81 120.38 82.81C120.37 82.81 120.36 82.81 120.36 82.81C120.35 82.81 120.35 82.81 120.34 82.81C120.34 82.81 120.34 82.81 120.34 82.8L123.66 63.08L123.66 63.08ZM121.63 62.64C121.96 62.73 122.3 62.81 122.64 62.88L118.37 82.42C118.3 82.41 118.22 82.39 118.15 82.38C118.15 82.38 118.15 82.38 118.15 82.38C118.14 82.37 118.13 82.37 118.12 82.37C118.12 82.37 118.11 82.37 118.11 82.37C118.1 82.37 118.1 82.36 118.09 82.36C118.08 82.36 118.08 82.36 118.07 82.36C118.07 82.36 118.06 82.36 118.06 82.36C118.05 82.35 118.05 82.35 118.04 82.35C118.04 82.35 118.03 82.35 118.03 82.35C118.02 82.35 118.01 82.35 118.01 82.34C118 82.34 118 82.34 118 82.34C117.99 82.34 117.98 82.34 117.97 82.34C117.97 82.34 117.97 82.34 117.97 82.34C117.96 82.33 117.95 82.33 117.94 82.33C117.94 82.33 117.94 82.33 117.94 82.33C117.69 82.27 117.44 82.21 117.18 82.15L117.18 82.15C117.17 82.15 117.16 82.14 117.16 82.14C117.16 82.14 117.15 82.14 117.15 82.14C117.14 82.14 117.13 82.14 117.13 82.13C117.12 82.13 117.12 82.13 117.12 82.13C117.11 82.13 117.1 82.13 117.1 82.13C117.09 82.13 117.09 82.13 117.09 82.13C117.08 82.12 117.07 82.12 117.07 82.12C117.06 82.12 117.06 82.12 117.06 82.12C117.05 82.12 117.04 82.11 117.04 82.11C117.04 82.11 117.03 82.11 117.03 82.11C117.02 82.11 117.01 82.11 117.01 82.1C117 82.1 117 82.1 117 82.1C116.99 82.1 116.98 82.1 116.98 82.1C116.97 82.1 116.97 82.1 116.97 82.1C116.96 82.09 116.95 82.09 116.95 82.09C116.94 82.09 116.94 82.09 116.94 82.09C116.93 82.09 116.92 82.08 116.91 82.08C116.91 82.08 116.91 82.08 116.91 82.08C116.9 82.08 116.89 82.08 116.88 82.07C116.88 82.07 116.88 82.07 116.88 82.07C116.87 82.07 116.86 82.07 116.85 82.07C116.85 82.07 116.85 82.07 116.85 82.07C116.84 82.06 116.83 82.06 116.82 82.06L116.82 82.06C116.69 82.03 116.56 81.99 116.43 81.96L121.63 62.64L121.63 62.64ZM119.66 62.01C119.99 62.13 120.31 62.24 120.64 62.35L114.51 81.38C114.2 81.28 113.89 81.18 113.59 81.07C113.59 81.07 113.59 81.07 113.59 81.07C113.58 81.07 113.57 81.07 113.56 81.06C113.56 81.06 113.56 81.06 113.56 81.06C113.55 81.06 113.54 81.06 113.53 81.06C113.53 81.05 113.53 81.05 113.53 81.05C113.52 81.05 113.51 81.05 113.51 81.05C113.5 81.04 113.5 81.04 113.49 81.04C113.49 81.04 113.48 81.04 113.48 81.04C113.47 81.03 113.47 81.03 113.46 81.03C113.46 81.03 113.45 81.03 113.45 81.03C113.44 81.02 113.44 81.02 113.43 81.02C113.43 81.02 113.43 81.02 113.42 81.02C113.42 81.01 113.41 81.01 113.4 81.01C113.4 81.01 113.4 81.01 113.4 81.01C113.14 80.91 112.88 80.82 112.62 80.72L119.66 62.01L119.66 62.01ZM117.77 61.18C118.07 61.34 118.39 61.48 118.71 61.62L110.77 79.97C110.42 79.82 110.07 79.67 109.72 79.5C109.72 79.5 109.72 79.5 109.72 79.5C109.71 79.5 109.71 79.5 109.7 79.49C109.7 79.49 109.69 79.49 109.69 79.49C109.69 79.49 109.68 79.48 109.67 79.48C109.67 79.48 109.67 79.48 109.66 79.48C109.66 79.47 109.65 79.47 109.64 79.47C109.64 79.47 109.64 79.47 109.63 79.46C109.63 79.46 109.62 79.46 109.62 79.46C109.61 79.45 109.61 79.45 109.6 79.45C109.6 79.45 109.6 79.45 109.59 79.45C109.59 79.44 109.58 79.44 109.57 79.44C109.57 79.44 109.57 79.44 109.57 79.44C109.36 79.34 109.16 79.24 108.95 79.14L117.77 61.18L117.77 61.18ZM115.95 60.18C116.24 60.36 116.54 60.54 116.84 60.7L107.18 78.21C107.12 78.18 107.06 78.15 107 78.11C107 78.11 106.99 78.11 106.99 78.11C106.99 78.11 106.98 78.1 106.97 78.1C106.97 78.1 106.97 78.1 106.97 78.1C106.96 78.09 106.95 78.09 106.95 78.08C106.94 78.08 106.94 78.08 106.94 78.08C106.93 78.08 106.93 78.07 106.92 78.07C106.92 78.07 106.91 78.07 106.91 78.06C106.91 78.06 106.9 78.06 106.9 78.06C106.89 78.05 106.89 78.05 106.88 78.05C106.88 78.05 106.88 78.05 106.87 78.04C106.87 78.04 106.86 78.04 106.85 78.03C106.85 78.03 106.85 78.03 106.85 78.03C106.84 78.02 106.83 78.02 106.82 78.02L106.82 78.02C106.36 77.75 105.9 77.48 105.45 77.2L115.95 60.18L115.95 60.18ZM114.23 59C114.5 59.21 114.79 59.42 115.07 59.61L103.77 76.11C103.52 75.94 103.27 75.76 103.02 75.58C103.02 75.58 103.02 75.58 103.02 75.58C103.01 75.58 103 75.57 103 75.57C102.99 75.57 102.99 75.56 102.99 75.56C102.99 75.56 102.98 75.55 102.97 75.55C102.97 75.55 102.97 75.55 102.97 75.54C102.96 75.54 102.95 75.53 102.95 75.53C102.95 75.53 102.94 75.53 102.94 75.53C102.94 75.52 102.93 75.52 102.92 75.51C102.92 75.51 102.92 75.51 102.91 75.51C102.91 75.5 102.9 75.5 102.9 75.49C102.89 75.49 102.89 75.49 102.89 75.49C102.88 75.48 102.88 75.48 102.88 75.48C102.87 75.47 102.87 75.47 102.86 75.47C102.86 75.46 102.85 75.46 102.85 75.46C102.84 75.46 102.84 75.45 102.83 75.45C102.83 75.45 102.83 75.44 102.83 75.44C102.82 75.44 102.81 75.43 102.81 75.43C102.81 75.43 102.8 75.43 102.8 75.42C102.79 75.42 102.79 75.41 102.78 75.41C102.78 75.41 102.78 75.41 102.78 75.41C102.77 75.4 102.76 75.4 102.75 75.39C102.75 75.39 102.75 75.39 102.75 75.39C102.55 75.24 102.35 75.09 102.15 74.94L114.23 59L114.23 59ZM112.62 57.66C112.88 57.9 113.14 58.13 113.41 58.35L100.59 73.7C100.58 73.7 100.58 73.69 100.57 73.69C100.57 73.69 100.57 73.69 100.57 73.69C100.56 73.68 100.56 73.67 100.55 73.67C100.55 73.67 100.55 73.67 100.54 73.66C100.54 73.66 100.53 73.65 100.53 73.65C100.52 73.65 100.52 73.64 100.52 73.64C100.51 73.64 100.51 73.63 100.5 73.63C100.5 73.63 100.5 73.63 100.5 73.62C100.49 73.62 100.48 73.61 100.48 73.61C100.48 73.61 100.47 73.6 100.47 73.6C100.47 73.6 100.46 73.59 100.46 73.59C100.45 73.59 100.45 73.58 100.45 73.58C100.44 73.58 100.44 73.57 100.43 73.57C100.43 73.57 100.43 73.56 100.42 73.56C100.42 73.56 100.41 73.55 100.41 73.55C100.41 73.55 100.4 73.54 100.4 73.54C100.39 73.54 100.39 73.53 100.39 73.53C100.38 73.53 100.38 73.52 100.37 73.52C100.37 73.52 100.37 73.51 100.36 73.51C100.36 73.51 100.35 73.5 100.35 73.5C100.35 73.5 100.34 73.49 100.34 73.49C100.33 73.49 100.33 73.48 100.32 73.48C100.32 73.48 100.32 73.47 100.32 73.47C100.31 73.47 100.31 73.46 100.3 73.46C100.3 73.46 100.3 73.45 100.29 73.45C100.29 73.45 100.28 73.44 100.28 73.44C100.27 73.44 100.27 73.44 100.27 73.43C100.27 73.43 100.26 73.42 100.25 73.42C100.25 73.41 100.25 73.41 100.25 73.41C100.24 73.41 100.23 73.4 100.23 73.39L100.23 73.39C100.22 73.39 100.21 73.38 100.2 73.37L100.2 73.37C99.87 73.09 99.54 72.8 99.22 72.51C99.22 72.5 99.22 72.5 99.22 72.5C99.21 72.5 99.2 72.49 99.2 72.48C99.2 72.48 99.19 72.48 99.19 72.48C99.19 72.47 99.18 72.47 99.18 72.46C99.17 72.46 99.17 72.46 99.16 72.45C99.16 72.45 99.16 72.45 99.15 72.44C99.15 72.44 99.14 72.44 99.14 72.43C99.14 72.43 99.13 72.43 99.13 72.42C99.13 72.42 99.12 72.41 99.11 72.41C99.11 72.41 99.11 72.41 99.11 72.41C99.1 72.4 99.1 72.39 99.09 72.38L99.09 72.38C99.09 72.38 99.08 72.38 99.08 72.38L112.62 57.66L112.62 57.66ZM111.15 56.17C111.38 56.43 111.63 56.69 111.87 56.94L97.64 70.99C97.64 70.99 97.64 70.99 97.64 70.99C97.63 70.98 97.63 70.98 97.62 70.97C97.62 70.97 97.62 70.97 97.62 70.97C97.31 70.65 97 70.33 96.69 70C96.69 70 96.69 70 96.69 70C96.69 69.99 96.68 69.98 96.67 69.98C96.67 69.98 96.67 69.97 96.67 69.97C96.66 69.97 96.66 69.96 96.65 69.95C96.65 69.95 96.65 69.95 96.64 69.94C96.64 69.94 96.63 69.94 96.63 69.93C96.63 69.93 96.62 69.92 96.62 69.92C96.62 69.92 96.61 69.91 96.61 69.91C96.61 69.9 96.6 69.9 96.59 69.89L96.59 69.89C96.48 69.77 96.38 69.65 96.27 69.53L111.15 56.17L111.15 56.17ZM109.83 54.55C110.04 54.83 110.25 55.11 110.47 55.38L94.97 68.02C94.97 68.02 94.97 68.01 94.97 68.01C94.96 68.01 94.96 68 94.95 67.99C94.95 67.99 94.95 67.99 94.95 67.98C94.94 67.98 94.94 67.97 94.94 67.97C94.93 67.97 94.93 67.96 94.93 67.96C94.92 67.95 94.92 67.95 94.92 67.95C94.91 67.94 94.91 67.94 94.91 67.93C94.9 67.93 94.9 67.93 94.9 67.92C94.89 67.92 94.89 67.91 94.88 67.91C94.88 67.9 94.88 67.9 94.88 67.9C94.87 67.89 94.87 67.89 94.86 67.88C94.86 67.88 94.86 67.88 94.86 67.87C94.85 67.87 94.85 67.86 94.84 67.85C94.84 67.85 94.84 67.85 94.84 67.85C94.83 67.84 94.83 67.84 94.82 67.83L94.82 67.83C94.61 67.57 94.4 67.31 94.2 67.04L94.2 67.04C94.2 67.03 94.19 67.02 94.18 67.02C94.18 67.02 94.18 67.02 94.18 67.02C94.18 67.01 94.17 67 94.17 67C94.17 66.99 94.16 66.99 94.16 66.99C94.16 66.99 94.16 66.98 94.15 66.97C94.15 66.97 94.15 66.97 94.14 66.96C94.14 66.96 94.14 66.96 94.14 66.95C94.13 66.95 94.13 66.94 94.13 66.94C94.12 66.94 94.12 66.93 94.12 66.93C94.12 66.93 94.11 66.92 94.11 66.91C94.11 66.91 94.11 66.91 94.1 66.91C93.99 66.75 93.87 66.6 93.75 66.44L109.83 54.55L109.83 54.55ZM108.68 52.82C108.85 53.12 109.04 53.41 109.23 53.7L92.6 64.8C92.55 64.73 92.5 64.66 92.46 64.59C92.45 64.59 92.45 64.58 92.44 64.57C92.44 64.57 92.44 64.57 92.44 64.57C92.13 64.1 91.83 63.62 91.54 63.14L91.54 63.14C91.54 63.13 91.53 63.12 91.53 63.12C91.53 63.11 91.53 63.11 91.53 63.11L108.68 52.82L108.68 52.82ZM107.7 50.99C107.84 51.3 108 51.62 108.17 51.92L90.54 61.37C90.45 61.2 90.36 61.03 90.27 60.86C90.13 60.59 89.99 60.31 89.85 60.03C89.85 60.03 89.85 60.03 89.85 60.03C89.85 60.02 89.84 60.01 89.84 60C89.84 60 89.83 60 89.83 60C89.83 59.99 89.83 59.98 89.82 59.98C89.82 59.97 89.82 59.97 89.82 59.96C89.82 59.96 89.81 59.95 89.81 59.95C89.81 59.94 89.8 59.94 89.8 59.93C89.8 59.93 89.8 59.93 89.8 59.92C89.74 59.81 89.69 59.7 89.64 59.59L107.7 50.99L107.7 50.99ZM106.9 49.09C107.02 49.41 107.14 49.73 107.27 50.05L88.82 57.76C88.72 57.53 88.63 57.3 88.54 57.07C88.54 57.07 88.54 57.06 88.54 57.06C88.53 57.06 88.53 57.05 88.53 57.04C88.53 57.04 88.53 57.03 88.52 57.03C88.52 57.02 88.52 57.02 88.52 57.01C88.51 57.01 88.51 57 88.51 57C88.51 56.99 88.51 56.99 88.5 56.98C88.5 56.97 88.5 56.97 88.49 56.96C88.49 56.96 88.49 56.96 88.49 56.96C88.36 56.6 88.22 56.25 88.09 55.9L106.9 49.09L106.9 49.09ZM106.29 47.11C106.38 47.45 106.47 47.78 106.57 48.11L87.46 54C87.42 53.86 87.38 53.73 87.33 53.59L87.33 53.58C87.33 53.57 87.33 53.57 87.33 53.56C87.33 53.56 87.32 53.55 87.32 53.55C87.32 53.54 87.32 53.54 87.32 53.53C87.32 53.53 87.32 53.52 87.32 53.52C87.31 53.51 87.31 53.51 87.31 53.5C87.31 53.5 87.31 53.5 87.31 53.49C87.31 53.48 87.3 53.48 87.3 53.47C87.3 53.47 87.3 53.46 87.3 53.46C87.3 53.45 87.29 53.45 87.29 53.44C87.29 53.44 87.29 53.43 87.29 53.43C87.29 53.42 87.28 53.42 87.28 53.41C87.28 53.41 87.28 53.4 87.28 53.4C87.28 53.39 87.28 53.39 87.27 53.38C87.27 53.38 87.27 53.38 87.27 53.37C87.27 53.37 87.27 53.36 87.26 53.35C87.26 53.35 87.26 53.35 87.26 53.34C87.26 53.34 87.26 53.33 87.26 53.32L87.26 53.32C87.25 53.31 87.25 53.3 87.25 53.29L87.25 53.28C87.13 52.89 87.02 52.48 86.92 52.08L106.29 47.11L106.29 47.11ZM105.88 45.09C105.93 45.43 105.99 45.77 106.06 46.11L86.47 50.13C86.35 49.56 86.25 48.98 86.15 48.41C86.14 48.32 86.13 48.24 86.11 48.16L105.88 45.09L105.88 45.09ZM105.65 43.01C105.67 43.36 105.7 43.71 105.74 44.05L85.85 46.18C85.83 45.94 85.8 45.71 85.78 45.47C85.78 45.47 85.78 45.47 85.78 45.47C85.78 45.46 85.78 45.45 85.78 45.44C85.78 45.44 85.78 45.44 85.78 45.44C85.78 45.43 85.78 45.42 85.78 45.42C85.78 45.41 85.78 45.41 85.78 45.4C85.78 45.4 85.78 45.4 85.78 45.39C85.74 45.01 85.72 44.63 85.69 44.25C85.69 44.23 85.69 44.21 85.69 44.18L105.65 43.01L105.65 43.01ZM85.64 40.19L105.63 40.9C105.62 41.17 105.61 41.43 105.61 41.7L105.62 41.96L85.62 42.19C85.62 42.06 85.61 41.92 85.61 41.8C85.61 41.79 85.61 41.79 85.61 41.79C85.61 41.78 85.61 41.77 85.61 41.77C85.61 41.76 85.61 41.76 85.61 41.75C85.61 41.75 85.61 41.74 85.61 41.73C85.61 41.72 85.61 41.71 85.61 41.7L85.61 41.7L85.61 41.7C85.61 41.69 85.61 41.68 85.61 41.66C85.61 41.66 85.61 41.65 85.61 41.65C85.61 41.64 85.61 41.63 85.61 41.62C85.61 41.61 85.61 41.61 85.61 41.6C85.61 41.59 85.61 41.58 85.61 41.56C85.61 41.56 85.61 41.55 85.61 41.55C85.61 41.54 85.61 41.53 85.61 41.52C85.61 41.52 85.61 41.51 85.61 41.5C85.61 41.49 85.61 41.48 85.61 41.47C85.61 41.47 85.61 41.46 85.61 41.45C85.61 41.44 85.61 41.43 85.61 41.42C85.61 41.42 85.61 41.41 85.61 41.4C85.61 41.4 85.61 41.39 85.61 41.38C85.61 41.37 85.61 41.36 85.61 41.34C85.61 41.34 85.61 41.33 85.61 41.33C85.61 41.32 85.61 41.31 85.61 41.3C85.61 41.3 85.61 41.29 85.61 41.29C85.61 41.26 85.61 41.23 85.61 41.2C85.61 41.2 85.61 41.19 85.61 41.19C85.61 41.18 85.61 41.17 85.61 41.16C85.61 41.16 85.61 41.16 85.61 41.16C85.62 41.01 85.62 40.87 85.62 40.72L85.62 40.72C85.62 40.69 85.62 40.66 85.62 40.63C85.62 40.63 85.62 40.62 85.62 40.62C85.62 40.61 85.62 40.6 85.62 40.6C85.62 40.59 85.62 40.58 85.62 40.58C85.62 40.57 85.62 40.56 85.63 40.55C85.63 40.54 85.63 40.53 85.63 40.52C85.63 40.51 85.63 40.51 85.63 40.5C85.63 40.49 85.63 40.48 85.63 40.47C85.63 40.47 85.63 40.46 85.63 40.46C85.64 40.37 85.64 40.28 85.64 40.19L85.64 40.19ZM85.97 36.2L105.8 38.81C105.76 39.15 105.72 39.5 105.69 39.85L85.76 38.19C85.77 38.03 85.79 37.88 85.8 37.72C85.8 37.72 85.8 37.72 85.8 37.72C85.8 37.71 85.8 37.7 85.81 37.69C85.81 37.69 85.81 37.69 85.81 37.68C85.81 37.68 85.81 37.67 85.81 37.66C85.81 37.66 85.81 37.65 85.81 37.65C85.81 37.64 85.81 37.64 85.81 37.63C85.81 37.62 85.81 37.62 85.81 37.61C85.81 37.61 85.81 37.6 85.81 37.6C85.81 37.59 85.82 37.58 85.82 37.57L85.82 37.57C85.86 37.11 85.92 36.66 85.97 36.2L85.97 36.2ZM86.69 32.27L106.17 36.77C106.09 37.11 106.03 37.45 105.96 37.79L86.28 34.23C86.34 33.91 86.4 33.59 86.47 33.27L86.47 33.27C86.47 33.26 86.47 33.26 86.47 33.25C86.47 33.25 86.47 33.24 86.47 33.24C86.47 33.23 86.48 33.23 86.48 33.22C86.48 33.22 86.48 33.21 86.48 33.21C86.48 33.2 86.48 33.2 86.48 33.19C86.48 33.19 86.48 33.18 86.49 33.18C86.49 33.17 86.49 33.17 86.49 33.16C86.49 33.15 86.49 33.15 86.49 33.14C86.49 33.14 86.49 33.13 86.49 33.13C86.5 33.12 86.5 33.12 86.5 33.11C86.5 33.11 86.5 33.1 86.5 33.1C86.5 33.09 86.5 33.08 86.5 33.08C86.51 33.07 86.51 33.07 86.51 33.07C86.51 33.06 86.51 33.05 86.51 33.05C86.51 33.04 86.51 33.04 86.51 33.04C86.51 33.03 86.52 33.02 86.52 33.01C86.52 33.01 86.52 33.01 86.52 33.01C86.52 33 86.52 32.99 86.52 32.98C86.52 32.98 86.52 32.98 86.53 32.98C86.53 32.97 86.53 32.96 86.53 32.95C86.53 32.95 86.53 32.95 86.53 32.95C86.53 32.94 86.54 32.93 86.54 32.92C86.54 32.92 86.54 32.92 86.54 32.92C86.56 32.81 86.59 32.71 86.61 32.6C86.61 32.6 86.61 32.6 86.61 32.6C86.61 32.59 86.61 32.58 86.61 32.57C86.62 32.56 86.62 32.55 86.62 32.55C86.62 32.54 86.62 32.54 86.62 32.54C86.62 32.53 86.63 32.52 86.63 32.52C86.63 32.52 86.63 32.51 86.63 32.51C86.65 32.43 86.67 32.35 86.69 32.27L86.69 32.27ZM87.77 28.42L106.73 34.78C106.63 35.11 106.52 35.44 106.43 35.77L87.18 30.33C87.18 30.33 87.18 30.32 87.19 30.32C87.19 30.32 87.19 30.31 87.19 30.31C87.19 30.3 87.19 30.29 87.19 30.29C87.2 30.28 87.2 30.28 87.2 30.28C87.2 30.27 87.2 30.26 87.2 30.26C87.2 30.25 87.2 30.25 87.2 30.25C87.21 30.24 87.21 30.23 87.21 30.22L87.21 30.22C87.35 29.73 87.5 29.24 87.66 28.76C87.66 28.75 87.66 28.75 87.66 28.75C87.66 28.74 87.67 28.74 87.67 28.73C87.67 28.73 87.67 28.72 87.67 28.72C87.67 28.71 87.67 28.71 87.67 28.71C87.71 28.61 87.74 28.52 87.77 28.42L87.77 28.42ZM89.23 24.69L107.49 32.86C107.35 33.17 107.21 33.49 107.09 33.81L88.46 26.54C88.7 25.92 88.96 25.3 89.23 24.69L89.23 24.69ZM91.03 21.13L108.42 31C108.25 31.3 108.09 31.61 107.93 31.92L90.09 22.89C90.35 22.37 90.63 21.85 90.91 21.34L90.91 21.34C90.92 21.33 90.92 21.32 90.93 21.32C90.93 21.31 90.93 21.32 90.93 21.31C90.93 21.31 90.94 21.3 90.94 21.29C90.94 21.29 90.94 21.29 90.94 21.29C90.95 21.28 90.95 21.27 90.96 21.26C90.96 21.26 90.96 21.26 90.96 21.26C90.96 21.25 90.97 21.24 90.97 21.24C90.97 21.24 90.97 21.23 90.98 21.23C90.98 21.22 90.98 21.22 90.99 21.21C90.99 21.21 90.99 21.2 90.99 21.2C91 21.19 91 21.19 91 21.18C91 21.18 91.01 21.17 91.01 21.17C91.01 21.17 91.01 21.16 91.02 21.16C91.02 21.15 91.02 21.14 91.03 21.14C91.03 21.14 91.03 21.13 91.03 21.13C91.03 21.13 91.03 21.13 91.03 21.13L91.03 21.13ZM93.17 17.75L109.54 29.25C109.34 29.53 109.14 29.82 108.96 30.11L92.06 19.41C92.11 19.34 92.15 19.28 92.19 19.21C92.19 19.2 92.2 19.2 92.2 19.2C92.2 19.2 92.2 19.19 92.2 19.19C92.21 19.18 92.21 19.18 92.22 19.17L92.22 19.17C92.43 18.84 92.65 18.51 92.87 18.18C92.88 18.18 92.88 18.17 92.88 18.17C92.88 18.17 92.89 18.16 92.89 18.16C92.89 18.15 92.9 18.14 92.9 18.14C92.9 18.14 92.91 18.13 92.91 18.13C93 18 93.08 17.88 93.17 17.75L93.17 17.75ZM95.63 14.59L110.82 27.6C110.59 27.86 110.37 28.13 110.16 28.41L94.36 16.14C94.4 16.09 94.44 16.04 94.48 15.99L94.48 15.99C94.48 15.98 94.49 15.98 94.5 15.97C94.5 15.97 94.5 15.97 94.5 15.97C94.5 15.96 94.51 15.95 94.51 15.95C94.52 15.94 94.52 15.94 94.52 15.94C94.52 15.93 94.53 15.93 94.53 15.92C94.53 15.92 94.54 15.92 94.54 15.91C94.54 15.91 94.55 15.9 94.55 15.9C94.55 15.89 94.56 15.89 94.56 15.88C94.56 15.88 94.57 15.88 94.57 15.87C94.57 15.87 94.58 15.86 94.58 15.86C94.58 15.86 94.58 15.85 94.59 15.85C94.59 15.84 94.6 15.84 94.6 15.83C94.6 15.83 94.6 15.83 94.61 15.83C94.61 15.82 94.61 15.81 94.62 15.81C94.62 15.81 94.62 15.8 94.62 15.8C94.63 15.8 94.63 15.79 94.64 15.78C94.64 15.78 94.64 15.78 94.64 15.78C94.65 15.77 94.65 15.76 94.66 15.76C94.66 15.76 94.66 15.75 94.66 15.75C94.67 15.75 94.67 15.74 94.68 15.73C94.68 15.73 94.68 15.73 94.68 15.73C94.69 15.72 94.69 15.72 94.7 15.71C94.7 15.71 94.7 15.71 94.7 15.71C94.71 15.7 94.71 15.69 94.72 15.68C94.72 15.68 94.72 15.68 94.72 15.68C94.73 15.67 94.73 15.67 94.74 15.66C94.74 15.66 94.74 15.66 94.74 15.66C94.75 15.65 94.75 15.64 94.76 15.64C94.76 15.64 94.76 15.63 94.76 15.63C94.77 15.63 94.77 15.62 94.78 15.61C94.78 15.61 94.78 15.61 94.78 15.61C94.79 15.6 94.79 15.59 94.8 15.59C94.8 15.59 94.8 15.59 94.8 15.58C94.81 15.58 94.81 15.57 94.82 15.56C94.82 15.56 94.82 15.56 94.82 15.56C94.83 15.55 94.83 15.54 94.84 15.54C94.84 15.54 94.84 15.54 94.84 15.53C94.84 15.53 94.85 15.52 94.86 15.52C94.86 15.51 94.86 15.51 94.86 15.51C94.86 15.5 94.87 15.5 94.87 15.49C94.88 15.49 94.88 15.49 94.88 15.48C94.88 15.48 94.89 15.47 94.89 15.47C94.9 15.47 94.9 15.46 94.9 15.46C94.9 15.45 94.91 15.45 94.91 15.44C94.91 15.44 94.92 15.44 94.92 15.43C94.92 15.43 94.93 15.42 94.93 15.42C94.93 15.42 94.94 15.41 94.94 15.41C94.94 15.4 94.95 15.4 94.95 15.39C94.95 15.39 94.96 15.39 94.96 15.38C94.96 15.38 94.97 15.38 94.97 15.37C94.97 15.37 94.98 15.36 94.98 15.36C94.98 15.35 94.99 15.35 94.99 15.35C94.99 15.34 95 15.34 95 15.33C95 15.33 95.01 15.33 95.01 15.32C95.01 15.32 95.02 15.31 95.02 15.31C95.02 15.31 95.03 15.3 95.03 15.3C95.03 15.29 95.04 15.29 95.04 15.29C95.04 15.28 95.05 15.28 95.05 15.28C95.05 15.27 95.06 15.27 95.06 15.26C95.06 15.26 95.06 15.25 95.07 15.25C95.07 15.25 95.08 15.24 95.08 15.24C95.08 15.23 95.08 15.23 95.09 15.23C95.09 15.22 95.1 15.22 95.1 15.21C95.1 15.21 95.1 15.21 95.1 15.21C95.11 15.2 95.12 15.19 95.12 15.19C95.12 15.18 95.12 15.18 95.12 15.18C95.13 15.18 95.13 15.17 95.14 15.16C95.14 15.16 95.14 15.16 95.14 15.16C95.15 15.15 95.16 15.14 95.16 15.14C95.16 15.13 95.16 15.13 95.16 15.13C95.17 15.13 95.17 15.12 95.18 15.11C95.18 15.11 95.18 15.11 95.18 15.11C95.19 15.1 95.19 15.1 95.2 15.09C95.2 15.09 95.2 15.09 95.2 15.09C95.21 15.08 95.22 15.07 95.22 15.06C95.22 15.06 95.22 15.06 95.22 15.06C95.23 15.05 95.23 15.05 95.24 15.04C95.24 15.04 95.24 15.04 95.24 15.04C95.25 15.03 95.25 15.02 95.26 15.02C95.26 15.01 95.26 15.01 95.26 15.01C95.27 15.01 95.27 15 95.28 14.99C95.28 14.99 95.28 14.99 95.28 14.99C95.29 14.98 95.29 14.98 95.3 14.97C95.3 14.97 95.3 14.97 95.3 14.96C95.31 14.96 95.31 14.95 95.32 14.95C95.32 14.94 95.32 14.94 95.32 14.94C95.33 14.93 95.33 14.93 95.34 14.92C95.34 14.92 95.34 14.92 95.35 14.91C95.35 14.91 95.35 14.9 95.36 14.9C95.36 14.9 95.36 14.89 95.37 14.89C95.37 14.89 95.37 14.88 95.38 14.88C95.38 14.87 95.38 14.87 95.39 14.87C95.39 14.86 95.4 14.86 95.4 14.85C95.4 14.85 95.41 14.85 95.41 14.84C95.41 14.84 95.41 14.83 95.42 14.83C95.42 14.83 95.43 14.82 95.43 14.82C95.43 14.81 95.43 14.81 95.44 14.81C95.44 14.8 95.45 14.8 95.45 14.79C95.45 14.79 95.45 14.79 95.46 14.78C95.46 14.78 95.47 14.77 95.47 14.77C95.47 14.76 95.48 14.76 95.48 14.76C95.48 14.75 95.49 14.75 95.49 14.74C95.49 14.74 95.5 14.74 95.5 14.74C95.54 14.69 95.58 14.64 95.63 14.59L95.63 14.59ZM98.37 11.68L112.25 26.07C112 26.32 111.75 26.57 111.52 26.82L96.96 13.1C96.96 13.1 96.96 13.1 96.96 13.1C97.42 12.62 97.89 12.14 98.37 11.68L98.37 11.68ZM101.38 9.04L113.83 24.7C113.55 24.91 113.28 25.14 113.02 25.37L99.84 10.33C99.92 10.26 100 10.19 100.07 10.12C100.08 10.12 100.08 10.12 100.08 10.12C100.09 10.11 100.09 10.11 100.1 10.1C100.1 10.1 100.11 10.1 100.11 10.09C100.11 10.09 100.12 10.09 100.12 10.08C100.53 9.73 100.95 9.38 101.38 9.04L101.38 9.04ZM104.62 6.71L115.52 23.48C115.23 23.67 114.94 23.86 114.66 24.07L102.97 7.84C103.12 7.73 103.27 7.62 103.43 7.51C103.43 7.51 103.43 7.51 103.43 7.51C103.43 7.51 103.44 7.5 103.44 7.5C103.45 7.5 103.45 7.5 103.46 7.49C103.46 7.49 103.46 7.49 103.46 7.49C103.47 7.49 103.47 7.48 103.48 7.48C103.48 7.48 103.48 7.48 103.48 7.48C103.65 7.36 103.83 7.24 104 7.12C104 7.12 104 7.12 104 7.12C104.01 7.11 104.02 7.11 104.02 7.1C104.03 7.1 104.03 7.1 104.04 7.09C104.04 7.09 104.04 7.09 104.05 7.09C104.05 7.08 104.06 7.08 104.07 7.07C104.07 7.07 104.07 7.07 104.07 7.07C104.25 6.95 104.44 6.83 104.62 6.71L104.62 6.71ZM108.07 4.69L117.31 22.43C117.01 22.59 116.7 22.76 116.4 22.93L106.32 5.66C106.47 5.58 106.61 5.49 106.76 5.41L106.76 5.41C106.77 5.4 106.79 5.39 106.81 5.38L106.81 5.38C106.83 5.37 106.85 5.36 106.86 5.35L106.86 5.35C107.26 5.12 107.67 4.91 108.07 4.69L108.07 4.69ZM111.7 3.02L119.19 21.56C118.88 21.69 118.56 21.83 118.24 21.98L109.87 3.81C109.87 3.81 109.88 3.81 109.88 3.81C109.89 3.8 109.89 3.8 109.89 3.8C109.9 3.8 109.9 3.8 109.91 3.79C109.91 3.79 109.92 3.79 109.92 3.79C109.93 3.79 109.93 3.78 109.94 3.78C109.94 3.78 109.95 3.78 109.95 3.77C109.96 3.77 109.96 3.77 109.97 3.77C109.97 3.77 109.98 3.76 109.98 3.76C109.99 3.76 109.99 3.76 110 3.76C110 3.75 110 3.75 110.01 3.75C110.01 3.75 110.02 3.74 110.02 3.74C110.03 3.74 110.03 3.74 110.04 3.74C110.04 3.73 110.05 3.73 110.05 3.73C110.06 3.73 110.06 3.73 110.07 3.72C110.07 3.72 110.08 3.72 110.08 3.72C110.09 3.71 110.09 3.71 110.09 3.71C110.1 3.71 110.1 3.71 110.11 3.7C110.11 3.7 110.12 3.7 110.12 3.7C110.13 3.7 110.13 3.7 110.13 3.69C110.14 3.69 110.15 3.69 110.15 3.68C110.16 3.68 110.16 3.68 110.17 3.68C110.17 3.68 110.18 3.67 110.18 3.67C110.68 3.44 111.19 3.23 111.7 3.02L111.7 3.02ZM115.48 1.7L121.14 20.88C120.81 20.98 120.48 21.09 120.16 21.2L113.58 2.31C114.02 2.16 114.46 2.01 114.91 1.87C114.91 1.87 114.91 1.87 114.92 1.87C114.92 1.87 114.93 1.87 114.94 1.87C114.94 1.87 114.95 1.86 114.95 1.86C114.96 1.86 114.97 1.86 114.97 1.86C114.98 1.86 114.98 1.85 114.98 1.85C114.99 1.85 115 1.85 115 1.85C115.01 1.85 115.02 1.84 115.02 1.84C115.03 1.84 115.03 1.84 115.03 1.84C115.04 1.84 115.05 1.83 115.06 1.83C115.06 1.83 115.06 1.83 115.06 1.83C115.2 1.79 115.34 1.74 115.48 1.7L115.48 1.7ZM119.37 0.76L123.15 20.39C122.82 20.46 122.47 20.53 122.14 20.61L117.41 1.18C117.41 1.18 117.41 1.18 117.42 1.18C117.42 1.18 117.43 1.18 117.43 1.18C117.44 1.18 117.44 1.17 117.45 1.17C117.45 1.17 117.46 1.17 117.46 1.17C117.47 1.17 117.48 1.17 117.48 1.17C117.48 1.16 117.49 1.16 117.49 1.16C117.5 1.16 117.51 1.16 117.51 1.16C117.52 1.16 117.52 1.16 117.52 1.16C117.53 1.15 117.54 1.15 117.54 1.15C117.55 1.15 117.55 1.15 117.55 1.15C117.56 1.15 117.57 1.15 117.58 1.14C117.58 1.14 117.58 1.14 117.58 1.14C117.59 1.14 117.6 1.14 117.61 1.14C117.61 1.14 117.61 1.14 117.61 1.14C117.62 1.13 117.63 1.13 117.64 1.13L117.64 1.13C117.92 1.06 118.19 1 118.46 0.94C118.46 0.94 118.46 0.94 118.47 0.94C118.49 0.94 118.5 0.93 118.53 0.93C118.53 0.93 118.53 0.93 118.53 0.93C118.54 0.92 118.55 0.92 118.56 0.92C118.56 0.92 118.56 0.92 118.56 0.92C118.57 0.92 118.58 0.92 118.59 0.91C118.59 0.91 118.59 0.91 118.59 0.91C118.6 0.91 118.61 0.91 118.62 0.91C118.62 0.91 118.62 0.91 118.62 0.91C118.63 0.91 118.64 0.9 118.65 0.9C118.65 0.9 118.65 0.9 118.66 0.9C118.66 0.9 118.67 0.9 118.67 0.9C118.68 0.9 118.68 0.9 118.69 0.9C118.69 0.9 118.69 0.89 118.7 0.89C118.92 0.84 119.14 0.8 119.37 0.76L119.37 0.76ZM123.32 0.19L125.21 20.1C124.87 20.13 124.52 20.17 124.18 20.22L121.34 0.43C121.5 0.4 121.67 0.38 121.84 0.36L121.84 0.36C121.85 0.36 121.86 0.35 121.87 0.35C121.87 0.35 121.88 0.35 121.88 0.35C121.89 0.35 121.89 0.35 121.9 0.35C121.9 0.35 121.91 0.35 121.91 0.35C121.92 0.35 121.92 0.34 121.93 0.34C121.94 0.34 121.94 0.34 121.95 0.34C121.95 0.34 121.96 0.34 121.96 0.34C121.97 0.34 121.97 0.34 121.98 0.34C121.98 0.34 121.99 0.34 121.99 0.34C122 0.34 122.01 0.34 122.02 0.33C122.02 0.33 122.02 0.33 122.02 0.33C122.03 0.33 122.04 0.33 122.05 0.33L122.05 0.33C122.35 0.29 122.65 0.26 122.94 0.23L122.95 0.23C122.95 0.23 122.96 0.23 122.97 0.23C122.97 0.23 122.98 0.22 122.98 0.22C122.99 0.22 122.99 0.22 123 0.22C123 0.22 123.01 0.22 123.01 0.22C123.02 0.22 123.02 0.22 123.02 0.22C123.03 0.22 123.04 0.22 123.05 0.22C123.05 0.22 123.05 0.22 123.05 0.22C123.14 0.21 123.23 0.2 123.32 0.19L123.32 0.19ZM127.31 0L127.31 20C126.96 20 126.61 20.01 126.26 20.02L125.32 0.05C125.72 0.03 126.13 0.01 126.53 0.01L126.53 0.01C126.54 0.01 126.55 0.01 126.56 0.01C126.56 0.01 126.56 0.01 126.56 0.01C126.57 0.01 126.58 0.01 126.59 0.01C126.59 0.01 126.59 0.01 126.6 0.01C126.6 0.01 126.61 0.01 126.62 0.01C126.62 0.01 126.63 0.01 126.63 0.01C126.64 0.01 126.64 0.01 126.65 0.01C126.66 0.01 126.66 0.01 126.66 0.01C126.67 0.01 126.68 0.01 126.68 0.01C126.69 0.01 126.69 0.01 126.69 0.01C126.7 0.01 126.71 0.01 126.72 0.01C126.72 0.01 126.72 0.01 126.72 0.01C126.73 0.01 126.74 0.01 126.75 0.01C126.75 0.01 126.75 0.01 126.76 0.01C126.77 0.01 126.77 0.01 126.78 0.01C126.78 0.01 126.79 0.01 126.79 0.01C126.8 0.01 126.8 0.01 126.81 0.01C126.81 0.01 126.82 0.01 126.82 0.01C126.83 0.01 126.84 0.01 126.84 0.01C126.84 0.01 126.85 0.01 126.85 0.01C126.86 0.01 126.88 0.01 126.9 0.01C126.9 0.01 126.9 0.01 126.91 0.01C126.91 0.01 126.92 0.01 126.92 0.01C126.93 0.01 126.94 0.01 126.94 0.01C126.94 0.01 126.95 0.01 126.95 0.01C126.96 0.01 126.97 0.01 126.97 0.01C126.98 0.01 126.98 0.01 126.99 0.01C126.99 0.01 127 0.01 127 0.01C127.01 0.01 127.01 0.01 127.02 0.01C127.03 0.01 127.03 0.01 127.04 0.01C127.04 0.01 127.05 0.01 127.05 0.01C127.06 0.01 127.07 0.01 127.07 0.01C127.08 0.01 127.08 0.01 127.08 0.01C127.09 0.01 127.1 0.01 127.1 0.01C127.11 0.01 127.11 0.01 127.12 0.01C127.12 0.01 127.13 0.01 127.14 0.01C127.14 0.01 127.15 0.01 127.15 0.01C127.16 0.01 127.16 0.01 127.17 0.01C127.17 0.01 127.18 0.01 127.18 0.01C127.19 0.01 127.2 0.01 127.2 0.01C127.21 0.01 127.21 0.01 127.22 0.01C127.22 0.01 127.23 0.01 127.24 0.01C127.24 0.01 127.24 0.01 127.25 0.01C127.26 0.01 127.26 0.01 127.27 0.01C127.27 0.01 127.28 0.01 127.28 0.01C127.29 0 127.3 0 127.31 0L127.31 0Z" />
		</g>
		<g id="g32">
			<path id="path30" fill-rule="evenodd" class="shp7" d="M169 41.7C169 64.72 150.34 83.38 127.31 83.38C104.28 83.38 85.61 64.72 85.61 41.7C85.61 18.66 104.28 0 127.31 0C150.34 0 169 18.66 169 41.7ZM127.31 2C105.42 2 87.61 19.81 87.61 41.7C87.61 63.58 105.42 81.38 127.31 81.38C149.2 81.38 167 63.58 167 41.7C167 19.81 149.2 2 127.31 2Z" />
		</g>
		<g id="g36" style="opacity: 0.059">
			<path id="path34" class="shp8" d="M91.29 41.7C91.29 61.58 107.42 77.71 127.31 77.71C147.19 77.71 163.32 61.58 163.32 41.7C163.32 21.81 147.19 5.68 127.31 5.68C107.42 5.68 91.29 21.8 91.29 41.7Z" />
		</g>
		<g id="g42">
			<path id="path38" class="shp9" d="M127.31 69.83C142.82 69.83 155.44 57.21 155.44 41.7C155.44 26.2 142.82 13.58 127.31 13.58C111.81 13.58 99.19 26.2 99.19 41.7C99.19 57.21 111.81 69.83 127.31 69.83Z" />
			<path id="path40" fill-rule="evenodd" class="shp5" d="M158.44 41.7C158.44 58.89 144.51 72.83 127.31 72.83C110.12 72.83 96.19 58.89 96.19 41.7C96.19 24.51 110.12 10.58 127.31 10.58C144.51 10.58 158.44 24.51 158.44 41.7ZM127.31 16.58C113.46 16.58 102.19 27.85 102.19 41.7C102.19 55.56 113.46 66.83 127.31 66.83C141.17 66.83 152.44 55.56 152.44 41.7C152.44 27.85 141.17 16.58 127.31 16.58Z" />
		</g>
	</g>
	<g id="g45">
	</g>
	<g id="g47">
	</g>
	<g id="g49">
	</g>
	<g id="g51">
	</g>
	<g id="g53">
	</g>
	<g id="g55">
	</g>
	<g id="g57">
	</g>
	<g id="g59">
	</g>
	<g id="g61">
	</g>
	<g id="g63">
	</g>
	<g id="g65">
	</g>
	<g id="g67">
	</g>
	<g id="g69">
	</g>
	<g id="g71">
	</g>
	<g id="g73">
	</g>
</svg>