<?xml version="1.0" encoding="UTF-8" standalone="no"?>
<!-- Generator: Adobe Illustrator 19.0.1, SVG Export Plug-In . SVG Version: 6.00 Build 0)  -->

<svg
   xmlns:dc="http://purl.org/dc/elements/1.1/"
   xmlns:cc="http://creativecommons.org/ns#"
   xmlns:rdf="http://www.w3.org/1999/02/22-rdf-syntax-ns#"
   xmlns:svg="http://www.w3.org/2000/svg"
   xmlns="http://www.w3.org/2000/svg"
   xmlns:sodipodi="http://sodipodi.sourceforge.net/DTD/sodipodi-0.dtd"
   xmlns:inkscape="http://www.inkscape.org/namespaces/inkscape"
   version="1.1"
   id="Layer_1"
   x="0px"
   y="0px"
   width="178.5px"
   height="104px"
   viewBox="-870 489 178.5 104"
   style="enable-background:new -870 489 178.5 104;"
   xml:space="preserve"
   sodipodi:docname="firkarrow.svg"
   inkscape:version="0.92.4 (5da689c313, 2019-01-14)"><metadata
   id="metadata7021"><rdf:RDF><cc:Work
       rdf:about=""><dc:format>image/svg+xml</dc:format><dc:type
         rdf:resource="http://purl.org/dc/dcmitype/StillImage" /><dc:title></dc:title></cc:Work></rdf:RDF></metadata><defs
   id="defs7019" /><sodipodi:namedview
   pagecolor="#ffffff"
   bordercolor="#666666"
   borderopacity="1"
   objecttolerance="10"
   gridtolerance="10"
   guidetolerance="10"
   inkscape:pageopacity="0"
   inkscape:pageshadow="2"
   inkscape:window-width="1920"
   inkscape:window-height="1017"
   id="namedview7017"
   showgrid="false"
   inkscape:zoom="1.6134454"
   inkscape:cx="-11.466145"
   inkscape:cy="52.000001"
   inkscape:window-x="1912"
   inkscape:window-y="-8"
   inkscape:window-maximized="1"
   inkscape:current-layer="Layer_1" />
<style
   type="text/css"
   id="style6962">
	.st0{fill:#C1272D;}
	.st1{opacity:0.25;}
	.st2{fill:#3ED8D2;}
	.st3{opacity:0.25;fill:#FFFFFF;}
</style>
<g
   id="g6970">
	<g
   id="g6968">
		<path
   class="st0"
   d="M-745.5,509.6c1.4-2,1.2-2.9,1.2-2.9s0.2-0.9-1.2-2.9s-15-13.6-15.7-14c-0.7-0.4-28.5-2.2-31.4,1.3    s-2.6,15.6-2.6,15.6s-0.3,12.1,2.6,15.6s30.7,1.7,31.4,1.3C-760.5,523.2-746.9,511.6-745.5,509.6z"
   id="path6964"
   style="fill:#f24014;fill-opacity:1" />
		<path
   class="st1"
   d="M-745.5,509.6c1.4-2,1.2-2.9,1.2-2.9s0.2-0.9-1.2-2.9c-0.9-1.3-6.9-6.6-11.2-10.3c-2.1,3.9-3.4,8.4-3.4,13.2    s1.2,9.3,3.4,13.2C-752.4,516.2-746.4,510.9-745.5,509.6z"
   id="path6966" />
	</g>
</g>
<g
   id="g6976">
	<path
   class="st0"
   d="M-849.4,490.3c-2-1.4-2.9-1.2-2.9-1.2s-0.9-0.2-2.9,1.2s-13.6,15-14,15.7c-0.4,0.7-2.2,28.5,1.3,31.4   s15.6,2.6,15.6,2.6s12.1,0.3,15.6-2.6s1.7-30.7,1.3-31.4C-835.8,505.2-847.4,491.6-849.4,490.3z"
   id="path6972"
   style="fill:#f24014;fill-opacity:1" />
	<path
   class="st1"
   d="M-849.4,490.3c-2-1.4-2.9-1.2-2.9-1.2s-0.9-0.2-2.9,1.2c-1.3,0.9-6.6,6.9-10.3,11.2c3.9,2.1,8.4,3.4,13.2,3.4   s9.3-1.2,13.2-3.4C-842.8,497.1-848.1,491.1-849.4,490.3z"
   id="path6974" />
</g>
<g
   id="g6982">
	<path
   class="st0"
   d="M-817.8,538.8c2,1.4,2.9,1.2,2.9,1.2s0.9,0.2,2.9-1.2s13.6-15,14-15.7c0.4-0.7,2.2-28.5-1.3-31.4   s-15.6-2.6-15.6-2.6s-12.1-0.3-15.6,2.6s-1.7,30.7-1.3,31.4C-831.4,523.8-819.8,537.4-817.8,538.8z"
   id="path6978"
   style="fill:#f24014;fill-opacity:1" />
	<path
   class="st1"
   d="M-817.8,538.8c2,1.4,2.9,1.2,2.9,1.2s0.9,0.2,2.9-1.2c1.3-0.9,6.6-6.9,10.3-11.2c-3.9-2.1-8.4-3.4-13.2-3.4   s-9.3,1.2-13.2,3.4C-824.4,531.9-819.1,537.9-817.8,538.8z"
   id="path6980" />
</g>
<g
   id="g6988">
	<path
   class="st0"
   d="M-694.1,491.3c-2.9-3.5-30.7-1.7-31.4-1.3c-0.7,0.4-14.3,12-15.7,14s-1.2,2.9-1.2,2.9s-0.2,0.9,1.2,2.9   s15,13.6,15.7,14c0.7,0.4,28.5,2.2,31.4-1.3s2.6-15.6,2.6-15.6S-691.3,494.8-694.1,491.3z"
   id="path6984"
   style="fill:#f24014;fill-opacity:1" />
	<path
   class="st1"
   d="M-730,493.7c-4.3,3.7-10.3,9-11.2,10.3c-1.4,2-1.2,2.9-1.2,2.9s-0.2,0.9,1.2,2.9c0.9,1.3,6.9,6.6,11.2,10.3   c2.1-3.9,3.4-8.4,3.4-13.2S-727.9,497.6-730,493.7z"
   id="path6986" />
</g>
<g
   id="g6994">
	<path
   class="st2"
   d="M-745.5,562.6c1.4-2,1.2-2.9,1.2-2.9s0.2-0.9-1.2-2.9s-15-13.6-15.7-14c-0.7-0.4-28.5-2.2-31.4,1.3   s-2.6,15.6-2.6,15.6s-0.3,12.1,2.6,15.6s30.7,1.7,31.4,1.3C-760.5,576.2-746.9,564.6-745.5,562.6z"
   id="path6990"
   style="fill:#000000;fill-opacity:1" />
	<path
   class="st3"
   d="M-745.5,562.6c1.4-2,1.2-2.9,1.2-2.9s0.2-0.9-1.2-2.9c-0.9-1.3-6.9-6.6-11.2-10.3c-2.1,3.9-3.4,8.4-3.4,13.2   s1.2,9.3,3.4,13.2C-752.4,569.2-746.4,563.9-745.5,562.6z"
   id="path6992" />
</g>
<g
   id="g7000">
	<path
   class="st2"
   d="M-849.4,543.3c-2-1.4-2.9-1.2-2.9-1.2s-0.9-0.2-2.9,1.2s-13.6,15-14,15.7c-0.4,0.7-2.2,28.5,1.3,31.4   s15.6,2.6,15.6,2.6s12.1,0.3,15.6-2.6s1.7-30.7,1.3-31.4C-835.8,558.2-847.4,544.6-849.4,543.3z"
   id="path6996"
   style="fill:#000000;fill-opacity:1" />
	<path
   class="st3"
   d="M-849.4,543.3c-2-1.4-2.9-1.2-2.9-1.2s-0.9-0.2-2.9,1.2c-1.3,0.9-6.6,6.9-10.3,11.2c3.9,2.1,8.4,3.4,13.2,3.4   s9.3-1.2,13.2-3.4C-842.8,550.1-848.1,544.1-849.4,543.3z"
   id="path6998" />
</g>
<g
   id="g7006">
	<path
   class="st2"
   d="M-817.8,591.8c2,1.4,2.9,1.2,2.9,1.2s0.9,0.2,2.9-1.2s13.6-15,14-15.7c0.4-0.7,2.2-28.5-1.3-31.4   s-15.6-2.6-15.6-2.6s-12.1-0.3-15.6,2.6s-1.7,30.7-1.3,31.4C-831.4,576.8-819.8,590.4-817.8,591.8z"
   id="path7002"
   style="fill:#000000;fill-opacity:1" />
	<path
   class="st3"
   d="M-817.8,591.8c2,1.4,2.9,1.2,2.9,1.2s0.9,0.2,2.9-1.2c1.3-0.9,6.6-6.9,10.3-11.2c-3.9-2.1-8.4-3.4-13.2-3.4   s-9.3,1.2-13.2,3.4C-824.4,584.9-819.1,590.9-817.8,591.8z"
   id="path7004" />
</g>
<g
   id="g7014">
	<g
   id="g7012">
		<path
   class="st2"
   d="M-694.1,544.2c-2.9-3.5-30.7-1.7-31.4-1.3c-0.7,0.4-14.3,12-15.7,14s-1.2,2.9-1.2,2.9s-0.2,0.9,1.2,2.9    s15,13.6,15.7,14c0.7,0.4,28.5,2.2,31.4-1.3s2.6-15.6,2.6-15.6S-691.3,547.7-694.1,544.2z"
   id="path7008"
   style="fill:#000000;fill-opacity:1" />
		<path
   class="st3"
   d="M-730,546.6c-4.3,3.7-10.3,9-11.2,10.3c-1.4,2-1.2,2.9-1.2,2.9s-0.2,0.9,1.2,2.9c0.9,1.3,6.9,6.6,11.2,10.3    c2.1-3.9,3.4-8.4,3.4-13.2S-727.9,550.5-730,546.6z"
   id="path7010"
   style="fill:#ffffff;fill-opacity:1" />
	</g>
</g>
</svg>
