<?xml version="1.0" encoding="utf-8"?>
<!-- Generator: Adobe Illustrator 23.0.1, SVG Export Plug-In . SVG Version: 6.00 Build 0)  -->
<svg version="1.1"
	 id="Layer_1" inkscape:version="0.92.4 (5da689c313, 2019-01-14)" sodipodi:docname="firkstart.svg" xmlns:cc="http://creativecommons.org/ns#" xmlns:dc="http://purl.org/dc/elements/1.1/" xmlns:inkscape="http://www.inkscape.org/namespaces/inkscape" xmlns:rdf="http://www.w3.org/1999/02/22-rdf-syntax-ns#" xmlns:sodipodi="http://sodipodi.sourceforge.net/DTD/sodipodi-0.dtd" xmlns:svg="http://www.w3.org/2000/svg"
	 xmlns="http://www.w3.org/2000/svg" xmlns:xlink="http://www.w3.org/1999/xlink" x="0px" y="0px" viewBox="0 0 28.4 46.7"
	 style="enable-background:new 0 0 28.4 46.7;" xml:space="preserve">
<style type="text/css">
	.st0{fill:#001b42;}
</style>
<sodipodi:namedview  bordercolor="#666666" borderopacity="1" gridtolerance="10" guidetolerance="10" id="namedview8498" inkscape:current-layer="Layer_1" inkscape:cx="-17.955721" inkscape:cy="23.35" inkscape:pageopacity="0" inkscape:pageshadow="2" inkscape:window-height="1017" inkscape:window-maximized="1" inkscape:window-width="1920" inkscape:window-x="1912" inkscape:window-y="-8" inkscape:zoom="5.0535331" objecttolerance="10" pagecolor="#ffffff" showgrid="false">
	</sodipodi:namedview>
<g id="g8495">
	<path id="path8491" class="st0" d="M14.2,1.7c6.9,0,12.5,5.6,12.5,12.5v18.3c0,6.9-5.6,12.5-12.5,12.5S1.7,39.4,1.7,32.5V14.2
		C1.7,7.3,7.3,1.7,14.2,1.7 M14.2,0C6.4,0,0,6.4,0,14.2v18.3c0,7.8,6.4,14.2,14.2,14.2s14.2-6.4,14.2-14.2V14.2
		C28.4,6.4,22,0,14.2,0L14.2,0z"/>
	<path id="path8493" class="st0" d="M14.2,1.7C7.3,1.7,1.7,7.3,1.7,14.2v18.3C1.7,39.4,7.3,45,14.2,45s12.5-5.6,12.5-12.5V14.2
		C26.7,7.3,21.1,1.7,14.2,1.7z"/>
</g>
</svg>
