<?xml version="1.0" encoding="utf-8"?>
<!-- Generator: Adobe Illustrator 23.0.1, SVG Export Plug-In . SVG Version: 6.00 Build 0)  -->
<svg version="1.1"
	 id="Layer_1" inkscape:version="0.92.4 (5da689c313, 2019-01-14)" sodipodi:docname="ps4-triggers.svg" xmlns:cc="http://creativecommons.org/ns#" xmlns:dc="http://purl.org/dc/elements/1.1/" xmlns:inkscape="http://www.inkscape.org/namespaces/inkscape" xmlns:rdf="http://www.w3.org/1999/02/22-rdf-syntax-ns#" xmlns:sodipodi="http://sodipodi.sourceforge.net/DTD/sodipodi-0.dtd" xmlns:svg="http://www.w3.org/2000/svg"
	 xmlns="http://www.w3.org/2000/svg" xmlns:xlink="http://www.w3.org/1999/xlink" x="0px" y="0px" viewBox="0 0 199.9 90.8"
	 style="enable-background:new 0 0 199.9 90.8;" xml:space="preserve">
<style type="text/css">
	.st0{fill:#f34615;}
	.st1{fill:url(#path1079_1_);}
	.st2{opacity:8.000000e-02;}
	.st3{fill:#ffffff;}
	.st4{fill:url(#path1095_1_);}
	.st5{fill:#932e12;}
</style>
<pattern  y="90.8" width="199.9" height="90.8" patternUnits="userSpaceOnUse" id="pattern1857" viewBox="0 -90.8 199.9 90.8" style="overflow:visible;">
	<g>
		<rect y="-90.8" class="st0" width="199.9" height="90.8"/>
	</g>
</pattern>
<pattern  y="90.8" width="199.9" height="90.8" patternUnits="userSpaceOnUse" id="pattern1859" viewBox="0 -90.8 199.9 90.8" style="overflow:visible;">
	<g>
		<rect y="-90.8" class="st0" width="199.9" height="90.8"/>
	</g>
</pattern>
<title  id="title1861">ps4-triggers.svg</title>
<sodipodi:namedview  bordercolor="#666666" borderopacity="1" gridtolerance="10" guidetolerance="10" id="namedview1110" inkscape:current-layer="Layer_1" inkscape:cx="99.949997" inkscape:cy="45.400002" inkscape:pageopacity="0" inkscape:pageshadow="2" inkscape:window-height="1017" inkscape:window-maximized="1" inkscape:window-width="1920" inkscape:window-x="1912" inkscape:window-y="-8" inkscape:zoom="3.1349909" objecttolerance="10" pagecolor="#ffffff" showgrid="false">
	</sodipodi:namedview>
<g id="g1091">
	<g id="g1081">
		<path id="path1077" class="st5" d="M199.9,90.8c0,0-32.7-3.2-50.6-3.2C131.4,87.6,101,90,101,90s3.1-44.7,4.8-52c1.6-7.3,7.7-21.3,16.9-27.9
			c9.2-6.7,12-10.1,22.8-10.1s25.4,6.4,34.6,21.4C189.2,36.4,199.9,90.8,199.9,90.8z"/>
		<pattern  id="path1079_1_" xlink:href="#pattern1857" patternTransform="matrix(1.3086 0 0 -1.0928 1889.1377 -17140.9961)">
		</pattern>
		<path id="path1079" inkscape:connector-curvature="0" class="st1" d="M101.5,83.2c0,0,26.1-4.4,49-4.4c22.8,0,47.9,4.4,47.9,4.4
			c1,4.7,1.6,7.6,1.6,7.6s-32.7-3.2-50.6-3.2c-17.9,0-48.3,2.4-48.3,2.4S101.1,87.3,101.5,83.2L101.5,83.2z"/>
	</g>
	<g id="g1089" class="st2">
		<g id="g1085">
			<path id="path1083"  inkscape:connector-curvature="0" class="st3" d="M151.5,65.7c-2.1,1.7-3.2,2.6-3.2,2.6
				c-1.2,1.2-1.9,2.7-2,4.5h9.8v-2.6h-6.2c0.3-0.5,1-1.2,2.1-1.9c1.4-0.9,2.3-1.6,2.7-2.1c0.9-1,1.3-2.1,1.3-3.3
				c0-1.4-0.5-2.5-1.4-3.3s-2.1-1.2-3.5-1.2c-3.1,0-4.7,1.7-4.7,5h2.7c0-1.8,0.7-2.7,2.1-2.7c1.3,0,2,0.7,2,2.1
				C153.2,63.9,152.6,64.8,151.5,65.7L151.5,65.7z"/>
		</g>
		<path id="path1087"  inkscape:connector-curvature="0" class="st3" d="M133.9,67.2h3c1.5,0,2.3,0.6,2.4,1.9
			c0.1,1.2,0.2,2.5,0.3,3.8h3.3v-0.4c-0.5-0.2-0.7-0.7-0.7-1.5c0-0.2,0-0.4,0.1-0.8v-0.7c0-1.7-0.6-2.9-1.8-3.5
			c1.4-0.5,2.2-1.6,2.2-3.4c0-1.3-0.4-2.3-1.3-3c-0.8-0.7-1.9-1-3.2-1h-7.3v14.2h3V67.2z M133.9,61h3.7c1.4,0,2.1,0.6,2.1,1.9
			c0,1.3-0.8,1.9-2.3,1.9h-3.5V61z"/>
	</g>
</g>
<g id="g1107">
	<g id="g1097">
		<path id="path1093" class="st5" d="M0,90.8c0,0,32.7-3.2,50.6-3.2c17.9,0,48.3,2.4,48.3,2.4s-3.1-44.7-4.8-52c-1.6-7.3-7.7-21.3-16.9-27.9
			S65.2,0,54.4,0S29,6.4,19.8,21.4C10.7,36.4,0,90.8,0,90.8z"/>
		<pattern  id="path1095_1_" xlink:href="#pattern1859" patternTransform="matrix(1.7801 0 0 -1.1047 5771.3389 -17252.1113)">
		</pattern>
		<path id="path1095" inkscape:connector-curvature="0" class="st4" d="M98.4,83.2c0,0-26.1-4.4-49-4.4c-22.8,0-47.9,4.4-47.9,4.4
			c-1,4.7-1.6,7.6-1.6,7.6s32.7-3.2,50.6-3.2c17.9,0,48.3,2.4,48.3,2.4S98.8,87.3,98.4,83.2L98.4,83.2z"/>
	</g>
	<g id="g1105" class="st2">
		<g id="g1101">
			<path id="path1099" inkscape:connector-curvature="0" class="st3" d="M64.5,65.7c-2.1,1.7-3.2,2.6-3.2,2.6
				c-1.2,1.2-1.9,2.7-2,4.5h9.8v-2.6h-6.2c0.3-0.5,1-1.2,2.1-1.9c1.4-0.9,2.3-1.6,2.7-2.1c0.9-1,1.3-2.1,1.3-3.3
				c0-1.4-0.5-2.5-1.4-3.3s-2.1-1.2-3.5-1.2c-3.1,0-4.7,1.7-4.7,5h2.7c0-1.8,0.7-2.7,2.1-2.7c1.3,0,2,0.7,2,2.1
				C66.2,63.9,65.7,64.8,64.5,65.7L64.5,65.7z"/>
		</g>
		<path id="polygon1103" inkscape:connector-curvature="0" class="st3" d="M56,70.2h-7.1V58.5h-3v14.3H56V70.2z"/>
	</g>
</g>
</svg>
