<?xml version="1.0" encoding="UTF-8" standalone="no"?>
<!-- Generator: Adobe Illustrator 19.0.1, SVG Export Plug-In . SVG Version: 6.00 Build 0)  -->

<svg
   xmlns:dc="http://purl.org/dc/elements/1.1/"
   xmlns:cc="http://creativecommons.org/ns#"
   xmlns:rdf="http://www.w3.org/1999/02/22-rdf-syntax-ns#"
   xmlns:svg="http://www.w3.org/2000/svg"
   xmlns="http://www.w3.org/2000/svg"
   xmlns:sodipodi="http://sodipodi.sourceforge.net/DTD/sodipodi-0.dtd"
   xmlns:inkscape="http://www.inkscape.org/namespaces/inkscape"
   version="1.1"
   id="Layer_1"
   x="0px"
   y="0px"
   width="98.9px"
   height="22.4px"
   viewBox="-910 529.6 98.9 22.4"
   style="enable-background:new -910 529.6 98.9 22.4;"
   xml:space="preserve"
   sodipodi:docname="jstnbump.svg"
   inkscape:version="0.92.4 (5da689c313, 2019-01-14)"><metadata
   id="metadata9719"><rdf:RDF><cc:Work
       rdf:about=""><dc:format>image/svg+xml</dc:format><dc:type
         rdf:resource="http://purl.org/dc/dcmitype/StillImage" /><dc:title></dc:title></cc:Work></rdf:RDF></metadata><defs
   id="defs9717" /><sodipodi:namedview
   pagecolor="#ffffff"
   bordercolor="#666666"
   borderopacity="1"
   objecttolerance="10"
   gridtolerance="10"
   guidetolerance="10"
   inkscape:pageopacity="0"
   inkscape:pageshadow="2"
   inkscape:window-width="1920"
   inkscape:window-height="1017"
   id="namedview9715"
   showgrid="false"
   inkscape:zoom="2.9120323"
   inkscape:cx="49.450001"
   inkscape:cy="11.2"
   inkscape:window-x="1912"
   inkscape:window-y="-8"
   inkscape:window-maximized="1"
   inkscape:current-layer="Layer_1" />
<style
   type="text/css"
   id="style9702">
	.st0{fill:#61E0DF;}
	.st1{fill:#3ED8D2;}
</style>
<g
   id="g9712">
	<g
   id="g9710">
		<g
   id="g9708">
			<path
   class="st0"
   d="M-910,545.1c0-0.8,0.4-1.5,1.1-1.9c4.5-2.9,23.4-13.6,51.5-13.6c26.9,0,41.1,5.9,45.1,8     c0.8,0.4,1.2,1.2,1.2,2c0,0-9.8-2.9-47.5-2.9C-896.4,536.7-910,545.1-910,545.1z"
   id="path9704"
   style="fill:#ffffff;fill-opacity:1" />
			<path
   class="st1"
   d="M-910,552L-910,552l0-6.9c0,0,13.7-8.4,51.4-8.4c37.8,0,47.5,2.9,47.5,2.9v11l0,0     c-7.7-1.3-21.2-2.6-44.1-2.6C-883.7,548-901.1,550.3-910,552z"
   id="path9706"
   style="fill:#edeef0;fill-opacity:1" />
		</g>
	</g>
</g>
</svg>
